G04 (created by PCBNEW (22-Jun-2014 BZR 4027)-stable) date Fri 24 Mar 2017 15:17:41 GMT*
%MOIN*%
G04 Gerber Fmt 3.4, Leading zero omitted, Abs format*
%FSLAX34Y34*%
G01*
G70*
G90*
G04 APERTURE LIST*
%ADD10C,0.005*%
%ADD11C,0.001*%
%ADD12C,0.00787402*%
%ADD13C,0.011811*%
G04 APERTURE END LIST*
G54D10*
G54D11*
X78050Y-22050D02*
X78050Y-34538D01*
X78050Y-34538D02*
X76038Y-37050D01*
X76038Y-37050D02*
X61061Y-37050D01*
X61061Y-37050D02*
X58550Y-34038D01*
X58550Y-34038D02*
X58550Y-22050D01*
X58550Y-22050D02*
X78050Y-22050D01*
G54D12*
X71275Y-35641D02*
X71866Y-36232D01*
X71866Y-35641D02*
X71275Y-36232D01*
X73244Y-33673D02*
X73834Y-34263D01*
X73834Y-33673D02*
X73244Y-34263D01*
X75212Y-35641D02*
X75803Y-36232D01*
X75803Y-35641D02*
X75212Y-36232D01*
G54D13*
X59613Y-38832D02*
X59613Y-37651D01*
X59894Y-37651D01*
X60063Y-37707D01*
X60176Y-37819D01*
X60232Y-37932D01*
X60288Y-38157D01*
X60288Y-38326D01*
X60232Y-38551D01*
X60176Y-38663D01*
X60063Y-38776D01*
X59894Y-38832D01*
X59613Y-38832D01*
X60794Y-38832D02*
X60794Y-38044D01*
X60794Y-38269D02*
X60850Y-38157D01*
X60907Y-38101D01*
X61019Y-38044D01*
X61132Y-38044D01*
X61525Y-38832D02*
X61525Y-38044D01*
X61525Y-37651D02*
X61469Y-37707D01*
X61525Y-37763D01*
X61582Y-37707D01*
X61525Y-37651D01*
X61525Y-37763D01*
X62257Y-38832D02*
X62144Y-38776D01*
X62088Y-38663D01*
X62088Y-37651D01*
X62875Y-38832D02*
X62763Y-38776D01*
X62706Y-38663D01*
X62706Y-37651D01*
X64225Y-38832D02*
X64225Y-37651D01*
X64619Y-38494D01*
X65012Y-37651D01*
X65012Y-38832D01*
X66081Y-38832D02*
X66081Y-38213D01*
X66025Y-38101D01*
X65912Y-38044D01*
X65687Y-38044D01*
X65575Y-38101D01*
X66081Y-38776D02*
X65969Y-38832D01*
X65687Y-38832D01*
X65575Y-38776D01*
X65519Y-38663D01*
X65519Y-38551D01*
X65575Y-38438D01*
X65687Y-38382D01*
X65969Y-38382D01*
X66081Y-38326D01*
X66643Y-38044D02*
X66643Y-39225D01*
X66643Y-38101D02*
X66756Y-38044D01*
X66981Y-38044D01*
X67093Y-38101D01*
X67150Y-38157D01*
X67206Y-38269D01*
X67206Y-38607D01*
X67150Y-38719D01*
X67093Y-38776D01*
X66981Y-38832D01*
X66756Y-38832D01*
X66643Y-38776D01*
X67712Y-38719D02*
X67768Y-38776D01*
X67712Y-38832D01*
X67656Y-38776D01*
X67712Y-38719D01*
X67712Y-38832D01*
X67712Y-38101D02*
X67768Y-38157D01*
X67712Y-38213D01*
X67656Y-38157D01*
X67712Y-38101D01*
X67712Y-38213D01*
X57954Y-40539D02*
X58544Y-41129D01*
X58544Y-40539D02*
X57954Y-41129D01*
X60232Y-41312D02*
X59557Y-41312D01*
X59894Y-41312D02*
X59894Y-40131D01*
X59782Y-40300D01*
X59669Y-40412D01*
X59557Y-40468D01*
X60738Y-41200D02*
X60794Y-41256D01*
X60738Y-41312D01*
X60682Y-41256D01*
X60738Y-41200D01*
X60738Y-41312D01*
X61863Y-40131D02*
X61300Y-40131D01*
X61244Y-40693D01*
X61300Y-40637D01*
X61413Y-40581D01*
X61694Y-40581D01*
X61807Y-40637D01*
X61863Y-40693D01*
X61919Y-40806D01*
X61919Y-41087D01*
X61863Y-41200D01*
X61807Y-41256D01*
X61694Y-41312D01*
X61413Y-41312D01*
X61300Y-41256D01*
X61244Y-41200D01*
X62650Y-40131D02*
X62763Y-40131D01*
X62875Y-40187D01*
X62931Y-40243D01*
X62988Y-40356D01*
X63044Y-40581D01*
X63044Y-40862D01*
X62988Y-41087D01*
X62931Y-41200D01*
X62875Y-41256D01*
X62763Y-41312D01*
X62650Y-41312D01*
X62538Y-41256D01*
X62482Y-41200D01*
X62425Y-41087D01*
X62369Y-40862D01*
X62369Y-40581D01*
X62425Y-40356D01*
X62482Y-40243D01*
X62538Y-40187D01*
X62650Y-40131D01*
X63550Y-41312D02*
X63550Y-40525D01*
X63550Y-40637D02*
X63606Y-40581D01*
X63719Y-40525D01*
X63888Y-40525D01*
X64000Y-40581D01*
X64056Y-40693D01*
X64056Y-41312D01*
X64056Y-40693D02*
X64113Y-40581D01*
X64225Y-40525D01*
X64394Y-40525D01*
X64506Y-40581D01*
X64562Y-40693D01*
X64562Y-41312D01*
X65125Y-41312D02*
X65125Y-40525D01*
X65125Y-40637D02*
X65181Y-40581D01*
X65294Y-40525D01*
X65462Y-40525D01*
X65575Y-40581D01*
X65631Y-40693D01*
X65631Y-41312D01*
X65631Y-40693D02*
X65687Y-40581D01*
X65800Y-40525D01*
X65969Y-40525D01*
X66081Y-40581D01*
X66137Y-40693D01*
X66137Y-41312D01*
X68443Y-40075D02*
X67431Y-41593D01*
X69962Y-40131D02*
X70074Y-40131D01*
X70187Y-40187D01*
X70243Y-40243D01*
X70299Y-40356D01*
X70356Y-40581D01*
X70356Y-40862D01*
X70299Y-41087D01*
X70243Y-41200D01*
X70187Y-41256D01*
X70074Y-41312D01*
X69962Y-41312D01*
X69849Y-41256D01*
X69793Y-41200D01*
X69737Y-41087D01*
X69681Y-40862D01*
X69681Y-40581D01*
X69737Y-40356D01*
X69793Y-40243D01*
X69849Y-40187D01*
X69962Y-40131D01*
X70862Y-41200D02*
X70918Y-41256D01*
X70862Y-41312D01*
X70805Y-41256D01*
X70862Y-41200D01*
X70862Y-41312D01*
X71649Y-40131D02*
X71762Y-40131D01*
X71874Y-40187D01*
X71930Y-40243D01*
X71987Y-40356D01*
X72043Y-40581D01*
X72043Y-40862D01*
X71987Y-41087D01*
X71930Y-41200D01*
X71874Y-41256D01*
X71762Y-41312D01*
X71649Y-41312D01*
X71537Y-41256D01*
X71480Y-41200D01*
X71424Y-41087D01*
X71368Y-40862D01*
X71368Y-40581D01*
X71424Y-40356D01*
X71480Y-40243D01*
X71537Y-40187D01*
X71649Y-40131D01*
X73111Y-40131D02*
X72549Y-40131D01*
X72493Y-40693D01*
X72549Y-40637D01*
X72661Y-40581D01*
X72943Y-40581D01*
X73055Y-40637D01*
X73111Y-40693D01*
X73168Y-40806D01*
X73168Y-41087D01*
X73111Y-41200D01*
X73055Y-41256D01*
X72943Y-41312D01*
X72661Y-41312D01*
X72549Y-41256D01*
X72493Y-41200D01*
X73730Y-41312D02*
X73955Y-41312D01*
X74068Y-41256D01*
X74124Y-41200D01*
X74236Y-41031D01*
X74293Y-40806D01*
X74293Y-40356D01*
X74236Y-40243D01*
X74180Y-40187D01*
X74068Y-40131D01*
X73843Y-40131D01*
X73730Y-40187D01*
X73674Y-40243D01*
X73618Y-40356D01*
X73618Y-40637D01*
X73674Y-40750D01*
X73730Y-40806D01*
X73843Y-40862D01*
X74068Y-40862D01*
X74180Y-40806D01*
X74236Y-40750D01*
X74293Y-40637D01*
X74742Y-40131D02*
X74742Y-40356D01*
X75192Y-40131D02*
X75192Y-40356D01*
X76936Y-41762D02*
X76880Y-41706D01*
X76767Y-41537D01*
X76711Y-41425D01*
X76655Y-41256D01*
X76598Y-40975D01*
X76598Y-40750D01*
X76655Y-40468D01*
X76711Y-40300D01*
X76767Y-40187D01*
X76880Y-40019D01*
X76936Y-39962D01*
X77273Y-40131D02*
X78005Y-40131D01*
X77611Y-40581D01*
X77780Y-40581D01*
X77892Y-40637D01*
X77948Y-40693D01*
X78005Y-40806D01*
X78005Y-41087D01*
X77948Y-41200D01*
X77892Y-41256D01*
X77780Y-41312D01*
X77442Y-41312D01*
X77330Y-41256D01*
X77273Y-41200D01*
X79411Y-41312D02*
X79411Y-40131D01*
X79917Y-41312D02*
X79917Y-40693D01*
X79861Y-40581D01*
X79748Y-40525D01*
X79579Y-40525D01*
X79467Y-40581D01*
X79411Y-40637D01*
X80648Y-41312D02*
X80536Y-41256D01*
X80479Y-41200D01*
X80423Y-41087D01*
X80423Y-40750D01*
X80479Y-40637D01*
X80536Y-40581D01*
X80648Y-40525D01*
X80817Y-40525D01*
X80929Y-40581D01*
X80985Y-40637D01*
X81042Y-40750D01*
X81042Y-41087D01*
X80985Y-41200D01*
X80929Y-41256D01*
X80817Y-41312D01*
X80648Y-41312D01*
X81717Y-41312D02*
X81604Y-41256D01*
X81548Y-41143D01*
X81548Y-40131D01*
X82616Y-41256D02*
X82504Y-41312D01*
X82279Y-41312D01*
X82167Y-41256D01*
X82110Y-41143D01*
X82110Y-40693D01*
X82167Y-40581D01*
X82279Y-40525D01*
X82504Y-40525D01*
X82616Y-40581D01*
X82673Y-40693D01*
X82673Y-40806D01*
X82110Y-40918D01*
X83123Y-41256D02*
X83235Y-41312D01*
X83460Y-41312D01*
X83573Y-41256D01*
X83629Y-41143D01*
X83629Y-41087D01*
X83573Y-40975D01*
X83460Y-40918D01*
X83291Y-40918D01*
X83179Y-40862D01*
X83123Y-40750D01*
X83123Y-40693D01*
X83179Y-40581D01*
X83291Y-40525D01*
X83460Y-40525D01*
X83573Y-40581D01*
X84023Y-41762D02*
X84079Y-41706D01*
X84191Y-41537D01*
X84248Y-41425D01*
X84304Y-41256D01*
X84360Y-40975D01*
X84360Y-40750D01*
X84304Y-40468D01*
X84248Y-40300D01*
X84191Y-40187D01*
X84079Y-40019D01*
X84023Y-39962D01*
M02*
