G04 (created by PCBNEW (22-Jun-2014 BZR 4027)-stable) date Fri 24 Mar 2017 15:17:41 GMT*
%MOIN*%
G04 Gerber Fmt 3.4, Leading zero omitted, Abs format*
%FSLAX34Y34*%
G01*
G70*
G90*
G04 APERTURE LIST*
%ADD10C,0.005*%
%ADD11C,0.001*%
%ADD12C,0.00787402*%
%ADD13C,0.011811*%
G04 APERTURE END LIST*
G54D10*
G54D11*
X78050Y-22050D02*
X78050Y-34538D01*
X78050Y-34538D02*
X76038Y-37050D01*
X76038Y-37050D02*
X61061Y-37050D01*
X61061Y-37050D02*
X58550Y-34038D01*
X58550Y-34038D02*
X58550Y-22050D01*
X58550Y-22050D02*
X78050Y-22050D01*
G54D12*
X61006Y-26131D02*
X61243Y-26368D01*
X61243Y-26131D02*
X61006Y-26368D01*
X61131Y-30256D02*
X61368Y-30493D01*
X61368Y-30256D02*
X61131Y-30493D01*
X61256Y-31381D02*
X61493Y-31618D01*
X61493Y-31381D02*
X61256Y-31618D01*
X62506Y-25881D02*
X62743Y-26118D01*
X62743Y-25881D02*
X62506Y-26118D01*
X63381Y-32881D02*
X63618Y-33118D01*
X63618Y-32881D02*
X63381Y-33118D01*
X64131Y-33381D02*
X64368Y-33618D01*
X64368Y-33381D02*
X64131Y-33618D01*
X64756Y-30631D02*
X64993Y-30868D01*
X64993Y-30631D02*
X64756Y-30868D01*
X65256Y-25756D02*
X65493Y-25993D01*
X65493Y-25756D02*
X65256Y-25993D01*
X67131Y-25381D02*
X67368Y-25618D01*
X67368Y-25381D02*
X67131Y-25618D01*
X67881Y-30131D02*
X68118Y-30368D01*
X68118Y-30131D02*
X67881Y-30368D01*
X68506Y-23006D02*
X68743Y-23243D01*
X68743Y-23006D02*
X68506Y-23243D01*
X68631Y-26881D02*
X68868Y-27118D01*
X68868Y-26881D02*
X68631Y-27118D01*
X70256Y-29756D02*
X70493Y-29993D01*
X70493Y-29756D02*
X70256Y-29993D01*
X71131Y-26131D02*
X71368Y-26368D01*
X71368Y-26131D02*
X71131Y-26368D01*
X71131Y-30131D02*
X71368Y-30368D01*
X71368Y-30131D02*
X71131Y-30368D01*
X71881Y-25256D02*
X72118Y-25493D01*
X72118Y-25256D02*
X71881Y-25493D01*
X74506Y-22756D02*
X74743Y-22993D01*
X74743Y-22756D02*
X74506Y-22993D01*
X64625Y-34500D02*
G75*
G03X64625Y-34500I-125J0D01*
G74*
G01*
X69125Y-35500D02*
G75*
G03X69125Y-35500I-125J0D01*
G74*
G01*
X59750Y-27140D02*
X59750Y-27460D01*
X59590Y-27300D02*
X59910Y-27300D01*
X59750Y-29040D02*
X59750Y-29360D01*
X59590Y-29200D02*
X59910Y-29200D01*
X63231Y-30875D02*
X63231Y-30624D01*
X62981Y-30624D01*
X62981Y-30875D01*
X63231Y-30875D01*
X64018Y-30875D02*
X64018Y-30624D01*
X63768Y-30624D01*
X63768Y-30875D01*
X64018Y-30875D01*
X59500Y-31700D02*
X59700Y-31500D01*
X59500Y-31300D01*
X59300Y-31500D01*
X59500Y-31700D01*
X59500Y-32700D02*
X59700Y-32500D01*
X59500Y-32300D01*
X59300Y-32500D01*
X59500Y-32700D01*
X59500Y-33700D02*
X59700Y-33500D01*
X59500Y-33300D01*
X59300Y-33500D01*
X59500Y-33700D01*
X59500Y-34700D02*
X59700Y-34500D01*
X59500Y-34300D01*
X59300Y-34500D01*
X59500Y-34700D01*
X60500Y-23150D02*
X60700Y-22950D01*
X60500Y-22750D01*
X60300Y-22950D01*
X60500Y-23150D01*
X61500Y-23250D02*
X61700Y-23050D01*
X61500Y-22850D01*
X61300Y-23050D01*
X61500Y-23250D01*
X62500Y-23150D02*
X62700Y-22950D01*
X62500Y-22750D01*
X62300Y-22950D01*
X62500Y-23150D01*
X63500Y-23250D02*
X63700Y-23050D01*
X63500Y-22850D01*
X63300Y-23050D01*
X63500Y-23250D01*
X64500Y-23150D02*
X64700Y-22950D01*
X64500Y-22750D01*
X64300Y-22950D01*
X64500Y-23150D01*
X76250Y-23450D02*
X76450Y-23250D01*
X76250Y-23050D01*
X76050Y-23250D01*
X76250Y-23450D01*
X76250Y-24450D02*
X76450Y-24250D01*
X76250Y-24050D01*
X76050Y-24250D01*
X76250Y-24450D01*
X76250Y-25450D02*
X76450Y-25250D01*
X76250Y-25050D01*
X76050Y-25250D01*
X76250Y-25450D01*
X71236Y-33673D02*
X71826Y-34263D01*
X71826Y-33673D02*
X71236Y-34263D01*
X71826Y-33968D02*
G75*
G03X71826Y-33968I-295J0D01*
G74*
G01*
X72299Y-33673D02*
X72889Y-34263D01*
X72889Y-33673D02*
X72299Y-34263D01*
X72889Y-33968D02*
G75*
G03X72889Y-33968I-295J0D01*
G74*
G01*
X73244Y-35641D02*
X73834Y-36232D01*
X73834Y-35641D02*
X73244Y-36232D01*
X73834Y-35937D02*
G75*
G03X73834Y-35937I-295J0D01*
G74*
G01*
X74188Y-33673D02*
X74779Y-34263D01*
X74779Y-33673D02*
X74188Y-34263D01*
X74779Y-33968D02*
G75*
G03X74779Y-33968I-295J0D01*
G74*
G01*
X75251Y-33673D02*
X75842Y-34263D01*
X75842Y-33673D02*
X75251Y-34263D01*
X75842Y-33968D02*
G75*
G03X75842Y-33968I-295J0D01*
G74*
G01*
G54D13*
X59613Y-38832D02*
X59613Y-37651D01*
X59894Y-37651D01*
X60063Y-37707D01*
X60176Y-37819D01*
X60232Y-37932D01*
X60288Y-38157D01*
X60288Y-38326D01*
X60232Y-38551D01*
X60176Y-38663D01*
X60063Y-38776D01*
X59894Y-38832D01*
X59613Y-38832D01*
X60794Y-38832D02*
X60794Y-38044D01*
X60794Y-38269D02*
X60850Y-38157D01*
X60907Y-38101D01*
X61019Y-38044D01*
X61132Y-38044D01*
X61525Y-38832D02*
X61525Y-38044D01*
X61525Y-37651D02*
X61469Y-37707D01*
X61525Y-37763D01*
X61582Y-37707D01*
X61525Y-37651D01*
X61525Y-37763D01*
X62257Y-38832D02*
X62144Y-38776D01*
X62088Y-38663D01*
X62088Y-37651D01*
X62875Y-38832D02*
X62763Y-38776D01*
X62706Y-38663D01*
X62706Y-37651D01*
X64225Y-38832D02*
X64225Y-37651D01*
X64619Y-38494D01*
X65012Y-37651D01*
X65012Y-38832D01*
X66081Y-38832D02*
X66081Y-38213D01*
X66025Y-38101D01*
X65912Y-38044D01*
X65687Y-38044D01*
X65575Y-38101D01*
X66081Y-38776D02*
X65969Y-38832D01*
X65687Y-38832D01*
X65575Y-38776D01*
X65519Y-38663D01*
X65519Y-38551D01*
X65575Y-38438D01*
X65687Y-38382D01*
X65969Y-38382D01*
X66081Y-38326D01*
X66643Y-38044D02*
X66643Y-39225D01*
X66643Y-38101D02*
X66756Y-38044D01*
X66981Y-38044D01*
X67093Y-38101D01*
X67150Y-38157D01*
X67206Y-38269D01*
X67206Y-38607D01*
X67150Y-38719D01*
X67093Y-38776D01*
X66981Y-38832D01*
X66756Y-38832D01*
X66643Y-38776D01*
X67712Y-38719D02*
X67768Y-38776D01*
X67712Y-38832D01*
X67656Y-38776D01*
X67712Y-38719D01*
X67712Y-38832D01*
X67712Y-38101D02*
X67768Y-38157D01*
X67712Y-38213D01*
X67656Y-38157D01*
X67712Y-38101D01*
X67712Y-38213D01*
X58308Y-40716D02*
X58544Y-40952D01*
X58544Y-40716D02*
X58308Y-40952D01*
X59838Y-40131D02*
X59951Y-40131D01*
X60063Y-40187D01*
X60119Y-40243D01*
X60176Y-40356D01*
X60232Y-40581D01*
X60232Y-40862D01*
X60176Y-41087D01*
X60119Y-41200D01*
X60063Y-41256D01*
X59951Y-41312D01*
X59838Y-41312D01*
X59726Y-41256D01*
X59669Y-41200D01*
X59613Y-41087D01*
X59557Y-40862D01*
X59557Y-40581D01*
X59613Y-40356D01*
X59669Y-40243D01*
X59726Y-40187D01*
X59838Y-40131D01*
X60738Y-41200D02*
X60794Y-41256D01*
X60738Y-41312D01*
X60682Y-41256D01*
X60738Y-41200D01*
X60738Y-41312D01*
X61807Y-40131D02*
X61582Y-40131D01*
X61469Y-40187D01*
X61413Y-40243D01*
X61300Y-40412D01*
X61244Y-40637D01*
X61244Y-41087D01*
X61300Y-41200D01*
X61357Y-41256D01*
X61469Y-41312D01*
X61694Y-41312D01*
X61807Y-41256D01*
X61863Y-41200D01*
X61919Y-41087D01*
X61919Y-40806D01*
X61863Y-40693D01*
X61807Y-40637D01*
X61694Y-40581D01*
X61469Y-40581D01*
X61357Y-40637D01*
X61300Y-40693D01*
X61244Y-40806D01*
X62650Y-40131D02*
X62763Y-40131D01*
X62875Y-40187D01*
X62931Y-40243D01*
X62988Y-40356D01*
X63044Y-40581D01*
X63044Y-40862D01*
X62988Y-41087D01*
X62931Y-41200D01*
X62875Y-41256D01*
X62763Y-41312D01*
X62650Y-41312D01*
X62538Y-41256D01*
X62482Y-41200D01*
X62425Y-41087D01*
X62369Y-40862D01*
X62369Y-40581D01*
X62425Y-40356D01*
X62482Y-40243D01*
X62538Y-40187D01*
X62650Y-40131D01*
X63550Y-41312D02*
X63550Y-40525D01*
X63550Y-40637D02*
X63606Y-40581D01*
X63719Y-40525D01*
X63888Y-40525D01*
X64000Y-40581D01*
X64056Y-40693D01*
X64056Y-41312D01*
X64056Y-40693D02*
X64113Y-40581D01*
X64225Y-40525D01*
X64394Y-40525D01*
X64506Y-40581D01*
X64562Y-40693D01*
X64562Y-41312D01*
X65125Y-41312D02*
X65125Y-40525D01*
X65125Y-40637D02*
X65181Y-40581D01*
X65294Y-40525D01*
X65462Y-40525D01*
X65575Y-40581D01*
X65631Y-40693D01*
X65631Y-41312D01*
X65631Y-40693D02*
X65687Y-40581D01*
X65800Y-40525D01*
X65969Y-40525D01*
X66081Y-40581D01*
X66137Y-40693D01*
X66137Y-41312D01*
X68443Y-40075D02*
X67431Y-41593D01*
X69962Y-40131D02*
X70074Y-40131D01*
X70187Y-40187D01*
X70243Y-40243D01*
X70299Y-40356D01*
X70356Y-40581D01*
X70356Y-40862D01*
X70299Y-41087D01*
X70243Y-41200D01*
X70187Y-41256D01*
X70074Y-41312D01*
X69962Y-41312D01*
X69849Y-41256D01*
X69793Y-41200D01*
X69737Y-41087D01*
X69681Y-40862D01*
X69681Y-40581D01*
X69737Y-40356D01*
X69793Y-40243D01*
X69849Y-40187D01*
X69962Y-40131D01*
X70862Y-41200D02*
X70918Y-41256D01*
X70862Y-41312D01*
X70805Y-41256D01*
X70862Y-41200D01*
X70862Y-41312D01*
X71649Y-40131D02*
X71762Y-40131D01*
X71874Y-40187D01*
X71930Y-40243D01*
X71987Y-40356D01*
X72043Y-40581D01*
X72043Y-40862D01*
X71987Y-41087D01*
X71930Y-41200D01*
X71874Y-41256D01*
X71762Y-41312D01*
X71649Y-41312D01*
X71537Y-41256D01*
X71480Y-41200D01*
X71424Y-41087D01*
X71368Y-40862D01*
X71368Y-40581D01*
X71424Y-40356D01*
X71480Y-40243D01*
X71537Y-40187D01*
X71649Y-40131D01*
X72493Y-40243D02*
X72549Y-40187D01*
X72661Y-40131D01*
X72943Y-40131D01*
X73055Y-40187D01*
X73111Y-40243D01*
X73168Y-40356D01*
X73168Y-40468D01*
X73111Y-40637D01*
X72437Y-41312D01*
X73168Y-41312D01*
X74180Y-40525D02*
X74180Y-41312D01*
X73899Y-40075D02*
X73618Y-40918D01*
X74349Y-40918D01*
X74742Y-40131D02*
X74742Y-40356D01*
X75192Y-40131D02*
X75192Y-40356D01*
X76936Y-41762D02*
X76880Y-41706D01*
X76767Y-41537D01*
X76711Y-41425D01*
X76655Y-41256D01*
X76598Y-40975D01*
X76598Y-40750D01*
X76655Y-40468D01*
X76711Y-40300D01*
X76767Y-40187D01*
X76880Y-40019D01*
X76936Y-39962D01*
X78005Y-41312D02*
X77330Y-41312D01*
X77667Y-41312D02*
X77667Y-40131D01*
X77555Y-40300D01*
X77442Y-40412D01*
X77330Y-40468D01*
X78398Y-40131D02*
X79186Y-40131D01*
X78679Y-41312D01*
X80536Y-41312D02*
X80536Y-40131D01*
X81042Y-41312D02*
X81042Y-40693D01*
X80985Y-40581D01*
X80873Y-40525D01*
X80704Y-40525D01*
X80592Y-40581D01*
X80536Y-40637D01*
X81773Y-41312D02*
X81660Y-41256D01*
X81604Y-41200D01*
X81548Y-41087D01*
X81548Y-40750D01*
X81604Y-40637D01*
X81660Y-40581D01*
X81773Y-40525D01*
X81942Y-40525D01*
X82054Y-40581D01*
X82110Y-40637D01*
X82167Y-40750D01*
X82167Y-41087D01*
X82110Y-41200D01*
X82054Y-41256D01*
X81942Y-41312D01*
X81773Y-41312D01*
X82841Y-41312D02*
X82729Y-41256D01*
X82673Y-41143D01*
X82673Y-40131D01*
X83741Y-41256D02*
X83629Y-41312D01*
X83404Y-41312D01*
X83291Y-41256D01*
X83235Y-41143D01*
X83235Y-40693D01*
X83291Y-40581D01*
X83404Y-40525D01*
X83629Y-40525D01*
X83741Y-40581D01*
X83798Y-40693D01*
X83798Y-40806D01*
X83235Y-40918D01*
X84248Y-41256D02*
X84360Y-41312D01*
X84585Y-41312D01*
X84697Y-41256D01*
X84754Y-41143D01*
X84754Y-41087D01*
X84697Y-40975D01*
X84585Y-40918D01*
X84416Y-40918D01*
X84304Y-40862D01*
X84248Y-40750D01*
X84248Y-40693D01*
X84304Y-40581D01*
X84416Y-40525D01*
X84585Y-40525D01*
X84697Y-40581D01*
X85147Y-41762D02*
X85204Y-41706D01*
X85316Y-41537D01*
X85372Y-41425D01*
X85429Y-41256D01*
X85485Y-40975D01*
X85485Y-40750D01*
X85429Y-40468D01*
X85372Y-40300D01*
X85316Y-40187D01*
X85204Y-40019D01*
X85147Y-39962D01*
G54D12*
X58544Y-42393D02*
G75*
G03X58544Y-42393I-125J0D01*
G74*
G01*
G54D13*
X59838Y-41690D02*
X59951Y-41690D01*
X60063Y-41746D01*
X60119Y-41803D01*
X60176Y-41915D01*
X60232Y-42140D01*
X60232Y-42421D01*
X60176Y-42646D01*
X60119Y-42759D01*
X60063Y-42815D01*
X59951Y-42871D01*
X59838Y-42871D01*
X59726Y-42815D01*
X59669Y-42759D01*
X59613Y-42646D01*
X59557Y-42421D01*
X59557Y-42140D01*
X59613Y-41915D01*
X59669Y-41803D01*
X59726Y-41746D01*
X59838Y-41690D01*
X60738Y-42759D02*
X60794Y-42815D01*
X60738Y-42871D01*
X60682Y-42815D01*
X60738Y-42759D01*
X60738Y-42871D01*
X61807Y-41690D02*
X61582Y-41690D01*
X61469Y-41746D01*
X61413Y-41803D01*
X61300Y-41971D01*
X61244Y-42196D01*
X61244Y-42646D01*
X61300Y-42759D01*
X61357Y-42815D01*
X61469Y-42871D01*
X61694Y-42871D01*
X61807Y-42815D01*
X61863Y-42759D01*
X61919Y-42646D01*
X61919Y-42365D01*
X61863Y-42252D01*
X61807Y-42196D01*
X61694Y-42140D01*
X61469Y-42140D01*
X61357Y-42196D01*
X61300Y-42252D01*
X61244Y-42365D01*
X62931Y-42084D02*
X62931Y-42871D01*
X62650Y-41634D02*
X62369Y-42477D01*
X63100Y-42477D01*
X63550Y-42871D02*
X63550Y-42084D01*
X63550Y-42196D02*
X63606Y-42140D01*
X63719Y-42084D01*
X63888Y-42084D01*
X64000Y-42140D01*
X64056Y-42252D01*
X64056Y-42871D01*
X64056Y-42252D02*
X64113Y-42140D01*
X64225Y-42084D01*
X64394Y-42084D01*
X64506Y-42140D01*
X64562Y-42252D01*
X64562Y-42871D01*
X65125Y-42871D02*
X65125Y-42084D01*
X65125Y-42196D02*
X65181Y-42140D01*
X65294Y-42084D01*
X65462Y-42084D01*
X65575Y-42140D01*
X65631Y-42252D01*
X65631Y-42871D01*
X65631Y-42252D02*
X65687Y-42140D01*
X65800Y-42084D01*
X65969Y-42084D01*
X66081Y-42140D01*
X66137Y-42252D01*
X66137Y-42871D01*
X68443Y-41634D02*
X67431Y-43152D01*
X69962Y-41690D02*
X70074Y-41690D01*
X70187Y-41746D01*
X70243Y-41803D01*
X70299Y-41915D01*
X70356Y-42140D01*
X70356Y-42421D01*
X70299Y-42646D01*
X70243Y-42759D01*
X70187Y-42815D01*
X70074Y-42871D01*
X69962Y-42871D01*
X69849Y-42815D01*
X69793Y-42759D01*
X69737Y-42646D01*
X69681Y-42421D01*
X69681Y-42140D01*
X69737Y-41915D01*
X69793Y-41803D01*
X69849Y-41746D01*
X69962Y-41690D01*
X70862Y-42759D02*
X70918Y-42815D01*
X70862Y-42871D01*
X70805Y-42815D01*
X70862Y-42759D01*
X70862Y-42871D01*
X71649Y-41690D02*
X71762Y-41690D01*
X71874Y-41746D01*
X71930Y-41803D01*
X71987Y-41915D01*
X72043Y-42140D01*
X72043Y-42421D01*
X71987Y-42646D01*
X71930Y-42759D01*
X71874Y-42815D01*
X71762Y-42871D01*
X71649Y-42871D01*
X71537Y-42815D01*
X71480Y-42759D01*
X71424Y-42646D01*
X71368Y-42421D01*
X71368Y-42140D01*
X71424Y-41915D01*
X71480Y-41803D01*
X71537Y-41746D01*
X71649Y-41690D01*
X72493Y-41803D02*
X72549Y-41746D01*
X72661Y-41690D01*
X72943Y-41690D01*
X73055Y-41746D01*
X73111Y-41803D01*
X73168Y-41915D01*
X73168Y-42028D01*
X73111Y-42196D01*
X72437Y-42871D01*
X73168Y-42871D01*
X74236Y-41690D02*
X73674Y-41690D01*
X73618Y-42252D01*
X73674Y-42196D01*
X73786Y-42140D01*
X74068Y-42140D01*
X74180Y-42196D01*
X74236Y-42252D01*
X74293Y-42365D01*
X74293Y-42646D01*
X74236Y-42759D01*
X74180Y-42815D01*
X74068Y-42871D01*
X73786Y-42871D01*
X73674Y-42815D01*
X73618Y-42759D01*
X74742Y-41690D02*
X74742Y-41915D01*
X75192Y-41690D02*
X75192Y-41915D01*
X76936Y-43321D02*
X76880Y-43265D01*
X76767Y-43096D01*
X76711Y-42984D01*
X76655Y-42815D01*
X76598Y-42534D01*
X76598Y-42309D01*
X76655Y-42028D01*
X76711Y-41859D01*
X76767Y-41746D01*
X76880Y-41578D01*
X76936Y-41521D01*
X77330Y-41803D02*
X77386Y-41746D01*
X77498Y-41690D01*
X77780Y-41690D01*
X77892Y-41746D01*
X77948Y-41803D01*
X78005Y-41915D01*
X78005Y-42028D01*
X77948Y-42196D01*
X77273Y-42871D01*
X78005Y-42871D01*
X79411Y-42871D02*
X79411Y-41690D01*
X79917Y-42871D02*
X79917Y-42252D01*
X79861Y-42140D01*
X79748Y-42084D01*
X79579Y-42084D01*
X79467Y-42140D01*
X79411Y-42196D01*
X80648Y-42871D02*
X80536Y-42815D01*
X80479Y-42759D01*
X80423Y-42646D01*
X80423Y-42309D01*
X80479Y-42196D01*
X80536Y-42140D01*
X80648Y-42084D01*
X80817Y-42084D01*
X80929Y-42140D01*
X80985Y-42196D01*
X81042Y-42309D01*
X81042Y-42646D01*
X80985Y-42759D01*
X80929Y-42815D01*
X80817Y-42871D01*
X80648Y-42871D01*
X81717Y-42871D02*
X81604Y-42815D01*
X81548Y-42702D01*
X81548Y-41690D01*
X82616Y-42815D02*
X82504Y-42871D01*
X82279Y-42871D01*
X82167Y-42815D01*
X82110Y-42702D01*
X82110Y-42252D01*
X82167Y-42140D01*
X82279Y-42084D01*
X82504Y-42084D01*
X82616Y-42140D01*
X82673Y-42252D01*
X82673Y-42365D01*
X82110Y-42477D01*
X83123Y-42815D02*
X83235Y-42871D01*
X83460Y-42871D01*
X83573Y-42815D01*
X83629Y-42702D01*
X83629Y-42646D01*
X83573Y-42534D01*
X83460Y-42477D01*
X83291Y-42477D01*
X83179Y-42421D01*
X83123Y-42309D01*
X83123Y-42252D01*
X83179Y-42140D01*
X83291Y-42084D01*
X83460Y-42084D01*
X83573Y-42140D01*
X84023Y-43321D02*
X84079Y-43265D01*
X84191Y-43096D01*
X84248Y-42984D01*
X84304Y-42815D01*
X84360Y-42534D01*
X84360Y-42309D01*
X84304Y-42028D01*
X84248Y-41859D01*
X84191Y-41746D01*
X84079Y-41578D01*
X84023Y-41521D01*
X58384Y-43792D02*
X58384Y-44112D01*
X58224Y-43952D02*
X58544Y-43952D01*
X59838Y-43249D02*
X59951Y-43249D01*
X60063Y-43305D01*
X60119Y-43362D01*
X60176Y-43474D01*
X60232Y-43699D01*
X60232Y-43980D01*
X60176Y-44205D01*
X60119Y-44318D01*
X60063Y-44374D01*
X59951Y-44430D01*
X59838Y-44430D01*
X59726Y-44374D01*
X59669Y-44318D01*
X59613Y-44205D01*
X59557Y-43980D01*
X59557Y-43699D01*
X59613Y-43474D01*
X59669Y-43362D01*
X59726Y-43305D01*
X59838Y-43249D01*
X60738Y-44318D02*
X60794Y-44374D01*
X60738Y-44430D01*
X60682Y-44374D01*
X60738Y-44318D01*
X60738Y-44430D01*
X61469Y-43755D02*
X61357Y-43699D01*
X61300Y-43643D01*
X61244Y-43530D01*
X61244Y-43474D01*
X61300Y-43362D01*
X61357Y-43305D01*
X61469Y-43249D01*
X61694Y-43249D01*
X61807Y-43305D01*
X61863Y-43362D01*
X61919Y-43474D01*
X61919Y-43530D01*
X61863Y-43643D01*
X61807Y-43699D01*
X61694Y-43755D01*
X61469Y-43755D01*
X61357Y-43812D01*
X61300Y-43868D01*
X61244Y-43980D01*
X61244Y-44205D01*
X61300Y-44318D01*
X61357Y-44374D01*
X61469Y-44430D01*
X61694Y-44430D01*
X61807Y-44374D01*
X61863Y-44318D01*
X61919Y-44205D01*
X61919Y-43980D01*
X61863Y-43868D01*
X61807Y-43812D01*
X61694Y-43755D01*
X63044Y-44430D02*
X62369Y-44430D01*
X62706Y-44430D02*
X62706Y-43249D01*
X62594Y-43418D01*
X62482Y-43530D01*
X62369Y-43587D01*
X63550Y-44430D02*
X63550Y-43643D01*
X63550Y-43755D02*
X63606Y-43699D01*
X63719Y-43643D01*
X63888Y-43643D01*
X64000Y-43699D01*
X64056Y-43812D01*
X64056Y-44430D01*
X64056Y-43812D02*
X64113Y-43699D01*
X64225Y-43643D01*
X64394Y-43643D01*
X64506Y-43699D01*
X64562Y-43812D01*
X64562Y-44430D01*
X65125Y-44430D02*
X65125Y-43643D01*
X65125Y-43755D02*
X65181Y-43699D01*
X65294Y-43643D01*
X65462Y-43643D01*
X65575Y-43699D01*
X65631Y-43812D01*
X65631Y-44430D01*
X65631Y-43812D02*
X65687Y-43699D01*
X65800Y-43643D01*
X65969Y-43643D01*
X66081Y-43699D01*
X66137Y-43812D01*
X66137Y-44430D01*
X68443Y-43193D02*
X67431Y-44711D01*
X69962Y-43249D02*
X70074Y-43249D01*
X70187Y-43305D01*
X70243Y-43362D01*
X70299Y-43474D01*
X70356Y-43699D01*
X70356Y-43980D01*
X70299Y-44205D01*
X70243Y-44318D01*
X70187Y-44374D01*
X70074Y-44430D01*
X69962Y-44430D01*
X69849Y-44374D01*
X69793Y-44318D01*
X69737Y-44205D01*
X69681Y-43980D01*
X69681Y-43699D01*
X69737Y-43474D01*
X69793Y-43362D01*
X69849Y-43305D01*
X69962Y-43249D01*
X70862Y-44318D02*
X70918Y-44374D01*
X70862Y-44430D01*
X70805Y-44374D01*
X70862Y-44318D01*
X70862Y-44430D01*
X71649Y-43249D02*
X71762Y-43249D01*
X71874Y-43305D01*
X71930Y-43362D01*
X71987Y-43474D01*
X72043Y-43699D01*
X72043Y-43980D01*
X71987Y-44205D01*
X71930Y-44318D01*
X71874Y-44374D01*
X71762Y-44430D01*
X71649Y-44430D01*
X71537Y-44374D01*
X71480Y-44318D01*
X71424Y-44205D01*
X71368Y-43980D01*
X71368Y-43699D01*
X71424Y-43474D01*
X71480Y-43362D01*
X71537Y-43305D01*
X71649Y-43249D01*
X72437Y-43249D02*
X73168Y-43249D01*
X72774Y-43699D01*
X72943Y-43699D01*
X73055Y-43755D01*
X73111Y-43812D01*
X73168Y-43924D01*
X73168Y-44205D01*
X73111Y-44318D01*
X73055Y-44374D01*
X72943Y-44430D01*
X72605Y-44430D01*
X72493Y-44374D01*
X72437Y-44318D01*
X73618Y-43362D02*
X73674Y-43305D01*
X73786Y-43249D01*
X74068Y-43249D01*
X74180Y-43305D01*
X74236Y-43362D01*
X74293Y-43474D01*
X74293Y-43587D01*
X74236Y-43755D01*
X73561Y-44430D01*
X74293Y-44430D01*
X74742Y-43249D02*
X74742Y-43474D01*
X75192Y-43249D02*
X75192Y-43474D01*
X76936Y-44880D02*
X76880Y-44824D01*
X76767Y-44655D01*
X76711Y-44543D01*
X76655Y-44374D01*
X76598Y-44093D01*
X76598Y-43868D01*
X76655Y-43587D01*
X76711Y-43418D01*
X76767Y-43305D01*
X76880Y-43137D01*
X76936Y-43080D01*
X77330Y-43362D02*
X77386Y-43305D01*
X77498Y-43249D01*
X77780Y-43249D01*
X77892Y-43305D01*
X77948Y-43362D01*
X78005Y-43474D01*
X78005Y-43587D01*
X77948Y-43755D01*
X77273Y-44430D01*
X78005Y-44430D01*
X79411Y-44430D02*
X79411Y-43249D01*
X79917Y-44430D02*
X79917Y-43812D01*
X79861Y-43699D01*
X79748Y-43643D01*
X79579Y-43643D01*
X79467Y-43699D01*
X79411Y-43755D01*
X80648Y-44430D02*
X80536Y-44374D01*
X80479Y-44318D01*
X80423Y-44205D01*
X80423Y-43868D01*
X80479Y-43755D01*
X80536Y-43699D01*
X80648Y-43643D01*
X80817Y-43643D01*
X80929Y-43699D01*
X80985Y-43755D01*
X81042Y-43868D01*
X81042Y-44205D01*
X80985Y-44318D01*
X80929Y-44374D01*
X80817Y-44430D01*
X80648Y-44430D01*
X81717Y-44430D02*
X81604Y-44374D01*
X81548Y-44261D01*
X81548Y-43249D01*
X82616Y-44374D02*
X82504Y-44430D01*
X82279Y-44430D01*
X82167Y-44374D01*
X82110Y-44261D01*
X82110Y-43812D01*
X82167Y-43699D01*
X82279Y-43643D01*
X82504Y-43643D01*
X82616Y-43699D01*
X82673Y-43812D01*
X82673Y-43924D01*
X82110Y-44037D01*
X83123Y-44374D02*
X83235Y-44430D01*
X83460Y-44430D01*
X83573Y-44374D01*
X83629Y-44261D01*
X83629Y-44205D01*
X83573Y-44093D01*
X83460Y-44037D01*
X83291Y-44037D01*
X83179Y-43980D01*
X83123Y-43868D01*
X83123Y-43812D01*
X83179Y-43699D01*
X83291Y-43643D01*
X83460Y-43643D01*
X83573Y-43699D01*
X84023Y-44880D02*
X84079Y-44824D01*
X84191Y-44655D01*
X84248Y-44543D01*
X84304Y-44374D01*
X84360Y-44093D01*
X84360Y-43868D01*
X84304Y-43587D01*
X84248Y-43418D01*
X84191Y-43305D01*
X84079Y-43137D01*
X84023Y-43080D01*
G54D12*
X58493Y-45636D02*
X58493Y-45386D01*
X58242Y-45386D01*
X58242Y-45636D01*
X58493Y-45636D01*
G54D13*
X59838Y-44808D02*
X59951Y-44808D01*
X60063Y-44864D01*
X60119Y-44921D01*
X60176Y-45033D01*
X60232Y-45258D01*
X60232Y-45539D01*
X60176Y-45764D01*
X60119Y-45877D01*
X60063Y-45933D01*
X59951Y-45989D01*
X59838Y-45989D01*
X59726Y-45933D01*
X59669Y-45877D01*
X59613Y-45764D01*
X59557Y-45539D01*
X59557Y-45258D01*
X59613Y-45033D01*
X59669Y-44921D01*
X59726Y-44864D01*
X59838Y-44808D01*
X60738Y-45877D02*
X60794Y-45933D01*
X60738Y-45989D01*
X60682Y-45933D01*
X60738Y-45877D01*
X60738Y-45989D01*
X61357Y-45989D02*
X61582Y-45989D01*
X61694Y-45933D01*
X61750Y-45877D01*
X61863Y-45708D01*
X61919Y-45483D01*
X61919Y-45033D01*
X61863Y-44921D01*
X61807Y-44864D01*
X61694Y-44808D01*
X61469Y-44808D01*
X61357Y-44864D01*
X61300Y-44921D01*
X61244Y-45033D01*
X61244Y-45314D01*
X61300Y-45427D01*
X61357Y-45483D01*
X61469Y-45539D01*
X61694Y-45539D01*
X61807Y-45483D01*
X61863Y-45427D01*
X61919Y-45314D01*
X62650Y-44808D02*
X62763Y-44808D01*
X62875Y-44864D01*
X62931Y-44921D01*
X62988Y-45033D01*
X63044Y-45258D01*
X63044Y-45539D01*
X62988Y-45764D01*
X62931Y-45877D01*
X62875Y-45933D01*
X62763Y-45989D01*
X62650Y-45989D01*
X62538Y-45933D01*
X62482Y-45877D01*
X62425Y-45764D01*
X62369Y-45539D01*
X62369Y-45258D01*
X62425Y-45033D01*
X62482Y-44921D01*
X62538Y-44864D01*
X62650Y-44808D01*
X63550Y-45989D02*
X63550Y-45202D01*
X63550Y-45314D02*
X63606Y-45258D01*
X63719Y-45202D01*
X63888Y-45202D01*
X64000Y-45258D01*
X64056Y-45371D01*
X64056Y-45989D01*
X64056Y-45371D02*
X64113Y-45258D01*
X64225Y-45202D01*
X64394Y-45202D01*
X64506Y-45258D01*
X64562Y-45371D01*
X64562Y-45989D01*
X65125Y-45989D02*
X65125Y-45202D01*
X65125Y-45314D02*
X65181Y-45258D01*
X65294Y-45202D01*
X65462Y-45202D01*
X65575Y-45258D01*
X65631Y-45371D01*
X65631Y-45989D01*
X65631Y-45371D02*
X65687Y-45258D01*
X65800Y-45202D01*
X65969Y-45202D01*
X66081Y-45258D01*
X66137Y-45371D01*
X66137Y-45989D01*
X68443Y-44752D02*
X67431Y-46270D01*
X69962Y-44808D02*
X70074Y-44808D01*
X70187Y-44864D01*
X70243Y-44921D01*
X70299Y-45033D01*
X70356Y-45258D01*
X70356Y-45539D01*
X70299Y-45764D01*
X70243Y-45877D01*
X70187Y-45933D01*
X70074Y-45989D01*
X69962Y-45989D01*
X69849Y-45933D01*
X69793Y-45877D01*
X69737Y-45764D01*
X69681Y-45539D01*
X69681Y-45258D01*
X69737Y-45033D01*
X69793Y-44921D01*
X69849Y-44864D01*
X69962Y-44808D01*
X70862Y-45877D02*
X70918Y-45933D01*
X70862Y-45989D01*
X70805Y-45933D01*
X70862Y-45877D01*
X70862Y-45989D01*
X71649Y-44808D02*
X71762Y-44808D01*
X71874Y-44864D01*
X71930Y-44921D01*
X71987Y-45033D01*
X72043Y-45258D01*
X72043Y-45539D01*
X71987Y-45764D01*
X71930Y-45877D01*
X71874Y-45933D01*
X71762Y-45989D01*
X71649Y-45989D01*
X71537Y-45933D01*
X71480Y-45877D01*
X71424Y-45764D01*
X71368Y-45539D01*
X71368Y-45258D01*
X71424Y-45033D01*
X71480Y-44921D01*
X71537Y-44864D01*
X71649Y-44808D01*
X72437Y-44808D02*
X73168Y-44808D01*
X72774Y-45258D01*
X72943Y-45258D01*
X73055Y-45314D01*
X73111Y-45371D01*
X73168Y-45483D01*
X73168Y-45764D01*
X73111Y-45877D01*
X73055Y-45933D01*
X72943Y-45989D01*
X72605Y-45989D01*
X72493Y-45933D01*
X72437Y-45877D01*
X74236Y-44808D02*
X73674Y-44808D01*
X73618Y-45371D01*
X73674Y-45314D01*
X73786Y-45258D01*
X74068Y-45258D01*
X74180Y-45314D01*
X74236Y-45371D01*
X74293Y-45483D01*
X74293Y-45764D01*
X74236Y-45877D01*
X74180Y-45933D01*
X74068Y-45989D01*
X73786Y-45989D01*
X73674Y-45933D01*
X73618Y-45877D01*
X74742Y-44808D02*
X74742Y-45033D01*
X75192Y-44808D02*
X75192Y-45033D01*
X76936Y-46439D02*
X76880Y-46383D01*
X76767Y-46214D01*
X76711Y-46102D01*
X76655Y-45933D01*
X76598Y-45652D01*
X76598Y-45427D01*
X76655Y-45146D01*
X76711Y-44977D01*
X76767Y-44864D01*
X76880Y-44696D01*
X76936Y-44639D01*
X77330Y-44921D02*
X77386Y-44864D01*
X77498Y-44808D01*
X77780Y-44808D01*
X77892Y-44864D01*
X77948Y-44921D01*
X78005Y-45033D01*
X78005Y-45146D01*
X77948Y-45314D01*
X77273Y-45989D01*
X78005Y-45989D01*
X79411Y-45989D02*
X79411Y-44808D01*
X79917Y-45989D02*
X79917Y-45371D01*
X79861Y-45258D01*
X79748Y-45202D01*
X79579Y-45202D01*
X79467Y-45258D01*
X79411Y-45314D01*
X80648Y-45989D02*
X80536Y-45933D01*
X80479Y-45877D01*
X80423Y-45764D01*
X80423Y-45427D01*
X80479Y-45314D01*
X80536Y-45258D01*
X80648Y-45202D01*
X80817Y-45202D01*
X80929Y-45258D01*
X80985Y-45314D01*
X81042Y-45427D01*
X81042Y-45764D01*
X80985Y-45877D01*
X80929Y-45933D01*
X80817Y-45989D01*
X80648Y-45989D01*
X81717Y-45989D02*
X81604Y-45933D01*
X81548Y-45821D01*
X81548Y-44808D01*
X82616Y-45933D02*
X82504Y-45989D01*
X82279Y-45989D01*
X82167Y-45933D01*
X82110Y-45821D01*
X82110Y-45371D01*
X82167Y-45258D01*
X82279Y-45202D01*
X82504Y-45202D01*
X82616Y-45258D01*
X82673Y-45371D01*
X82673Y-45483D01*
X82110Y-45596D01*
X83123Y-45933D02*
X83235Y-45989D01*
X83460Y-45989D01*
X83573Y-45933D01*
X83629Y-45821D01*
X83629Y-45764D01*
X83573Y-45652D01*
X83460Y-45596D01*
X83291Y-45596D01*
X83179Y-45539D01*
X83123Y-45427D01*
X83123Y-45371D01*
X83179Y-45258D01*
X83291Y-45202D01*
X83460Y-45202D01*
X83573Y-45258D01*
X84023Y-46439D02*
X84079Y-46383D01*
X84191Y-46214D01*
X84248Y-46102D01*
X84304Y-45933D01*
X84360Y-45652D01*
X84360Y-45427D01*
X84304Y-45146D01*
X84248Y-44977D01*
X84191Y-44864D01*
X84079Y-44696D01*
X84023Y-44639D01*
G54D12*
X58344Y-47270D02*
X58544Y-47070D01*
X58344Y-46870D01*
X58144Y-47070D01*
X58344Y-47270D01*
G54D13*
X60232Y-47548D02*
X59557Y-47548D01*
X59894Y-47548D02*
X59894Y-46367D01*
X59782Y-46536D01*
X59669Y-46648D01*
X59557Y-46705D01*
X60738Y-47436D02*
X60794Y-47492D01*
X60738Y-47548D01*
X60682Y-47492D01*
X60738Y-47436D01*
X60738Y-47548D01*
X61525Y-46367D02*
X61638Y-46367D01*
X61750Y-46423D01*
X61807Y-46480D01*
X61863Y-46592D01*
X61919Y-46817D01*
X61919Y-47098D01*
X61863Y-47323D01*
X61807Y-47436D01*
X61750Y-47492D01*
X61638Y-47548D01*
X61525Y-47548D01*
X61413Y-47492D01*
X61357Y-47436D01*
X61300Y-47323D01*
X61244Y-47098D01*
X61244Y-46817D01*
X61300Y-46592D01*
X61357Y-46480D01*
X61413Y-46423D01*
X61525Y-46367D01*
X62369Y-46480D02*
X62425Y-46423D01*
X62538Y-46367D01*
X62819Y-46367D01*
X62931Y-46423D01*
X62988Y-46480D01*
X63044Y-46592D01*
X63044Y-46705D01*
X62988Y-46873D01*
X62313Y-47548D01*
X63044Y-47548D01*
X63550Y-47548D02*
X63550Y-46761D01*
X63550Y-46873D02*
X63606Y-46817D01*
X63719Y-46761D01*
X63888Y-46761D01*
X64000Y-46817D01*
X64056Y-46930D01*
X64056Y-47548D01*
X64056Y-46930D02*
X64113Y-46817D01*
X64225Y-46761D01*
X64394Y-46761D01*
X64506Y-46817D01*
X64562Y-46930D01*
X64562Y-47548D01*
X65125Y-47548D02*
X65125Y-46761D01*
X65125Y-46873D02*
X65181Y-46817D01*
X65294Y-46761D01*
X65462Y-46761D01*
X65575Y-46817D01*
X65631Y-46930D01*
X65631Y-47548D01*
X65631Y-46930D02*
X65687Y-46817D01*
X65800Y-46761D01*
X65969Y-46761D01*
X66081Y-46817D01*
X66137Y-46930D01*
X66137Y-47548D01*
X68443Y-46311D02*
X67431Y-47830D01*
X69962Y-46367D02*
X70074Y-46367D01*
X70187Y-46423D01*
X70243Y-46480D01*
X70299Y-46592D01*
X70356Y-46817D01*
X70356Y-47098D01*
X70299Y-47323D01*
X70243Y-47436D01*
X70187Y-47492D01*
X70074Y-47548D01*
X69962Y-47548D01*
X69849Y-47492D01*
X69793Y-47436D01*
X69737Y-47323D01*
X69681Y-47098D01*
X69681Y-46817D01*
X69737Y-46592D01*
X69793Y-46480D01*
X69849Y-46423D01*
X69962Y-46367D01*
X70862Y-47436D02*
X70918Y-47492D01*
X70862Y-47548D01*
X70805Y-47492D01*
X70862Y-47436D01*
X70862Y-47548D01*
X71649Y-46367D02*
X71762Y-46367D01*
X71874Y-46423D01*
X71930Y-46480D01*
X71987Y-46592D01*
X72043Y-46817D01*
X72043Y-47098D01*
X71987Y-47323D01*
X71930Y-47436D01*
X71874Y-47492D01*
X71762Y-47548D01*
X71649Y-47548D01*
X71537Y-47492D01*
X71480Y-47436D01*
X71424Y-47323D01*
X71368Y-47098D01*
X71368Y-46817D01*
X71424Y-46592D01*
X71480Y-46480D01*
X71537Y-46423D01*
X71649Y-46367D01*
X73055Y-46761D02*
X73055Y-47548D01*
X72774Y-46311D02*
X72493Y-47155D01*
X73224Y-47155D01*
X73899Y-46367D02*
X74011Y-46367D01*
X74124Y-46423D01*
X74180Y-46480D01*
X74236Y-46592D01*
X74293Y-46817D01*
X74293Y-47098D01*
X74236Y-47323D01*
X74180Y-47436D01*
X74124Y-47492D01*
X74011Y-47548D01*
X73899Y-47548D01*
X73786Y-47492D01*
X73730Y-47436D01*
X73674Y-47323D01*
X73618Y-47098D01*
X73618Y-46817D01*
X73674Y-46592D01*
X73730Y-46480D01*
X73786Y-46423D01*
X73899Y-46367D01*
X74742Y-46367D02*
X74742Y-46592D01*
X75192Y-46367D02*
X75192Y-46592D01*
X76936Y-47998D02*
X76880Y-47942D01*
X76767Y-47773D01*
X76711Y-47661D01*
X76655Y-47492D01*
X76598Y-47211D01*
X76598Y-46986D01*
X76655Y-46705D01*
X76711Y-46536D01*
X76767Y-46423D01*
X76880Y-46255D01*
X76936Y-46198D01*
X78005Y-47548D02*
X77330Y-47548D01*
X77667Y-47548D02*
X77667Y-46367D01*
X77555Y-46536D01*
X77442Y-46648D01*
X77330Y-46705D01*
X78455Y-46480D02*
X78511Y-46423D01*
X78623Y-46367D01*
X78904Y-46367D01*
X79017Y-46423D01*
X79073Y-46480D01*
X79129Y-46592D01*
X79129Y-46705D01*
X79073Y-46873D01*
X78398Y-47548D01*
X79129Y-47548D01*
X80536Y-47548D02*
X80536Y-46367D01*
X81042Y-47548D02*
X81042Y-46930D01*
X80985Y-46817D01*
X80873Y-46761D01*
X80704Y-46761D01*
X80592Y-46817D01*
X80536Y-46873D01*
X81773Y-47548D02*
X81660Y-47492D01*
X81604Y-47436D01*
X81548Y-47323D01*
X81548Y-46986D01*
X81604Y-46873D01*
X81660Y-46817D01*
X81773Y-46761D01*
X81942Y-46761D01*
X82054Y-46817D01*
X82110Y-46873D01*
X82167Y-46986D01*
X82167Y-47323D01*
X82110Y-47436D01*
X82054Y-47492D01*
X81942Y-47548D01*
X81773Y-47548D01*
X82841Y-47548D02*
X82729Y-47492D01*
X82673Y-47380D01*
X82673Y-46367D01*
X83741Y-47492D02*
X83629Y-47548D01*
X83404Y-47548D01*
X83291Y-47492D01*
X83235Y-47380D01*
X83235Y-46930D01*
X83291Y-46817D01*
X83404Y-46761D01*
X83629Y-46761D01*
X83741Y-46817D01*
X83798Y-46930D01*
X83798Y-47042D01*
X83235Y-47155D01*
X84248Y-47492D02*
X84360Y-47548D01*
X84585Y-47548D01*
X84697Y-47492D01*
X84754Y-47380D01*
X84754Y-47323D01*
X84697Y-47211D01*
X84585Y-47155D01*
X84416Y-47155D01*
X84304Y-47098D01*
X84248Y-46986D01*
X84248Y-46930D01*
X84304Y-46817D01*
X84416Y-46761D01*
X84585Y-46761D01*
X84697Y-46817D01*
X85147Y-47998D02*
X85204Y-47942D01*
X85316Y-47773D01*
X85372Y-47661D01*
X85429Y-47492D01*
X85485Y-47211D01*
X85485Y-46986D01*
X85429Y-46705D01*
X85372Y-46536D01*
X85316Y-46423D01*
X85204Y-46255D01*
X85147Y-46198D01*
X57954Y-48334D02*
X58544Y-48925D01*
X58544Y-48334D02*
X57954Y-48925D01*
G54D12*
X58544Y-48629D02*
G75*
G03X58544Y-48629I-295J0D01*
G74*
G01*
G54D13*
X60232Y-49107D02*
X59557Y-49107D01*
X59894Y-49107D02*
X59894Y-47926D01*
X59782Y-48095D01*
X59669Y-48207D01*
X59557Y-48264D01*
X60738Y-48995D02*
X60794Y-49051D01*
X60738Y-49107D01*
X60682Y-49051D01*
X60738Y-48995D01*
X60738Y-49107D01*
X61863Y-47926D02*
X61300Y-47926D01*
X61244Y-48489D01*
X61300Y-48432D01*
X61413Y-48376D01*
X61694Y-48376D01*
X61807Y-48432D01*
X61863Y-48489D01*
X61919Y-48601D01*
X61919Y-48882D01*
X61863Y-48995D01*
X61807Y-49051D01*
X61694Y-49107D01*
X61413Y-49107D01*
X61300Y-49051D01*
X61244Y-48995D01*
X62650Y-47926D02*
X62763Y-47926D01*
X62875Y-47983D01*
X62931Y-48039D01*
X62988Y-48151D01*
X63044Y-48376D01*
X63044Y-48657D01*
X62988Y-48882D01*
X62931Y-48995D01*
X62875Y-49051D01*
X62763Y-49107D01*
X62650Y-49107D01*
X62538Y-49051D01*
X62482Y-48995D01*
X62425Y-48882D01*
X62369Y-48657D01*
X62369Y-48376D01*
X62425Y-48151D01*
X62482Y-48039D01*
X62538Y-47983D01*
X62650Y-47926D01*
X63550Y-49107D02*
X63550Y-48320D01*
X63550Y-48432D02*
X63606Y-48376D01*
X63719Y-48320D01*
X63888Y-48320D01*
X64000Y-48376D01*
X64056Y-48489D01*
X64056Y-49107D01*
X64056Y-48489D02*
X64113Y-48376D01*
X64225Y-48320D01*
X64394Y-48320D01*
X64506Y-48376D01*
X64562Y-48489D01*
X64562Y-49107D01*
X65125Y-49107D02*
X65125Y-48320D01*
X65125Y-48432D02*
X65181Y-48376D01*
X65294Y-48320D01*
X65462Y-48320D01*
X65575Y-48376D01*
X65631Y-48489D01*
X65631Y-49107D01*
X65631Y-48489D02*
X65687Y-48376D01*
X65800Y-48320D01*
X65969Y-48320D01*
X66081Y-48376D01*
X66137Y-48489D01*
X66137Y-49107D01*
X68443Y-47870D02*
X67431Y-49389D01*
X69962Y-47926D02*
X70074Y-47926D01*
X70187Y-47983D01*
X70243Y-48039D01*
X70299Y-48151D01*
X70356Y-48376D01*
X70356Y-48657D01*
X70299Y-48882D01*
X70243Y-48995D01*
X70187Y-49051D01*
X70074Y-49107D01*
X69962Y-49107D01*
X69849Y-49051D01*
X69793Y-48995D01*
X69737Y-48882D01*
X69681Y-48657D01*
X69681Y-48376D01*
X69737Y-48151D01*
X69793Y-48039D01*
X69849Y-47983D01*
X69962Y-47926D01*
X70862Y-48995D02*
X70918Y-49051D01*
X70862Y-49107D01*
X70805Y-49051D01*
X70862Y-48995D01*
X70862Y-49107D01*
X71649Y-47926D02*
X71762Y-47926D01*
X71874Y-47983D01*
X71930Y-48039D01*
X71987Y-48151D01*
X72043Y-48376D01*
X72043Y-48657D01*
X71987Y-48882D01*
X71930Y-48995D01*
X71874Y-49051D01*
X71762Y-49107D01*
X71649Y-49107D01*
X71537Y-49051D01*
X71480Y-48995D01*
X71424Y-48882D01*
X71368Y-48657D01*
X71368Y-48376D01*
X71424Y-48151D01*
X71480Y-48039D01*
X71537Y-47983D01*
X71649Y-47926D01*
X73111Y-47926D02*
X72549Y-47926D01*
X72493Y-48489D01*
X72549Y-48432D01*
X72661Y-48376D01*
X72943Y-48376D01*
X73055Y-48432D01*
X73111Y-48489D01*
X73168Y-48601D01*
X73168Y-48882D01*
X73111Y-48995D01*
X73055Y-49051D01*
X72943Y-49107D01*
X72661Y-49107D01*
X72549Y-49051D01*
X72493Y-48995D01*
X73730Y-49107D02*
X73955Y-49107D01*
X74068Y-49051D01*
X74124Y-48995D01*
X74236Y-48826D01*
X74293Y-48601D01*
X74293Y-48151D01*
X74236Y-48039D01*
X74180Y-47983D01*
X74068Y-47926D01*
X73843Y-47926D01*
X73730Y-47983D01*
X73674Y-48039D01*
X73618Y-48151D01*
X73618Y-48432D01*
X73674Y-48545D01*
X73730Y-48601D01*
X73843Y-48657D01*
X74068Y-48657D01*
X74180Y-48601D01*
X74236Y-48545D01*
X74293Y-48432D01*
X74742Y-47926D02*
X74742Y-48151D01*
X75192Y-47926D02*
X75192Y-48151D01*
X76936Y-49557D02*
X76880Y-49501D01*
X76767Y-49332D01*
X76711Y-49220D01*
X76655Y-49051D01*
X76598Y-48770D01*
X76598Y-48545D01*
X76655Y-48264D01*
X76711Y-48095D01*
X76767Y-47983D01*
X76880Y-47814D01*
X76936Y-47758D01*
X77948Y-47926D02*
X77386Y-47926D01*
X77330Y-48489D01*
X77386Y-48432D01*
X77498Y-48376D01*
X77780Y-48376D01*
X77892Y-48432D01*
X77948Y-48489D01*
X78005Y-48601D01*
X78005Y-48882D01*
X77948Y-48995D01*
X77892Y-49051D01*
X77780Y-49107D01*
X77498Y-49107D01*
X77386Y-49051D01*
X77330Y-48995D01*
X79411Y-49107D02*
X79411Y-47926D01*
X79917Y-49107D02*
X79917Y-48489D01*
X79861Y-48376D01*
X79748Y-48320D01*
X79579Y-48320D01*
X79467Y-48376D01*
X79411Y-48432D01*
X80648Y-49107D02*
X80536Y-49051D01*
X80479Y-48995D01*
X80423Y-48882D01*
X80423Y-48545D01*
X80479Y-48432D01*
X80536Y-48376D01*
X80648Y-48320D01*
X80817Y-48320D01*
X80929Y-48376D01*
X80985Y-48432D01*
X81042Y-48545D01*
X81042Y-48882D01*
X80985Y-48995D01*
X80929Y-49051D01*
X80817Y-49107D01*
X80648Y-49107D01*
X81717Y-49107D02*
X81604Y-49051D01*
X81548Y-48939D01*
X81548Y-47926D01*
X82616Y-49051D02*
X82504Y-49107D01*
X82279Y-49107D01*
X82167Y-49051D01*
X82110Y-48939D01*
X82110Y-48489D01*
X82167Y-48376D01*
X82279Y-48320D01*
X82504Y-48320D01*
X82616Y-48376D01*
X82673Y-48489D01*
X82673Y-48601D01*
X82110Y-48714D01*
X83123Y-49051D02*
X83235Y-49107D01*
X83460Y-49107D01*
X83573Y-49051D01*
X83629Y-48939D01*
X83629Y-48882D01*
X83573Y-48770D01*
X83460Y-48714D01*
X83291Y-48714D01*
X83179Y-48657D01*
X83123Y-48545D01*
X83123Y-48489D01*
X83179Y-48376D01*
X83291Y-48320D01*
X83460Y-48320D01*
X83573Y-48376D01*
X84023Y-49557D02*
X84079Y-49501D01*
X84191Y-49332D01*
X84248Y-49220D01*
X84304Y-49051D01*
X84360Y-48770D01*
X84360Y-48545D01*
X84304Y-48264D01*
X84248Y-48095D01*
X84191Y-47983D01*
X84079Y-47814D01*
X84023Y-47758D01*
M02*
