G75*
%MOIN*%
%OFA0B0*%
%FSLAX25Y25*%
%IPPOS*%
%LPD*%
%AMOC8*
5,1,8,0,0,1.08239X$1,22.5*
%
%ADD10C,0.00100*%
%ADD11C,0.00600*%
%ADD12C,0.00300*%
%ADD13C,0.00800*%
%ADD14C,0.00500*%
%ADD15C,0.01600*%
%ADD16C,0.00400*%
%ADD17C,0.00000*%
%ADD18C,0.00200*%
D10*
X0032618Y0018155D02*
X0182382Y0018155D01*
X0182928Y0018222D01*
X0183472Y0018302D01*
X0184014Y0018395D01*
X0184553Y0018502D01*
X0185090Y0018621D01*
X0185624Y0018753D01*
X0186154Y0018898D01*
X0186681Y0019056D01*
X0187204Y0019227D01*
X0187722Y0019410D01*
X0188236Y0019606D01*
X0188745Y0019814D01*
X0189249Y0020034D01*
X0189747Y0020267D01*
X0190240Y0020511D01*
X0190727Y0020767D01*
X0191207Y0021035D01*
X0191681Y0021315D01*
X0192147Y0021605D01*
X0192607Y0021907D01*
X0193059Y0022220D01*
X0193503Y0022544D01*
X0193940Y0022879D01*
X0194368Y0023224D01*
X0194788Y0023579D01*
X0195199Y0023944D01*
X0195601Y0024319D01*
X0195994Y0024704D01*
X0196378Y0025098D01*
X0196752Y0025501D01*
X0197116Y0025913D01*
X0197470Y0026334D01*
X0197814Y0026763D01*
X0198147Y0027200D01*
X0198470Y0027646D01*
X0198782Y0028099D01*
X0199082Y0028559D01*
X0199372Y0029027D01*
X0199650Y0029501D01*
X0199917Y0029982D01*
X0200172Y0030469D01*
X0200415Y0030962D01*
X0200646Y0031461D01*
X0200865Y0031966D01*
X0201071Y0032475D01*
X0201266Y0032990D01*
X0201447Y0033509D01*
X0201617Y0034032D01*
X0201773Y0034559D01*
X0201917Y0035090D01*
X0202048Y0035624D01*
X0202166Y0036161D01*
X0202271Y0036701D01*
X0202363Y0037243D01*
X0202441Y0037787D01*
X0202507Y0038333D01*
X0202559Y0038881D01*
X0202598Y0039429D01*
X0202624Y0039979D01*
X0202637Y0040528D01*
X0202636Y0041078D01*
X0202622Y0041628D01*
X0202595Y0042177D01*
X0202554Y0042726D01*
X0202500Y0043273D01*
X0202500Y0168155D01*
X0007500Y0168155D01*
X0007500Y0048273D01*
X0007448Y0047605D01*
X0007411Y0046936D01*
X0007391Y0046266D01*
X0007388Y0045596D01*
X0007400Y0044926D01*
X0007429Y0044256D01*
X0007473Y0043588D01*
X0007534Y0042920D01*
X0007611Y0042255D01*
X0007704Y0041591D01*
X0007813Y0040930D01*
X0007938Y0040271D01*
X0008079Y0039616D01*
X0008236Y0038965D01*
X0008408Y0038317D01*
X0008596Y0037674D01*
X0008800Y0037035D01*
X0009018Y0036402D01*
X0009252Y0035774D01*
X0009502Y0035152D01*
X0009766Y0034536D01*
X0010045Y0033927D01*
X0010338Y0033324D01*
X0010646Y0032729D01*
X0010969Y0032142D01*
X0011305Y0031562D01*
X0011655Y0030991D01*
X0012019Y0030428D01*
X0012397Y0029874D01*
X0012788Y0029330D01*
X0013192Y0028795D01*
X0013608Y0028270D01*
X0014037Y0027756D01*
X0014479Y0027252D01*
X0014933Y0026758D01*
X0015398Y0026276D01*
X0015875Y0025805D01*
X0016363Y0025346D01*
X0016862Y0024899D01*
X0017372Y0024464D01*
X0017892Y0024041D01*
X0018422Y0023631D01*
X0018962Y0023234D01*
X0019511Y0022851D01*
X0020070Y0022480D01*
X0020637Y0022123D01*
X0021213Y0021780D01*
X0021796Y0021451D01*
X0022388Y0021137D01*
X0022987Y0020836D01*
X0023593Y0020550D01*
X0024206Y0020279D01*
X0024825Y0020023D01*
X0025450Y0019782D01*
X0026081Y0019556D01*
X0026717Y0019345D01*
X0027358Y0019150D01*
X0028004Y0018970D01*
X0028654Y0018806D01*
X0029307Y0018658D01*
X0029964Y0018525D01*
X0030624Y0018409D01*
X0031287Y0018308D01*
X0031951Y0018223D01*
X0032618Y0018155D01*
X0069300Y0058955D02*
X0069300Y0060456D01*
X0070051Y0060456D01*
X0070301Y0060206D01*
X0070301Y0059705D01*
X0070051Y0059455D01*
X0069300Y0059455D01*
X0069800Y0059455D02*
X0070301Y0058955D01*
X0070773Y0058955D02*
X0071774Y0058955D01*
X0072247Y0058955D02*
X0073247Y0058955D01*
X0072747Y0058955D02*
X0072747Y0060456D01*
X0072247Y0059955D01*
X0071274Y0060456D02*
X0071274Y0058955D01*
X0070773Y0059955D02*
X0071274Y0060456D01*
X0063050Y0060008D02*
X0061549Y0060008D01*
X0061549Y0060759D01*
X0061799Y0061009D01*
X0062299Y0061009D01*
X0062550Y0060759D01*
X0062550Y0060008D01*
X0062550Y0060508D02*
X0063050Y0061009D01*
X0062800Y0061481D02*
X0063050Y0061732D01*
X0063050Y0062232D01*
X0062800Y0062482D01*
X0061799Y0062482D01*
X0061549Y0062232D01*
X0061549Y0061732D01*
X0061799Y0061481D01*
X0062049Y0061481D01*
X0062299Y0061732D01*
X0062299Y0062482D01*
X0055550Y0061481D02*
X0055300Y0061481D01*
X0054299Y0062482D01*
X0054049Y0062482D01*
X0054049Y0061481D01*
X0054299Y0061009D02*
X0054799Y0061009D01*
X0055050Y0060759D01*
X0055050Y0060008D01*
X0055550Y0060008D02*
X0054049Y0060008D01*
X0054049Y0060759D01*
X0054299Y0061009D01*
X0055050Y0060508D02*
X0055550Y0061009D01*
X0048050Y0061009D02*
X0048050Y0060008D01*
X0046549Y0060008D01*
X0047049Y0061481D02*
X0046549Y0061982D01*
X0048050Y0061982D01*
X0048050Y0062482D02*
X0048050Y0061481D01*
X0044247Y0067955D02*
X0043247Y0067955D01*
X0044247Y0068955D01*
X0044247Y0069206D01*
X0043997Y0069456D01*
X0043497Y0069456D01*
X0043247Y0069206D01*
X0042274Y0069456D02*
X0042274Y0067955D01*
X0042774Y0067955D02*
X0041773Y0067955D01*
X0041301Y0068205D02*
X0041051Y0067955D01*
X0040550Y0067955D01*
X0040300Y0068205D01*
X0040300Y0069206D01*
X0040550Y0069456D01*
X0041051Y0069456D01*
X0041301Y0069206D01*
X0041773Y0068955D02*
X0042274Y0069456D01*
X0049617Y0075264D02*
X0050067Y0075264D01*
X0050217Y0075414D01*
X0050217Y0076014D01*
X0050067Y0076164D01*
X0049617Y0076164D01*
X0049617Y0075264D01*
X0050538Y0075414D02*
X0050688Y0075264D01*
X0050988Y0075264D01*
X0051138Y0075414D01*
X0051138Y0076014D01*
X0050988Y0076164D01*
X0050688Y0076164D01*
X0050538Y0076014D01*
X0050538Y0075414D01*
X0051458Y0075414D02*
X0051609Y0075264D01*
X0051909Y0075264D01*
X0052059Y0075414D01*
X0052059Y0076164D01*
X0052379Y0076164D02*
X0052980Y0076164D01*
X0052679Y0076164D02*
X0052679Y0075264D01*
X0051458Y0075414D02*
X0051458Y0076164D01*
X0046774Y0083955D02*
X0047024Y0084205D01*
X0047024Y0085206D01*
X0046774Y0085456D01*
X0046273Y0085456D01*
X0046023Y0085206D01*
X0046023Y0084955D01*
X0046273Y0084705D01*
X0047024Y0084705D01*
X0046774Y0083955D02*
X0046273Y0083955D01*
X0046023Y0084205D01*
X0045551Y0084205D02*
X0045301Y0083955D01*
X0044800Y0083955D01*
X0044550Y0084205D01*
X0044550Y0085206D01*
X0044800Y0085456D01*
X0045301Y0085456D01*
X0045551Y0085206D01*
X0041700Y0093955D02*
X0040199Y0093955D01*
X0040199Y0094705D01*
X0040449Y0094955D01*
X0040949Y0094955D01*
X0041200Y0094705D01*
X0041200Y0093955D01*
X0041200Y0094455D02*
X0041700Y0094955D01*
X0041450Y0095428D02*
X0041700Y0095678D01*
X0041700Y0096178D01*
X0041450Y0096429D01*
X0041200Y0096429D01*
X0040949Y0096178D01*
X0040949Y0095928D01*
X0040949Y0096178D02*
X0040699Y0096429D01*
X0040449Y0096429D01*
X0040199Y0096178D01*
X0040199Y0095678D01*
X0040449Y0095428D01*
X0031800Y0090982D02*
X0031800Y0090482D01*
X0031550Y0090231D01*
X0031550Y0089759D02*
X0031800Y0089509D01*
X0031800Y0089008D01*
X0031550Y0088758D01*
X0030549Y0088758D01*
X0030299Y0089008D01*
X0030299Y0089509D01*
X0030549Y0089759D01*
X0030299Y0090231D02*
X0031049Y0090231D01*
X0030799Y0090732D01*
X0030799Y0090982D01*
X0031049Y0091232D01*
X0031550Y0091232D01*
X0031800Y0090982D01*
X0030299Y0091232D02*
X0030299Y0090231D01*
X0030299Y0101258D02*
X0030299Y0102009D01*
X0030549Y0102259D01*
X0031049Y0102259D01*
X0031300Y0102009D01*
X0031300Y0101258D01*
X0031800Y0101258D02*
X0030299Y0101258D01*
X0031300Y0101758D02*
X0031800Y0102259D01*
X0031800Y0102731D02*
X0031800Y0103732D01*
X0031800Y0103232D02*
X0030299Y0103232D01*
X0030799Y0102731D01*
X0040157Y0111855D02*
X0041158Y0111855D01*
X0041630Y0111855D02*
X0042631Y0111855D01*
X0043103Y0111855D02*
X0043103Y0113356D01*
X0043854Y0113356D01*
X0044104Y0113106D01*
X0044104Y0112105D01*
X0043854Y0111855D01*
X0043103Y0111855D01*
X0042131Y0112605D02*
X0041630Y0112605D01*
X0041630Y0111855D02*
X0041630Y0113356D01*
X0042631Y0113356D01*
X0044577Y0113106D02*
X0044827Y0113356D01*
X0045327Y0113356D01*
X0045578Y0113106D01*
X0045578Y0112855D01*
X0044577Y0111855D01*
X0045578Y0111855D01*
X0040157Y0111855D02*
X0040157Y0113356D01*
X0031800Y0120258D02*
X0031800Y0120759D01*
X0031550Y0121009D01*
X0031049Y0121481D02*
X0031049Y0122482D01*
X0030299Y0122232D02*
X0031800Y0122232D01*
X0031049Y0121481D02*
X0030299Y0122232D01*
X0030549Y0121009D02*
X0030299Y0120759D01*
X0030299Y0120258D01*
X0030549Y0120008D01*
X0031550Y0120008D01*
X0031800Y0120258D01*
X0039380Y0127605D02*
X0039380Y0129106D01*
X0040131Y0129106D01*
X0040381Y0128856D01*
X0040381Y0128355D01*
X0040131Y0128105D01*
X0039380Y0128105D01*
X0039881Y0128105D02*
X0040381Y0127605D01*
X0040853Y0127605D02*
X0041854Y0127605D01*
X0041354Y0127605D02*
X0041354Y0129106D01*
X0040853Y0128605D01*
X0042327Y0128856D02*
X0042577Y0129106D01*
X0043077Y0129106D01*
X0043328Y0128856D01*
X0043328Y0128605D01*
X0043077Y0128355D01*
X0043328Y0128105D01*
X0043328Y0127855D01*
X0043077Y0127605D01*
X0042577Y0127605D01*
X0042327Y0127855D01*
X0042827Y0128355D02*
X0043077Y0128355D01*
X0018078Y0136855D02*
X0017077Y0136855D01*
X0017577Y0136855D02*
X0017577Y0138356D01*
X0017077Y0137855D01*
X0016604Y0138106D02*
X0016354Y0138356D01*
X0015603Y0138356D01*
X0015603Y0136855D01*
X0016354Y0136855D01*
X0016604Y0137105D01*
X0016604Y0138106D01*
X0015131Y0138356D02*
X0014130Y0138356D01*
X0014130Y0136855D01*
X0015131Y0136855D01*
X0014631Y0137605D02*
X0014130Y0137605D01*
X0013658Y0136855D02*
X0012657Y0136855D01*
X0012657Y0138356D01*
X0012881Y0152605D02*
X0012381Y0153105D01*
X0012631Y0153105D02*
X0011880Y0153105D01*
X0011880Y0152605D02*
X0011880Y0154106D01*
X0012631Y0154106D01*
X0012881Y0153856D01*
X0012881Y0153355D01*
X0012631Y0153105D01*
X0013353Y0152605D02*
X0014354Y0152605D01*
X0014827Y0152605D02*
X0015828Y0153605D01*
X0015828Y0153856D01*
X0015577Y0154106D01*
X0015077Y0154106D01*
X0014827Y0153856D01*
X0013854Y0154106D02*
X0013854Y0152605D01*
X0014827Y0152605D02*
X0015828Y0152605D01*
X0013854Y0154106D02*
X0013353Y0153605D01*
X0082103Y0138856D02*
X0082103Y0137855D01*
X0082354Y0137605D01*
X0082854Y0137605D01*
X0083104Y0137855D01*
X0083577Y0137605D02*
X0084578Y0137605D01*
X0084077Y0137605D02*
X0084077Y0139106D01*
X0083577Y0138605D01*
X0083104Y0138856D02*
X0082854Y0139106D01*
X0082354Y0139106D01*
X0082103Y0138856D01*
X0096799Y0121232D02*
X0097049Y0121232D01*
X0097299Y0120982D01*
X0097550Y0121232D01*
X0097800Y0121232D01*
X0098050Y0120982D01*
X0098050Y0120482D01*
X0097800Y0120231D01*
X0097800Y0119759D02*
X0098050Y0119509D01*
X0098050Y0119008D01*
X0097800Y0118758D01*
X0096799Y0118758D01*
X0096549Y0119008D01*
X0096549Y0119509D01*
X0096799Y0119759D01*
X0096799Y0120231D02*
X0096549Y0120482D01*
X0096549Y0120982D01*
X0096799Y0121232D01*
X0097299Y0120982D02*
X0097299Y0120732D01*
X0109199Y0114928D02*
X0109449Y0115179D01*
X0109699Y0115179D01*
X0109949Y0114928D01*
X0109949Y0114428D01*
X0109699Y0114178D01*
X0109449Y0114178D01*
X0109199Y0114428D01*
X0109199Y0114928D01*
X0109949Y0114928D02*
X0110200Y0115179D01*
X0110450Y0115179D01*
X0110700Y0114928D01*
X0110700Y0114428D01*
X0110450Y0114178D01*
X0110200Y0114178D01*
X0109949Y0114428D01*
X0109449Y0113705D02*
X0109199Y0113455D01*
X0109199Y0112955D01*
X0109449Y0112705D01*
X0110450Y0112705D01*
X0110700Y0112955D01*
X0110700Y0113455D01*
X0110450Y0113705D01*
X0109950Y0098179D02*
X0109700Y0098179D01*
X0109449Y0097928D01*
X0109449Y0097178D01*
X0109950Y0097178D01*
X0110200Y0097428D01*
X0110200Y0097928D01*
X0109950Y0098179D01*
X0108949Y0097678D02*
X0109449Y0097178D01*
X0108949Y0096705D02*
X0108699Y0096455D01*
X0108699Y0095955D01*
X0108949Y0095705D01*
X0109950Y0095705D01*
X0110200Y0095955D01*
X0110200Y0096455D01*
X0109950Y0096705D01*
X0108949Y0097678D02*
X0108699Y0098179D01*
X0099300Y0091481D02*
X0099050Y0091481D01*
X0098049Y0092482D01*
X0097799Y0092482D01*
X0097799Y0091481D01*
X0098049Y0091009D02*
X0097799Y0090759D01*
X0097799Y0090258D01*
X0098049Y0090008D01*
X0099050Y0090008D01*
X0099300Y0090258D01*
X0099300Y0090759D01*
X0099050Y0091009D01*
X0119103Y0087106D02*
X0119103Y0085605D01*
X0119103Y0086105D02*
X0119854Y0086105D01*
X0120104Y0086355D01*
X0120104Y0086856D01*
X0119854Y0087106D01*
X0119103Y0087106D01*
X0119604Y0086105D02*
X0120104Y0085605D01*
X0120577Y0085855D02*
X0120827Y0085605D01*
X0121327Y0085605D01*
X0121578Y0085855D01*
X0121578Y0086355D01*
X0121327Y0086605D01*
X0121077Y0086605D01*
X0120577Y0086355D01*
X0120577Y0087106D01*
X0121578Y0087106D01*
X0129699Y0093205D02*
X0129699Y0093955D01*
X0129949Y0094205D01*
X0130449Y0094205D01*
X0130700Y0093955D01*
X0130700Y0093205D01*
X0131200Y0093205D02*
X0129699Y0093205D01*
X0130700Y0093705D02*
X0131200Y0094205D01*
X0131200Y0094678D02*
X0130199Y0095679D01*
X0129949Y0095679D01*
X0129699Y0095428D01*
X0129699Y0094928D01*
X0129949Y0094678D01*
X0131200Y0094678D02*
X0131200Y0095679D01*
X0137549Y0116258D02*
X0137549Y0117009D01*
X0137799Y0117259D01*
X0138299Y0117259D01*
X0138550Y0117009D01*
X0138550Y0116258D01*
X0139050Y0116258D02*
X0137549Y0116258D01*
X0138550Y0116758D02*
X0139050Y0117259D01*
X0138299Y0117731D02*
X0138299Y0118732D01*
X0137549Y0118482D02*
X0138299Y0117731D01*
X0137549Y0118482D02*
X0139050Y0118482D01*
X0135577Y0130105D02*
X0135828Y0130355D01*
X0135828Y0130605D01*
X0135577Y0130855D01*
X0134827Y0130855D01*
X0134827Y0130355D01*
X0135077Y0130105D01*
X0135577Y0130105D01*
X0134827Y0130855D02*
X0135327Y0131356D01*
X0135828Y0131606D01*
X0134354Y0131356D02*
X0134354Y0130855D01*
X0134104Y0130605D01*
X0133353Y0130605D01*
X0133353Y0130105D02*
X0133353Y0131606D01*
X0134104Y0131606D01*
X0134354Y0131356D01*
X0133854Y0130605D02*
X0134354Y0130105D01*
X0121430Y0148494D02*
X0121680Y0148745D01*
X0121680Y0149245D01*
X0121430Y0149495D01*
X0121680Y0149968D02*
X0120679Y0150968D01*
X0120429Y0150968D01*
X0120179Y0150718D01*
X0120179Y0150218D01*
X0120429Y0149968D01*
X0120429Y0149495D02*
X0120179Y0149245D01*
X0120179Y0148745D01*
X0120429Y0148494D01*
X0121430Y0148494D01*
X0121680Y0149968D02*
X0121680Y0150968D01*
X0163130Y0149106D02*
X0163130Y0147605D01*
X0163130Y0148105D02*
X0163881Y0148105D01*
X0164131Y0148355D01*
X0164131Y0148856D01*
X0163881Y0149106D01*
X0163130Y0149106D01*
X0163631Y0148105D02*
X0164131Y0147605D01*
X0164603Y0147605D02*
X0165604Y0147605D01*
X0165104Y0147605D02*
X0165104Y0149106D01*
X0164603Y0148605D01*
X0166077Y0148856D02*
X0166327Y0149106D01*
X0166827Y0149106D01*
X0167078Y0148856D01*
X0166077Y0147855D01*
X0166327Y0147605D01*
X0166827Y0147605D01*
X0167078Y0147855D01*
X0167078Y0148856D01*
X0166077Y0148856D02*
X0166077Y0147855D01*
X0063840Y0079379D02*
X0063840Y0078646D01*
X0063840Y0079013D02*
X0062739Y0079013D01*
X0063106Y0078646D01*
X0107199Y0045428D02*
X0107449Y0045679D01*
X0107699Y0045679D01*
X0107949Y0045428D01*
X0107949Y0044928D01*
X0107699Y0044678D01*
X0107449Y0044678D01*
X0107199Y0044928D01*
X0107199Y0045428D01*
X0107949Y0045428D02*
X0108200Y0045679D01*
X0108450Y0045679D01*
X0108700Y0045428D01*
X0108700Y0044928D01*
X0108450Y0044678D01*
X0108200Y0044678D01*
X0107949Y0044928D01*
X0107949Y0044205D02*
X0108200Y0043955D01*
X0108200Y0043205D01*
X0108700Y0043205D02*
X0107199Y0043205D01*
X0107199Y0043955D01*
X0107449Y0044205D01*
X0107949Y0044205D01*
X0108200Y0043705D02*
X0108700Y0044205D01*
D11*
X0109638Y0044973D02*
X0109638Y0047336D01*
X0114362Y0047336D02*
X0114362Y0044973D01*
X0133606Y0056470D02*
X0133606Y0017820D01*
X0145394Y0017820D01*
X0169394Y0017820D01*
X0169394Y0007001D01*
X0145394Y0007001D01*
X0147394Y0005001D01*
X0167394Y0005001D01*
X0169394Y0007001D01*
X0169394Y0017820D02*
X0181181Y0017820D01*
X0181181Y0037970D01*
X0181181Y0046470D02*
X0181181Y0063977D01*
X0133606Y0063977D01*
X0133606Y0063970D01*
X0118181Y0087542D02*
X0115819Y0087542D01*
X0115819Y0092267D02*
X0118181Y0092267D01*
X0104362Y0094973D02*
X0104362Y0097336D01*
X0099638Y0097336D02*
X0099638Y0094973D01*
X0088299Y0092355D02*
X0088299Y0118556D01*
X0086902Y0119954D01*
X0060701Y0119954D01*
X0060701Y0092355D01*
X0088299Y0092355D01*
X0099638Y0114973D02*
X0099638Y0117336D01*
X0104362Y0117336D02*
X0104362Y0114973D01*
X0083886Y0116955D02*
X0083888Y0117030D01*
X0083894Y0117104D01*
X0083904Y0117178D01*
X0083917Y0117251D01*
X0083935Y0117324D01*
X0083956Y0117395D01*
X0083981Y0117466D01*
X0084010Y0117535D01*
X0084043Y0117602D01*
X0084079Y0117667D01*
X0084118Y0117731D01*
X0084160Y0117792D01*
X0084206Y0117851D01*
X0084255Y0117908D01*
X0084307Y0117961D01*
X0084361Y0118012D01*
X0084418Y0118061D01*
X0084478Y0118105D01*
X0084540Y0118147D01*
X0084604Y0118186D01*
X0084670Y0118221D01*
X0084737Y0118252D01*
X0084807Y0118280D01*
X0084877Y0118304D01*
X0084949Y0118325D01*
X0085022Y0118341D01*
X0085095Y0118354D01*
X0085170Y0118363D01*
X0085244Y0118368D01*
X0085319Y0118369D01*
X0085393Y0118366D01*
X0085468Y0118359D01*
X0085541Y0118348D01*
X0085615Y0118334D01*
X0085687Y0118315D01*
X0085758Y0118293D01*
X0085828Y0118267D01*
X0085897Y0118237D01*
X0085963Y0118204D01*
X0086028Y0118167D01*
X0086091Y0118127D01*
X0086152Y0118083D01*
X0086210Y0118037D01*
X0086266Y0117987D01*
X0086319Y0117935D01*
X0086370Y0117880D01*
X0086417Y0117822D01*
X0086461Y0117762D01*
X0086502Y0117699D01*
X0086540Y0117635D01*
X0086574Y0117569D01*
X0086605Y0117500D01*
X0086632Y0117431D01*
X0086655Y0117360D01*
X0086674Y0117288D01*
X0086690Y0117215D01*
X0086702Y0117141D01*
X0086710Y0117067D01*
X0086714Y0116992D01*
X0086714Y0116918D01*
X0086710Y0116843D01*
X0086702Y0116769D01*
X0086690Y0116695D01*
X0086674Y0116622D01*
X0086655Y0116550D01*
X0086632Y0116479D01*
X0086605Y0116410D01*
X0086574Y0116341D01*
X0086540Y0116275D01*
X0086502Y0116211D01*
X0086461Y0116148D01*
X0086417Y0116088D01*
X0086370Y0116030D01*
X0086319Y0115975D01*
X0086266Y0115923D01*
X0086210Y0115873D01*
X0086152Y0115827D01*
X0086091Y0115783D01*
X0086028Y0115743D01*
X0085963Y0115706D01*
X0085897Y0115673D01*
X0085828Y0115643D01*
X0085758Y0115617D01*
X0085687Y0115595D01*
X0085615Y0115576D01*
X0085541Y0115562D01*
X0085468Y0115551D01*
X0085393Y0115544D01*
X0085319Y0115541D01*
X0085244Y0115542D01*
X0085170Y0115547D01*
X0085095Y0115556D01*
X0085022Y0115569D01*
X0084949Y0115585D01*
X0084877Y0115606D01*
X0084807Y0115630D01*
X0084737Y0115658D01*
X0084670Y0115689D01*
X0084604Y0115724D01*
X0084540Y0115763D01*
X0084478Y0115805D01*
X0084418Y0115849D01*
X0084361Y0115898D01*
X0084307Y0115949D01*
X0084255Y0116002D01*
X0084206Y0116059D01*
X0084160Y0116118D01*
X0084118Y0116179D01*
X0084079Y0116243D01*
X0084043Y0116308D01*
X0084010Y0116375D01*
X0083981Y0116444D01*
X0083956Y0116515D01*
X0083935Y0116586D01*
X0083917Y0116659D01*
X0083904Y0116732D01*
X0083894Y0116806D01*
X0083888Y0116880D01*
X0083886Y0116955D01*
X0085819Y0131292D02*
X0088181Y0131292D01*
X0088181Y0136017D02*
X0085819Y0136017D01*
X0045681Y0126017D02*
X0043319Y0126017D01*
X0043319Y0121292D02*
X0045681Y0121292D01*
X0036862Y0118586D02*
X0036862Y0116223D01*
X0032138Y0116223D02*
X0032138Y0118586D01*
X0026500Y0117655D02*
X0026500Y0094655D01*
X0032138Y0094836D02*
X0032138Y0092473D01*
X0036862Y0092473D02*
X0036862Y0094836D01*
X0042638Y0095723D02*
X0042638Y0098086D01*
X0047362Y0098086D02*
X0047362Y0095723D01*
X0047819Y0091017D02*
X0050181Y0091017D01*
X0050181Y0086292D02*
X0047819Y0086292D01*
X0044362Y0077336D02*
X0044362Y0074973D01*
X0039638Y0074973D02*
X0039638Y0077336D01*
X0047138Y0069836D02*
X0047138Y0067473D01*
X0051862Y0067473D02*
X0051862Y0069836D01*
X0054638Y0069836D02*
X0054638Y0067473D01*
X0059362Y0067473D02*
X0059362Y0069836D01*
X0062138Y0069836D02*
X0062138Y0067473D01*
X0066862Y0067473D02*
X0066862Y0069836D01*
X0073069Y0066017D02*
X0075431Y0066017D01*
X0075431Y0061292D02*
X0073069Y0061292D01*
X0022000Y0061155D02*
X0019500Y0058655D01*
X0022000Y0056155D01*
X0022000Y0051155D01*
X0019500Y0048655D01*
X0022000Y0046155D01*
X0022000Y0041155D01*
X0019500Y0038655D01*
X0014500Y0038655D01*
X0012000Y0041155D01*
X0012000Y0046155D01*
X0014500Y0048655D01*
X0012000Y0051155D01*
X0012000Y0056155D01*
X0014500Y0058655D01*
X0012000Y0061155D01*
X0012000Y0066155D01*
X0014500Y0068655D01*
X0012000Y0071155D01*
X0012000Y0076155D01*
X0014500Y0078655D01*
X0019500Y0078655D01*
X0022000Y0076155D01*
X0022000Y0071155D01*
X0019500Y0068655D01*
X0022000Y0066155D01*
X0022000Y0061155D01*
X0026500Y0094655D02*
X0026498Y0094485D01*
X0026492Y0094314D01*
X0026481Y0094144D01*
X0026467Y0093974D01*
X0026448Y0093805D01*
X0026425Y0093636D01*
X0026399Y0093467D01*
X0026368Y0093300D01*
X0026333Y0093133D01*
X0026293Y0092967D01*
X0026250Y0092802D01*
X0026203Y0092638D01*
X0026152Y0092476D01*
X0026097Y0092314D01*
X0026038Y0092154D01*
X0025975Y0091996D01*
X0025909Y0091839D01*
X0025838Y0091684D01*
X0025764Y0091530D01*
X0025686Y0091379D01*
X0025604Y0091229D01*
X0025519Y0091081D01*
X0025430Y0090936D01*
X0025338Y0090793D01*
X0025242Y0090652D01*
X0025143Y0090513D01*
X0025040Y0090377D01*
X0024935Y0090243D01*
X0024826Y0090112D01*
X0024713Y0089984D01*
X0024598Y0089858D01*
X0024480Y0089735D01*
X0024359Y0089616D01*
X0024234Y0089499D01*
X0024107Y0089385D01*
X0023978Y0089274D01*
X0023845Y0089167D01*
X0023710Y0089063D01*
X0023573Y0088962D01*
X0023433Y0088864D01*
X0023291Y0088770D01*
X0023147Y0088680D01*
X0023000Y0088593D01*
X0022851Y0088509D01*
X0022701Y0088430D01*
X0022548Y0088354D01*
X0022394Y0088281D01*
X0022238Y0088213D01*
X0022080Y0088148D01*
X0021921Y0088087D01*
X0021760Y0088030D01*
X0021598Y0087977D01*
X0021435Y0087928D01*
X0021271Y0087883D01*
X0021105Y0087842D01*
X0020939Y0087804D01*
X0020771Y0087771D01*
X0020603Y0087743D01*
X0020435Y0087718D01*
X0020266Y0087697D01*
X0020096Y0087680D01*
X0019926Y0087668D01*
X0019756Y0087660D01*
X0019585Y0087656D01*
X0019415Y0087656D01*
X0019244Y0087660D01*
X0019074Y0087668D01*
X0018904Y0087680D01*
X0018734Y0087697D01*
X0018565Y0087718D01*
X0018397Y0087743D01*
X0018229Y0087771D01*
X0018061Y0087804D01*
X0017895Y0087842D01*
X0017729Y0087883D01*
X0017565Y0087928D01*
X0017402Y0087977D01*
X0017240Y0088030D01*
X0017079Y0088087D01*
X0016920Y0088148D01*
X0016762Y0088213D01*
X0016606Y0088281D01*
X0016452Y0088354D01*
X0016299Y0088430D01*
X0016149Y0088509D01*
X0016000Y0088593D01*
X0015853Y0088680D01*
X0015709Y0088770D01*
X0015567Y0088864D01*
X0015427Y0088962D01*
X0015290Y0089063D01*
X0015155Y0089167D01*
X0015022Y0089274D01*
X0014893Y0089385D01*
X0014766Y0089499D01*
X0014641Y0089616D01*
X0014520Y0089735D01*
X0014402Y0089858D01*
X0014287Y0089984D01*
X0014174Y0090112D01*
X0014065Y0090243D01*
X0013960Y0090377D01*
X0013857Y0090513D01*
X0013758Y0090652D01*
X0013662Y0090793D01*
X0013570Y0090936D01*
X0013481Y0091081D01*
X0013396Y0091229D01*
X0013314Y0091379D01*
X0013236Y0091530D01*
X0013162Y0091684D01*
X0013091Y0091839D01*
X0013025Y0091996D01*
X0012962Y0092154D01*
X0012903Y0092314D01*
X0012848Y0092476D01*
X0012797Y0092638D01*
X0012750Y0092802D01*
X0012707Y0092967D01*
X0012667Y0093133D01*
X0012632Y0093300D01*
X0012601Y0093467D01*
X0012575Y0093636D01*
X0012552Y0093805D01*
X0012533Y0093974D01*
X0012519Y0094144D01*
X0012508Y0094314D01*
X0012502Y0094485D01*
X0012500Y0094655D01*
X0012500Y0117655D01*
X0012502Y0117825D01*
X0012508Y0117996D01*
X0012519Y0118166D01*
X0012533Y0118336D01*
X0012552Y0118505D01*
X0012575Y0118674D01*
X0012601Y0118843D01*
X0012632Y0119010D01*
X0012667Y0119177D01*
X0012707Y0119343D01*
X0012750Y0119508D01*
X0012797Y0119672D01*
X0012848Y0119834D01*
X0012903Y0119996D01*
X0012962Y0120156D01*
X0013025Y0120314D01*
X0013091Y0120471D01*
X0013162Y0120626D01*
X0013236Y0120780D01*
X0013314Y0120931D01*
X0013396Y0121081D01*
X0013481Y0121229D01*
X0013570Y0121374D01*
X0013662Y0121517D01*
X0013758Y0121658D01*
X0013857Y0121797D01*
X0013960Y0121933D01*
X0014065Y0122067D01*
X0014174Y0122198D01*
X0014287Y0122326D01*
X0014402Y0122452D01*
X0014520Y0122575D01*
X0014641Y0122694D01*
X0014766Y0122811D01*
X0014893Y0122925D01*
X0015022Y0123036D01*
X0015155Y0123143D01*
X0015290Y0123247D01*
X0015427Y0123348D01*
X0015567Y0123446D01*
X0015709Y0123540D01*
X0015853Y0123630D01*
X0016000Y0123717D01*
X0016149Y0123801D01*
X0016299Y0123880D01*
X0016452Y0123956D01*
X0016606Y0124029D01*
X0016762Y0124097D01*
X0016920Y0124162D01*
X0017079Y0124223D01*
X0017240Y0124280D01*
X0017402Y0124333D01*
X0017565Y0124382D01*
X0017729Y0124427D01*
X0017895Y0124468D01*
X0018061Y0124506D01*
X0018229Y0124539D01*
X0018397Y0124567D01*
X0018565Y0124592D01*
X0018734Y0124613D01*
X0018904Y0124630D01*
X0019074Y0124642D01*
X0019244Y0124650D01*
X0019415Y0124654D01*
X0019585Y0124654D01*
X0019756Y0124650D01*
X0019926Y0124642D01*
X0020096Y0124630D01*
X0020266Y0124613D01*
X0020435Y0124592D01*
X0020603Y0124567D01*
X0020771Y0124539D01*
X0020939Y0124506D01*
X0021105Y0124468D01*
X0021271Y0124427D01*
X0021435Y0124382D01*
X0021598Y0124333D01*
X0021760Y0124280D01*
X0021921Y0124223D01*
X0022080Y0124162D01*
X0022238Y0124097D01*
X0022394Y0124029D01*
X0022548Y0123956D01*
X0022701Y0123880D01*
X0022851Y0123801D01*
X0023000Y0123717D01*
X0023147Y0123630D01*
X0023291Y0123540D01*
X0023433Y0123446D01*
X0023573Y0123348D01*
X0023710Y0123247D01*
X0023845Y0123143D01*
X0023978Y0123036D01*
X0024107Y0122925D01*
X0024234Y0122811D01*
X0024359Y0122694D01*
X0024480Y0122575D01*
X0024598Y0122452D01*
X0024713Y0122326D01*
X0024826Y0122198D01*
X0024935Y0122067D01*
X0025040Y0121933D01*
X0025143Y0121797D01*
X0025242Y0121658D01*
X0025338Y0121517D01*
X0025430Y0121374D01*
X0025519Y0121229D01*
X0025604Y0121081D01*
X0025686Y0120931D01*
X0025764Y0120780D01*
X0025838Y0120626D01*
X0025909Y0120471D01*
X0025975Y0120314D01*
X0026038Y0120156D01*
X0026097Y0119996D01*
X0026152Y0119834D01*
X0026203Y0119672D01*
X0026250Y0119508D01*
X0026293Y0119343D01*
X0026333Y0119177D01*
X0026368Y0119010D01*
X0026399Y0118843D01*
X0026425Y0118674D01*
X0026448Y0118505D01*
X0026467Y0118336D01*
X0026481Y0118166D01*
X0026492Y0117996D01*
X0026498Y0117825D01*
X0026500Y0117655D01*
X0019500Y0111155D02*
X0019500Y0108655D01*
X0016000Y0108655D01*
X0016000Y0107155D02*
X0023000Y0107155D01*
X0023000Y0105155D01*
X0016000Y0105155D01*
X0016000Y0107155D01*
X0016000Y0103655D02*
X0019500Y0103655D01*
X0019500Y0101155D01*
X0019500Y0103655D02*
X0023000Y0103655D01*
X0023000Y0108655D02*
X0019500Y0108655D01*
X0032138Y0107336D02*
X0032138Y0104973D01*
X0036862Y0104973D02*
X0036862Y0107336D01*
X0018181Y0146292D02*
X0015819Y0146292D01*
X0015819Y0151017D02*
X0018181Y0151017D01*
X0132069Y0137267D02*
X0134431Y0137267D01*
X0134431Y0132542D02*
X0132069Y0132542D01*
X0131888Y0117336D02*
X0131888Y0114973D01*
X0136612Y0114973D02*
X0136612Y0117336D01*
X0136862Y0097336D02*
X0136862Y0094973D01*
X0132138Y0094973D02*
X0132138Y0097336D01*
X0179500Y0133655D02*
X0179500Y0138655D01*
X0182000Y0141155D01*
X0179500Y0143655D01*
X0179500Y0148655D01*
X0182000Y0151155D01*
X0179500Y0153655D01*
X0179500Y0158655D01*
X0182000Y0161155D01*
X0187000Y0161155D01*
X0189500Y0158655D01*
X0189500Y0153655D01*
X0187000Y0151155D01*
X0189500Y0148655D01*
X0189500Y0143655D01*
X0187000Y0141155D01*
X0189500Y0138655D01*
X0189500Y0133655D01*
X0187000Y0131155D01*
X0182000Y0131155D01*
X0179500Y0133655D01*
X0165681Y0150042D02*
X0163319Y0150042D01*
X0163319Y0154767D02*
X0165681Y0154767D01*
X0145394Y0017820D02*
X0145394Y0007001D01*
D12*
X0097296Y0058415D02*
X0094827Y0058415D01*
X0094210Y0059032D01*
X0094210Y0060266D01*
X0094827Y0060884D01*
X0095444Y0062098D02*
X0094210Y0063332D01*
X0097913Y0063332D01*
X0097913Y0062098D02*
X0097913Y0064567D01*
X0097296Y0065781D02*
X0097913Y0066398D01*
X0097913Y0067633D01*
X0097296Y0068250D01*
X0094827Y0068250D01*
X0097296Y0065781D01*
X0094827Y0065781D01*
X0094210Y0066398D01*
X0094210Y0067633D01*
X0094827Y0068250D01*
X0097296Y0060884D02*
X0097913Y0060266D01*
X0097913Y0059032D01*
X0097296Y0058415D01*
X0059531Y0119705D02*
X0057597Y0119705D01*
X0058564Y0119705D02*
X0058564Y0122607D01*
X0057597Y0121640D01*
X0056585Y0122607D02*
X0056585Y0120188D01*
X0056101Y0119705D01*
X0055134Y0119705D01*
X0054650Y0120188D01*
X0054650Y0122607D01*
X0145490Y0135485D02*
X0146108Y0134868D01*
X0147342Y0134868D01*
X0147959Y0135485D01*
X0149173Y0134868D02*
X0151642Y0134868D01*
X0152857Y0134868D02*
X0155325Y0134868D01*
X0154091Y0134868D02*
X0154091Y0138571D01*
X0152857Y0137336D01*
X0150408Y0138571D02*
X0150408Y0134868D01*
X0149173Y0137336D02*
X0150408Y0138571D01*
X0147959Y0137954D02*
X0147342Y0138571D01*
X0146108Y0138571D01*
X0145490Y0137954D01*
X0145490Y0135485D01*
D13*
X0125799Y0117523D02*
X0113201Y0117523D01*
X0113201Y0107286D02*
X0125799Y0107286D01*
X0125799Y0105023D02*
X0113201Y0105023D01*
X0113201Y0094786D02*
X0125799Y0094786D01*
X0114815Y0130525D02*
X0110878Y0130525D01*
X0114815Y0130525D02*
X0119146Y0134855D01*
X0119146Y0151391D01*
X0110878Y0151391D01*
X0106547Y0151391D02*
X0098280Y0151391D01*
X0098280Y0134855D01*
X0102610Y0130525D01*
X0106744Y0130525D01*
X0106744Y0131312D02*
X0106510Y0131366D01*
X0106276Y0131424D01*
X0106045Y0131489D01*
X0105815Y0131559D01*
X0105587Y0131635D01*
X0105360Y0131716D01*
X0105136Y0131802D01*
X0104914Y0131895D01*
X0104694Y0131992D01*
X0104477Y0132095D01*
X0104262Y0132203D01*
X0104050Y0132316D01*
X0103840Y0132435D01*
X0103634Y0132558D01*
X0103431Y0132686D01*
X0103231Y0132820D01*
X0103034Y0132958D01*
X0102840Y0133101D01*
X0102650Y0133248D01*
X0102464Y0133400D01*
X0102282Y0133557D01*
X0102103Y0133718D01*
X0101929Y0133883D01*
X0101758Y0134053D01*
X0101592Y0134226D01*
X0101429Y0134404D01*
X0101272Y0134585D01*
X0101118Y0134771D01*
X0100970Y0134960D01*
X0100826Y0135152D01*
X0100686Y0135348D01*
X0100552Y0135547D01*
X0100422Y0135750D01*
X0100297Y0135955D01*
X0100177Y0136164D01*
X0100063Y0136375D01*
X0099953Y0136589D01*
X0099849Y0136806D01*
X0099750Y0137025D01*
X0099657Y0137247D01*
X0099569Y0137471D01*
X0099486Y0137696D01*
X0099409Y0137924D01*
X0099338Y0138154D01*
X0099272Y0138385D01*
X0099211Y0138618D01*
X0099157Y0138852D01*
X0099108Y0139087D01*
X0099065Y0139324D01*
X0099027Y0139561D01*
X0098996Y0139800D01*
X0098970Y0140039D01*
X0098950Y0140279D01*
X0098936Y0140519D01*
X0098927Y0140759D01*
X0098925Y0140999D01*
X0098928Y0141240D01*
X0098938Y0141480D01*
X0098953Y0141720D01*
X0098974Y0141960D01*
X0099000Y0142199D01*
X0099033Y0142437D01*
X0099071Y0142674D01*
X0099115Y0142911D01*
X0099165Y0143146D01*
X0099221Y0143380D01*
X0099282Y0143612D01*
X0099349Y0143843D01*
X0099421Y0144073D01*
X0099499Y0144300D01*
X0099583Y0144526D01*
X0099672Y0144749D01*
X0099766Y0144970D01*
X0099866Y0145189D01*
X0099971Y0145405D01*
X0100081Y0145619D01*
X0100196Y0145830D01*
X0100317Y0146038D01*
X0100442Y0146243D01*
X0100573Y0146445D01*
X0100708Y0146644D01*
X0100848Y0146839D01*
X0100993Y0147031D01*
X0101143Y0147219D01*
X0101297Y0147404D01*
X0101455Y0147585D01*
X0101618Y0147762D01*
X0101785Y0147935D01*
X0101956Y0148104D01*
X0102132Y0148268D01*
X0102311Y0148429D01*
X0102494Y0148584D01*
X0102681Y0148736D01*
X0102871Y0148883D01*
X0103065Y0149025D01*
X0103263Y0149162D01*
X0103463Y0149295D01*
X0103667Y0149422D01*
X0103874Y0149545D01*
X0104084Y0149662D01*
X0104296Y0149775D01*
X0104511Y0149882D01*
X0104729Y0149984D01*
X0104949Y0150081D01*
X0105172Y0150172D01*
X0105397Y0150258D01*
X0105623Y0150338D01*
X0105852Y0150413D01*
X0106082Y0150482D01*
X0106314Y0150545D01*
X0106547Y0150603D01*
X0110878Y0150603D02*
X0111110Y0150550D01*
X0111341Y0150491D01*
X0111570Y0150427D01*
X0111797Y0150356D01*
X0112023Y0150281D01*
X0112247Y0150200D01*
X0112469Y0150113D01*
X0112688Y0150021D01*
X0112905Y0149924D01*
X0113120Y0149821D01*
X0113332Y0149713D01*
X0113542Y0149600D01*
X0113749Y0149482D01*
X0113952Y0149359D01*
X0114153Y0149231D01*
X0114351Y0149098D01*
X0114545Y0148961D01*
X0114736Y0148818D01*
X0114923Y0148671D01*
X0115107Y0148520D01*
X0115286Y0148364D01*
X0115462Y0148204D01*
X0115634Y0148039D01*
X0115802Y0147870D01*
X0115966Y0147698D01*
X0116126Y0147521D01*
X0116281Y0147340D01*
X0116432Y0147156D01*
X0116578Y0146968D01*
X0116719Y0146777D01*
X0116856Y0146582D01*
X0116988Y0146384D01*
X0117115Y0146183D01*
X0117238Y0145978D01*
X0117355Y0145771D01*
X0117467Y0145561D01*
X0117574Y0145348D01*
X0117676Y0145133D01*
X0117772Y0144916D01*
X0117863Y0144696D01*
X0117949Y0144474D01*
X0118029Y0144249D01*
X0118104Y0144023D01*
X0118173Y0143796D01*
X0118237Y0143566D01*
X0118295Y0143335D01*
X0118347Y0143103D01*
X0118394Y0142870D01*
X0118435Y0142635D01*
X0118470Y0142400D01*
X0118499Y0142164D01*
X0118523Y0141927D01*
X0118541Y0141689D01*
X0118553Y0141452D01*
X0118559Y0141214D01*
X0118559Y0140976D01*
X0118554Y0140738D01*
X0118543Y0140500D01*
X0118526Y0140262D01*
X0118503Y0140025D01*
X0118475Y0139789D01*
X0118440Y0139553D01*
X0118400Y0139319D01*
X0118355Y0139085D01*
X0118303Y0138853D01*
X0118246Y0138622D01*
X0118183Y0138392D01*
X0118115Y0138164D01*
X0118041Y0137938D01*
X0117962Y0137713D01*
X0117877Y0137491D01*
X0117787Y0137270D01*
X0117691Y0137052D01*
X0117590Y0136837D01*
X0117484Y0136624D01*
X0117373Y0136413D01*
X0117256Y0136206D01*
X0117135Y0136001D01*
X0117008Y0135799D01*
X0116877Y0135601D01*
X0116741Y0135405D01*
X0116600Y0135213D01*
X0116455Y0135025D01*
X0116305Y0134840D01*
X0116150Y0134659D01*
X0115991Y0134482D01*
X0115828Y0134308D01*
X0115661Y0134139D01*
X0115489Y0133974D01*
X0115314Y0133813D01*
X0115135Y0133656D01*
X0114952Y0133504D01*
X0114765Y0133356D01*
X0114575Y0133213D01*
X0114381Y0133075D01*
X0114184Y0132941D01*
X0113984Y0132813D01*
X0113781Y0132689D01*
X0113574Y0132570D01*
X0113365Y0132456D01*
X0113153Y0132347D01*
X0112939Y0132244D01*
X0112722Y0132146D01*
X0112503Y0132053D01*
X0112281Y0131966D01*
X0112058Y0131884D01*
X0111833Y0131807D01*
X0111605Y0131736D01*
X0111376Y0131671D01*
X0111146Y0131611D01*
X0110914Y0131557D01*
X0110681Y0131508D01*
X0072000Y0156155D02*
X0072000Y0161155D01*
X0069500Y0163655D01*
X0064500Y0163655D01*
X0062000Y0161155D01*
X0059500Y0163655D01*
X0054500Y0163655D01*
X0052000Y0161155D01*
X0049500Y0163655D01*
X0044500Y0163655D01*
X0042000Y0161155D01*
X0039500Y0163655D01*
X0034500Y0163655D01*
X0032000Y0161155D01*
X0029500Y0163655D01*
X0024500Y0163655D01*
X0022000Y0161155D01*
X0022000Y0156155D01*
X0024500Y0153655D01*
X0029500Y0153655D01*
X0032000Y0156155D01*
X0034500Y0153655D01*
X0039500Y0153655D01*
X0042000Y0156155D01*
X0044500Y0153655D01*
X0049500Y0153655D01*
X0052000Y0156155D01*
X0054500Y0153655D01*
X0059500Y0153655D01*
X0062000Y0156155D01*
X0064500Y0153655D01*
X0069500Y0153655D01*
X0072000Y0156155D01*
X0044331Y0117966D02*
X0044331Y0116155D01*
X0045551Y0117075D01*
X0044331Y0116155D02*
X0044331Y0114344D01*
X0045551Y0115295D02*
X0044391Y0116055D01*
X0018051Y0140295D02*
X0016891Y0141055D01*
X0016831Y0141155D02*
X0018051Y0142075D01*
X0016831Y0142966D02*
X0016831Y0141155D01*
X0016831Y0139344D01*
X0055426Y0084501D02*
X0055462Y0084428D01*
X0055503Y0084357D01*
X0055546Y0084287D01*
X0055593Y0084220D01*
X0055643Y0084155D01*
X0055696Y0084093D01*
X0055751Y0084033D01*
X0055810Y0083976D01*
X0055871Y0083921D01*
X0055935Y0083870D01*
X0056001Y0083821D01*
X0056069Y0083776D01*
X0056139Y0083734D01*
X0056211Y0083695D01*
X0056285Y0083659D01*
X0056360Y0083628D01*
X0056437Y0083599D01*
X0056515Y0083575D01*
X0056594Y0083554D01*
X0056674Y0083537D01*
X0056755Y0083523D01*
X0056836Y0083514D01*
X0056918Y0083508D01*
X0057000Y0083506D01*
X0057082Y0083508D01*
X0057164Y0083514D01*
X0057245Y0083523D01*
X0057326Y0083537D01*
X0057406Y0083554D01*
X0057485Y0083575D01*
X0057563Y0083599D01*
X0057640Y0083628D01*
X0057715Y0083659D01*
X0057789Y0083695D01*
X0057861Y0083734D01*
X0057931Y0083776D01*
X0057999Y0083821D01*
X0058065Y0083870D01*
X0058129Y0083921D01*
X0058190Y0083976D01*
X0058249Y0084033D01*
X0058304Y0084093D01*
X0058357Y0084155D01*
X0058407Y0084220D01*
X0058454Y0084287D01*
X0058497Y0084357D01*
X0058538Y0084428D01*
X0058574Y0084501D01*
X0058575Y0084501D02*
X0064480Y0084501D01*
X0064480Y0077808D01*
X0058575Y0077808D01*
X0058574Y0077808D02*
X0058538Y0077881D01*
X0058497Y0077952D01*
X0058454Y0078022D01*
X0058407Y0078089D01*
X0058357Y0078154D01*
X0058304Y0078216D01*
X0058249Y0078276D01*
X0058190Y0078333D01*
X0058129Y0078388D01*
X0058065Y0078439D01*
X0057999Y0078488D01*
X0057931Y0078533D01*
X0057861Y0078575D01*
X0057789Y0078614D01*
X0057715Y0078650D01*
X0057640Y0078681D01*
X0057563Y0078710D01*
X0057485Y0078734D01*
X0057406Y0078755D01*
X0057326Y0078772D01*
X0057245Y0078786D01*
X0057164Y0078795D01*
X0057082Y0078801D01*
X0057000Y0078803D01*
X0056918Y0078801D01*
X0056836Y0078795D01*
X0056755Y0078786D01*
X0056674Y0078772D01*
X0056594Y0078755D01*
X0056515Y0078734D01*
X0056437Y0078710D01*
X0056360Y0078681D01*
X0056285Y0078650D01*
X0056211Y0078614D01*
X0056139Y0078575D01*
X0056069Y0078533D01*
X0056001Y0078488D01*
X0055935Y0078439D01*
X0055871Y0078388D01*
X0055810Y0078333D01*
X0055751Y0078276D01*
X0055696Y0078216D01*
X0055643Y0078154D01*
X0055593Y0078089D01*
X0055546Y0078022D01*
X0055503Y0077952D01*
X0055462Y0077881D01*
X0055426Y0077808D01*
X0055425Y0077808D02*
X0049520Y0077808D01*
X0049520Y0084501D01*
X0055425Y0084501D01*
D14*
X0019250Y0081803D02*
X0019250Y0078801D01*
X0019250Y0080302D02*
X0014746Y0080302D01*
X0016247Y0078801D01*
X0016998Y0036303D02*
X0016998Y0033301D01*
X0014746Y0035553D01*
X0019250Y0035553D01*
X0042236Y0036214D02*
X0042236Y0028143D01*
X0042236Y0036214D02*
X0043220Y0036214D01*
X0042236Y0018300D02*
X0042236Y0014836D01*
X0071764Y0014836D01*
X0071764Y0018300D01*
X0071764Y0028143D02*
X0071764Y0036214D01*
X0070780Y0036214D01*
X0127640Y0036678D02*
X0128391Y0035927D01*
X0131393Y0035927D01*
X0132144Y0036678D01*
X0132144Y0038179D01*
X0131393Y0038930D01*
X0130642Y0040531D02*
X0127640Y0043534D01*
X0129892Y0045135D02*
X0129892Y0048138D01*
X0128391Y0049739D02*
X0131393Y0049739D01*
X0132144Y0050490D01*
X0132144Y0051991D01*
X0131393Y0052742D01*
X0128391Y0052742D01*
X0127640Y0051991D01*
X0127640Y0050490D01*
X0128391Y0049739D01*
X0127640Y0054343D02*
X0131393Y0054343D01*
X0132144Y0055094D01*
X0132144Y0056595D01*
X0131393Y0057346D01*
X0127640Y0057346D01*
X0127640Y0058947D02*
X0127640Y0061950D01*
X0127640Y0060448D02*
X0132144Y0060448D01*
X0146911Y0060138D02*
X0147661Y0060889D01*
X0149163Y0060889D01*
X0149913Y0060138D01*
X0149913Y0059387D01*
X0149163Y0058637D01*
X0149913Y0057886D01*
X0149913Y0057136D01*
X0149163Y0056385D01*
X0147661Y0056385D01*
X0146911Y0057136D01*
X0148412Y0058637D02*
X0149163Y0058637D01*
X0152265Y0057136D02*
X0152265Y0056385D01*
X0153016Y0056385D01*
X0153016Y0057136D01*
X0152265Y0057136D01*
X0153016Y0056385D02*
X0151515Y0054884D01*
X0154584Y0057136D02*
X0155334Y0056385D01*
X0156836Y0056385D01*
X0157586Y0057136D01*
X0157586Y0058637D01*
X0156836Y0059387D01*
X0156085Y0059387D01*
X0154584Y0058637D01*
X0154584Y0060889D01*
X0157586Y0060889D01*
X0159188Y0059387D02*
X0159938Y0059387D01*
X0160689Y0058637D01*
X0161440Y0059387D01*
X0162190Y0058637D01*
X0162190Y0056385D01*
X0160689Y0056385D02*
X0160689Y0058637D01*
X0159188Y0059387D02*
X0159188Y0056385D01*
X0163792Y0056385D02*
X0163792Y0059387D01*
X0164542Y0059387D01*
X0165293Y0058637D01*
X0166044Y0059387D01*
X0166794Y0058637D01*
X0166794Y0056385D01*
X0165293Y0056385D02*
X0165293Y0058637D01*
X0132144Y0043534D02*
X0129892Y0041282D01*
X0127640Y0040531D02*
X0132144Y0040531D01*
X0128391Y0038930D02*
X0127640Y0038179D01*
X0127640Y0036678D01*
X0129141Y0034326D02*
X0132144Y0034326D01*
X0129892Y0034326D02*
X0129892Y0031323D01*
X0129141Y0031323D02*
X0127640Y0032825D01*
X0129141Y0034326D01*
X0129141Y0031323D02*
X0132144Y0031323D01*
X0131393Y0028971D02*
X0127640Y0028971D01*
X0127640Y0028221D02*
X0127640Y0029722D01*
X0131393Y0028971D02*
X0132144Y0028221D01*
X0132144Y0027470D01*
X0131393Y0026720D01*
X0028250Y0127947D02*
X0027499Y0127197D01*
X0024497Y0127197D01*
X0023746Y0127947D01*
X0023746Y0129449D01*
X0024497Y0130199D01*
X0027499Y0130199D01*
X0028250Y0129449D01*
X0028250Y0127947D01*
X0026749Y0128698D02*
X0028250Y0130199D01*
X0028250Y0131801D02*
X0028250Y0134803D01*
X0028250Y0133302D02*
X0023746Y0133302D01*
X0025247Y0131801D01*
X0074450Y0158105D02*
X0075201Y0157355D01*
X0075951Y0157355D01*
X0076702Y0158105D01*
X0076702Y0161858D01*
X0075951Y0161858D02*
X0077453Y0161858D01*
X0079054Y0161858D02*
X0081306Y0161858D01*
X0082056Y0161108D01*
X0082056Y0159607D01*
X0081306Y0158856D01*
X0079054Y0158856D01*
X0079054Y0157355D02*
X0079054Y0161858D01*
X0083658Y0160357D02*
X0085159Y0161858D01*
X0085159Y0157355D01*
X0083658Y0157355D02*
X0086660Y0157355D01*
X0182246Y0163302D02*
X0186750Y0163302D01*
X0186750Y0161801D02*
X0186750Y0164803D01*
X0183747Y0161801D02*
X0182246Y0163302D01*
X0191246Y0159803D02*
X0191246Y0156801D01*
X0191246Y0158302D02*
X0195750Y0158302D01*
X0194999Y0155199D02*
X0191246Y0155199D01*
X0191246Y0152197D02*
X0194999Y0152197D01*
X0195750Y0152947D01*
X0195750Y0154449D01*
X0194999Y0155199D01*
X0193498Y0150595D02*
X0194249Y0149845D01*
X0194249Y0147593D01*
X0195750Y0147593D02*
X0191246Y0147593D01*
X0191246Y0149845D01*
X0191997Y0150595D01*
X0193498Y0150595D01*
X0191246Y0145991D02*
X0191246Y0142989D01*
X0191246Y0144490D02*
X0195750Y0144490D01*
X0194999Y0141387D02*
X0191246Y0141387D01*
X0191246Y0138385D02*
X0194999Y0138385D01*
X0195750Y0139136D01*
X0195750Y0140637D01*
X0194999Y0141387D01*
X0194999Y0136784D02*
X0191997Y0136784D01*
X0191246Y0136033D01*
X0191246Y0134532D01*
X0191997Y0133781D01*
X0194999Y0133781D01*
X0195750Y0134532D01*
X0195750Y0136033D01*
X0194999Y0136784D01*
D15*
X0028500Y0117655D02*
X0028500Y0094655D01*
X0028497Y0094436D01*
X0028489Y0094217D01*
X0028476Y0093998D01*
X0028457Y0093780D01*
X0028433Y0093562D01*
X0028404Y0093345D01*
X0028370Y0093128D01*
X0028330Y0092913D01*
X0028285Y0092698D01*
X0028234Y0092485D01*
X0028179Y0092273D01*
X0028118Y0092062D01*
X0028053Y0091853D01*
X0027982Y0091646D01*
X0027906Y0091440D01*
X0027825Y0091236D01*
X0027740Y0091034D01*
X0027649Y0090835D01*
X0027554Y0090638D01*
X0027453Y0090443D01*
X0027348Y0090250D01*
X0027239Y0090060D01*
X0027125Y0089873D01*
X0027006Y0089689D01*
X0026883Y0089508D01*
X0026755Y0089330D01*
X0026623Y0089154D01*
X0026487Y0088983D01*
X0026347Y0088814D01*
X0026203Y0088649D01*
X0026055Y0088488D01*
X0025903Y0088330D01*
X0025747Y0088176D01*
X0025587Y0088026D01*
X0025424Y0087879D01*
X0025257Y0087737D01*
X0025087Y0087599D01*
X0024913Y0087465D01*
X0024737Y0087335D01*
X0024557Y0087210D01*
X0024374Y0087089D01*
X0024188Y0086973D01*
X0024000Y0086861D01*
X0023809Y0086754D01*
X0023615Y0086651D01*
X0023419Y0086553D01*
X0023221Y0086460D01*
X0023020Y0086372D01*
X0022817Y0086289D01*
X0022612Y0086210D01*
X0022406Y0086137D01*
X0022198Y0086069D01*
X0021988Y0086006D01*
X0021776Y0085948D01*
X0021564Y0085895D01*
X0021350Y0085847D01*
X0021135Y0085805D01*
X0020919Y0085768D01*
X0020702Y0085736D01*
X0020484Y0085709D01*
X0020266Y0085688D01*
X0020048Y0085672D01*
X0019829Y0085661D01*
X0019610Y0085656D01*
X0019390Y0085656D01*
X0019171Y0085661D01*
X0018952Y0085672D01*
X0018734Y0085688D01*
X0018516Y0085709D01*
X0018298Y0085736D01*
X0018081Y0085768D01*
X0017865Y0085805D01*
X0017650Y0085847D01*
X0017436Y0085895D01*
X0017224Y0085948D01*
X0017012Y0086006D01*
X0016802Y0086069D01*
X0016594Y0086137D01*
X0016388Y0086210D01*
X0016183Y0086289D01*
X0015980Y0086372D01*
X0015779Y0086460D01*
X0015581Y0086553D01*
X0015385Y0086651D01*
X0015191Y0086754D01*
X0015000Y0086861D01*
X0014812Y0086973D01*
X0014626Y0087089D01*
X0014443Y0087210D01*
X0014263Y0087335D01*
X0014087Y0087465D01*
X0013913Y0087599D01*
X0013743Y0087737D01*
X0013576Y0087879D01*
X0013413Y0088026D01*
X0013253Y0088176D01*
X0013097Y0088330D01*
X0012945Y0088488D01*
X0012797Y0088649D01*
X0012653Y0088814D01*
X0012513Y0088983D01*
X0012377Y0089154D01*
X0012245Y0089330D01*
X0012117Y0089508D01*
X0011994Y0089689D01*
X0011875Y0089873D01*
X0011761Y0090060D01*
X0011652Y0090250D01*
X0011547Y0090443D01*
X0011446Y0090638D01*
X0011351Y0090835D01*
X0011260Y0091034D01*
X0011175Y0091236D01*
X0011094Y0091440D01*
X0011018Y0091646D01*
X0010947Y0091853D01*
X0010882Y0092062D01*
X0010821Y0092273D01*
X0010766Y0092485D01*
X0010715Y0092698D01*
X0010670Y0092913D01*
X0010630Y0093128D01*
X0010596Y0093345D01*
X0010567Y0093562D01*
X0010543Y0093780D01*
X0010524Y0093998D01*
X0010511Y0094217D01*
X0010503Y0094436D01*
X0010500Y0094655D01*
X0010500Y0117655D01*
X0010503Y0117874D01*
X0010511Y0118093D01*
X0010524Y0118312D01*
X0010543Y0118530D01*
X0010567Y0118748D01*
X0010596Y0118965D01*
X0010630Y0119182D01*
X0010670Y0119397D01*
X0010715Y0119612D01*
X0010766Y0119825D01*
X0010821Y0120037D01*
X0010882Y0120248D01*
X0010947Y0120457D01*
X0011018Y0120664D01*
X0011094Y0120870D01*
X0011175Y0121074D01*
X0011260Y0121276D01*
X0011351Y0121475D01*
X0011446Y0121672D01*
X0011547Y0121867D01*
X0011652Y0122060D01*
X0011761Y0122250D01*
X0011875Y0122437D01*
X0011994Y0122621D01*
X0012117Y0122802D01*
X0012245Y0122980D01*
X0012377Y0123156D01*
X0012513Y0123327D01*
X0012653Y0123496D01*
X0012797Y0123661D01*
X0012945Y0123822D01*
X0013097Y0123980D01*
X0013253Y0124134D01*
X0013413Y0124284D01*
X0013576Y0124431D01*
X0013743Y0124573D01*
X0013913Y0124711D01*
X0014087Y0124845D01*
X0014263Y0124975D01*
X0014443Y0125100D01*
X0014626Y0125221D01*
X0014812Y0125337D01*
X0015000Y0125449D01*
X0015191Y0125556D01*
X0015385Y0125659D01*
X0015581Y0125757D01*
X0015779Y0125850D01*
X0015980Y0125938D01*
X0016183Y0126021D01*
X0016388Y0126100D01*
X0016594Y0126173D01*
X0016802Y0126241D01*
X0017012Y0126304D01*
X0017224Y0126362D01*
X0017436Y0126415D01*
X0017650Y0126463D01*
X0017865Y0126505D01*
X0018081Y0126542D01*
X0018298Y0126574D01*
X0018516Y0126601D01*
X0018734Y0126622D01*
X0018952Y0126638D01*
X0019171Y0126649D01*
X0019390Y0126654D01*
X0019610Y0126654D01*
X0019829Y0126649D01*
X0020048Y0126638D01*
X0020266Y0126622D01*
X0020484Y0126601D01*
X0020702Y0126574D01*
X0020919Y0126542D01*
X0021135Y0126505D01*
X0021350Y0126463D01*
X0021564Y0126415D01*
X0021776Y0126362D01*
X0021988Y0126304D01*
X0022198Y0126241D01*
X0022406Y0126173D01*
X0022612Y0126100D01*
X0022817Y0126021D01*
X0023020Y0125938D01*
X0023221Y0125850D01*
X0023419Y0125757D01*
X0023615Y0125659D01*
X0023809Y0125556D01*
X0024000Y0125449D01*
X0024188Y0125337D01*
X0024374Y0125221D01*
X0024557Y0125100D01*
X0024737Y0124975D01*
X0024913Y0124845D01*
X0025087Y0124711D01*
X0025257Y0124573D01*
X0025424Y0124431D01*
X0025587Y0124284D01*
X0025747Y0124134D01*
X0025903Y0123980D01*
X0026055Y0123822D01*
X0026203Y0123661D01*
X0026347Y0123496D01*
X0026487Y0123327D01*
X0026623Y0123156D01*
X0026755Y0122980D01*
X0026883Y0122802D01*
X0027006Y0122621D01*
X0027125Y0122437D01*
X0027239Y0122250D01*
X0027348Y0122060D01*
X0027453Y0121867D01*
X0027554Y0121672D01*
X0027649Y0121475D01*
X0027740Y0121276D01*
X0027825Y0121074D01*
X0027906Y0120870D01*
X0027982Y0120664D01*
X0028053Y0120457D01*
X0028118Y0120248D01*
X0028179Y0120037D01*
X0028234Y0119825D01*
X0028285Y0119612D01*
X0028330Y0119397D01*
X0028370Y0119182D01*
X0028404Y0118965D01*
X0028433Y0118748D01*
X0028457Y0118530D01*
X0028476Y0118312D01*
X0028489Y0118093D01*
X0028497Y0117874D01*
X0028500Y0117655D01*
D16*
X0099205Y0076257D02*
X0105898Y0082950D01*
X0108260Y0082950D01*
X0115740Y0082950D02*
X0118102Y0082950D01*
X0124795Y0076257D01*
X0124795Y0057359D01*
X0115740Y0057359D01*
X0108260Y0057359D02*
X0099205Y0057359D01*
X0099205Y0076257D01*
X0115740Y0081770D02*
X0116023Y0081675D01*
X0116304Y0081573D01*
X0116581Y0081464D01*
X0116857Y0081349D01*
X0117129Y0081227D01*
X0117398Y0081098D01*
X0117664Y0080963D01*
X0117926Y0080821D01*
X0118185Y0080673D01*
X0118441Y0080519D01*
X0118692Y0080358D01*
X0118940Y0080191D01*
X0119183Y0080019D01*
X0119422Y0079840D01*
X0119657Y0079656D01*
X0119887Y0079466D01*
X0120112Y0079270D01*
X0120332Y0079069D01*
X0120548Y0078863D01*
X0120758Y0078651D01*
X0120963Y0078435D01*
X0121163Y0078213D01*
X0121357Y0077986D01*
X0121546Y0077755D01*
X0121729Y0077520D01*
X0121906Y0077280D01*
X0122077Y0077035D01*
X0122242Y0076787D01*
X0122401Y0076534D01*
X0122554Y0076278D01*
X0122701Y0076018D01*
X0122841Y0075755D01*
X0122975Y0075488D01*
X0123102Y0075218D01*
X0123222Y0074945D01*
X0123336Y0074670D01*
X0123443Y0074391D01*
X0123543Y0074110D01*
X0123636Y0073827D01*
X0123723Y0073541D01*
X0123802Y0073253D01*
X0123874Y0072964D01*
X0123939Y0072673D01*
X0123997Y0072380D01*
X0124048Y0072086D01*
X0124092Y0071791D01*
X0124128Y0071495D01*
X0124157Y0071198D01*
X0124179Y0070900D01*
X0124194Y0070602D01*
X0124201Y0070304D01*
X0124201Y0070006D01*
X0124194Y0069708D01*
X0124179Y0069410D01*
X0124157Y0069112D01*
X0124128Y0068815D01*
X0124092Y0068519D01*
X0124048Y0068224D01*
X0123997Y0067930D01*
X0123939Y0067637D01*
X0123874Y0067346D01*
X0123802Y0067057D01*
X0123723Y0066769D01*
X0123636Y0066483D01*
X0123543Y0066200D01*
X0123443Y0065919D01*
X0123336Y0065640D01*
X0123222Y0065365D01*
X0123102Y0065092D01*
X0122975Y0064822D01*
X0122841Y0064555D01*
X0122701Y0064292D01*
X0122554Y0064032D01*
X0122401Y0063776D01*
X0122242Y0063523D01*
X0122077Y0063275D01*
X0121906Y0063030D01*
X0121729Y0062790D01*
X0121546Y0062555D01*
X0121357Y0062324D01*
X0121163Y0062097D01*
X0120963Y0061875D01*
X0120758Y0061659D01*
X0120548Y0061447D01*
X0120332Y0061241D01*
X0120112Y0061040D01*
X0119887Y0060844D01*
X0119657Y0060654D01*
X0119422Y0060470D01*
X0119183Y0060291D01*
X0118940Y0060119D01*
X0118692Y0059952D01*
X0118441Y0059791D01*
X0118185Y0059637D01*
X0117926Y0059489D01*
X0117664Y0059347D01*
X0117398Y0059212D01*
X0117129Y0059083D01*
X0116857Y0058961D01*
X0116581Y0058846D01*
X0116304Y0058737D01*
X0116023Y0058635D01*
X0115740Y0058540D01*
X0108260Y0058540D02*
X0107977Y0058635D01*
X0107696Y0058737D01*
X0107419Y0058846D01*
X0107143Y0058961D01*
X0106871Y0059083D01*
X0106602Y0059212D01*
X0106336Y0059347D01*
X0106074Y0059489D01*
X0105815Y0059637D01*
X0105559Y0059791D01*
X0105308Y0059952D01*
X0105060Y0060119D01*
X0104817Y0060291D01*
X0104578Y0060470D01*
X0104343Y0060654D01*
X0104113Y0060844D01*
X0103888Y0061040D01*
X0103668Y0061241D01*
X0103452Y0061447D01*
X0103242Y0061659D01*
X0103037Y0061875D01*
X0102837Y0062097D01*
X0102643Y0062324D01*
X0102454Y0062555D01*
X0102271Y0062790D01*
X0102094Y0063030D01*
X0101923Y0063275D01*
X0101758Y0063523D01*
X0101599Y0063776D01*
X0101446Y0064032D01*
X0101299Y0064292D01*
X0101159Y0064555D01*
X0101025Y0064822D01*
X0100898Y0065092D01*
X0100778Y0065365D01*
X0100664Y0065640D01*
X0100557Y0065919D01*
X0100457Y0066200D01*
X0100364Y0066483D01*
X0100277Y0066769D01*
X0100198Y0067057D01*
X0100126Y0067346D01*
X0100061Y0067637D01*
X0100003Y0067930D01*
X0099952Y0068224D01*
X0099908Y0068519D01*
X0099872Y0068815D01*
X0099843Y0069112D01*
X0099821Y0069410D01*
X0099806Y0069708D01*
X0099799Y0070006D01*
X0099799Y0070304D01*
X0099806Y0070602D01*
X0099821Y0070900D01*
X0099843Y0071198D01*
X0099872Y0071495D01*
X0099908Y0071791D01*
X0099952Y0072086D01*
X0100003Y0072380D01*
X0100061Y0072673D01*
X0100126Y0072964D01*
X0100198Y0073253D01*
X0100277Y0073541D01*
X0100364Y0073827D01*
X0100457Y0074110D01*
X0100557Y0074391D01*
X0100664Y0074670D01*
X0100778Y0074945D01*
X0100898Y0075218D01*
X0101025Y0075488D01*
X0101159Y0075755D01*
X0101299Y0076018D01*
X0101446Y0076278D01*
X0101599Y0076534D01*
X0101758Y0076787D01*
X0101923Y0077035D01*
X0102094Y0077280D01*
X0102271Y0077520D01*
X0102454Y0077755D01*
X0102643Y0077986D01*
X0102837Y0078213D01*
X0103037Y0078435D01*
X0103242Y0078651D01*
X0103452Y0078863D01*
X0103668Y0079069D01*
X0103888Y0079270D01*
X0104113Y0079466D01*
X0104343Y0079656D01*
X0104578Y0079840D01*
X0104817Y0080019D01*
X0105060Y0080191D01*
X0105308Y0080358D01*
X0105559Y0080519D01*
X0105815Y0080673D01*
X0106074Y0080821D01*
X0106336Y0080963D01*
X0106602Y0081098D01*
X0106871Y0081227D01*
X0107143Y0081349D01*
X0107419Y0081464D01*
X0107696Y0081573D01*
X0107977Y0081675D01*
X0108260Y0081770D01*
X0135898Y0139859D02*
X0129205Y0146552D01*
X0129205Y0148914D01*
X0129205Y0156395D02*
X0129205Y0158757D01*
X0135898Y0165450D01*
X0154795Y0165450D01*
X0154795Y0156395D01*
X0154795Y0148914D02*
X0154795Y0139859D01*
X0135898Y0139859D01*
X0130385Y0156395D02*
X0130480Y0156678D01*
X0130582Y0156959D01*
X0130691Y0157236D01*
X0130806Y0157512D01*
X0130928Y0157784D01*
X0131057Y0158053D01*
X0131192Y0158319D01*
X0131334Y0158581D01*
X0131482Y0158840D01*
X0131636Y0159096D01*
X0131797Y0159347D01*
X0131964Y0159595D01*
X0132136Y0159838D01*
X0132315Y0160077D01*
X0132499Y0160312D01*
X0132689Y0160542D01*
X0132885Y0160767D01*
X0133086Y0160987D01*
X0133292Y0161203D01*
X0133504Y0161413D01*
X0133720Y0161618D01*
X0133942Y0161818D01*
X0134169Y0162012D01*
X0134400Y0162201D01*
X0134635Y0162384D01*
X0134875Y0162561D01*
X0135120Y0162732D01*
X0135368Y0162897D01*
X0135621Y0163056D01*
X0135877Y0163209D01*
X0136137Y0163356D01*
X0136400Y0163496D01*
X0136667Y0163630D01*
X0136937Y0163757D01*
X0137210Y0163877D01*
X0137485Y0163991D01*
X0137764Y0164098D01*
X0138045Y0164198D01*
X0138328Y0164291D01*
X0138614Y0164378D01*
X0138902Y0164457D01*
X0139191Y0164529D01*
X0139482Y0164594D01*
X0139775Y0164652D01*
X0140069Y0164703D01*
X0140364Y0164747D01*
X0140660Y0164783D01*
X0140957Y0164812D01*
X0141255Y0164834D01*
X0141553Y0164849D01*
X0141851Y0164856D01*
X0142149Y0164856D01*
X0142447Y0164849D01*
X0142745Y0164834D01*
X0143043Y0164812D01*
X0143340Y0164783D01*
X0143636Y0164747D01*
X0143931Y0164703D01*
X0144225Y0164652D01*
X0144518Y0164594D01*
X0144809Y0164529D01*
X0145098Y0164457D01*
X0145386Y0164378D01*
X0145672Y0164291D01*
X0145955Y0164198D01*
X0146236Y0164098D01*
X0146515Y0163991D01*
X0146790Y0163877D01*
X0147063Y0163757D01*
X0147333Y0163630D01*
X0147600Y0163496D01*
X0147863Y0163356D01*
X0148123Y0163209D01*
X0148379Y0163056D01*
X0148632Y0162897D01*
X0148880Y0162732D01*
X0149125Y0162561D01*
X0149365Y0162384D01*
X0149600Y0162201D01*
X0149831Y0162012D01*
X0150058Y0161818D01*
X0150280Y0161618D01*
X0150496Y0161413D01*
X0150708Y0161203D01*
X0150914Y0160987D01*
X0151115Y0160767D01*
X0151311Y0160542D01*
X0151501Y0160312D01*
X0151685Y0160077D01*
X0151864Y0159838D01*
X0152036Y0159595D01*
X0152203Y0159347D01*
X0152364Y0159096D01*
X0152518Y0158840D01*
X0152666Y0158581D01*
X0152808Y0158319D01*
X0152943Y0158053D01*
X0153072Y0157784D01*
X0153194Y0157512D01*
X0153309Y0157236D01*
X0153418Y0156959D01*
X0153520Y0156678D01*
X0153615Y0156395D01*
X0153615Y0148915D02*
X0153520Y0148632D01*
X0153418Y0148351D01*
X0153309Y0148074D01*
X0153194Y0147798D01*
X0153072Y0147526D01*
X0152943Y0147257D01*
X0152808Y0146991D01*
X0152666Y0146729D01*
X0152518Y0146470D01*
X0152364Y0146214D01*
X0152203Y0145963D01*
X0152036Y0145715D01*
X0151864Y0145472D01*
X0151685Y0145233D01*
X0151501Y0144998D01*
X0151311Y0144768D01*
X0151115Y0144543D01*
X0150914Y0144323D01*
X0150708Y0144107D01*
X0150496Y0143897D01*
X0150280Y0143692D01*
X0150058Y0143492D01*
X0149831Y0143298D01*
X0149600Y0143109D01*
X0149365Y0142926D01*
X0149125Y0142749D01*
X0148880Y0142578D01*
X0148632Y0142413D01*
X0148379Y0142254D01*
X0148123Y0142101D01*
X0147863Y0141954D01*
X0147600Y0141814D01*
X0147333Y0141680D01*
X0147063Y0141553D01*
X0146790Y0141433D01*
X0146515Y0141319D01*
X0146236Y0141212D01*
X0145955Y0141112D01*
X0145672Y0141019D01*
X0145386Y0140932D01*
X0145098Y0140853D01*
X0144809Y0140781D01*
X0144518Y0140716D01*
X0144225Y0140658D01*
X0143931Y0140607D01*
X0143636Y0140563D01*
X0143340Y0140527D01*
X0143043Y0140498D01*
X0142745Y0140476D01*
X0142447Y0140461D01*
X0142149Y0140454D01*
X0141851Y0140454D01*
X0141553Y0140461D01*
X0141255Y0140476D01*
X0140957Y0140498D01*
X0140660Y0140527D01*
X0140364Y0140563D01*
X0140069Y0140607D01*
X0139775Y0140658D01*
X0139482Y0140716D01*
X0139191Y0140781D01*
X0138902Y0140853D01*
X0138614Y0140932D01*
X0138328Y0141019D01*
X0138045Y0141112D01*
X0137764Y0141212D01*
X0137485Y0141319D01*
X0137210Y0141433D01*
X0136937Y0141553D01*
X0136667Y0141680D01*
X0136400Y0141814D01*
X0136137Y0141954D01*
X0135877Y0142101D01*
X0135621Y0142254D01*
X0135368Y0142413D01*
X0135120Y0142578D01*
X0134875Y0142749D01*
X0134635Y0142926D01*
X0134400Y0143109D01*
X0134169Y0143298D01*
X0133942Y0143492D01*
X0133720Y0143692D01*
X0133504Y0143897D01*
X0133292Y0144107D01*
X0133086Y0144323D01*
X0132885Y0144543D01*
X0132689Y0144768D01*
X0132499Y0144998D01*
X0132315Y0145233D01*
X0132136Y0145472D01*
X0131964Y0145715D01*
X0131797Y0145963D01*
X0131636Y0146214D01*
X0131482Y0146470D01*
X0131334Y0146729D01*
X0131192Y0146991D01*
X0131057Y0147257D01*
X0130928Y0147526D01*
X0130806Y0147798D01*
X0130691Y0148074D01*
X0130582Y0148351D01*
X0130480Y0148632D01*
X0130385Y0148915D01*
D17*
X0154441Y0048970D02*
X0154443Y0049078D01*
X0154449Y0049187D01*
X0154459Y0049295D01*
X0154473Y0049402D01*
X0154491Y0049509D01*
X0154512Y0049616D01*
X0154538Y0049721D01*
X0154568Y0049826D01*
X0154601Y0049929D01*
X0154638Y0050031D01*
X0154679Y0050131D01*
X0154723Y0050230D01*
X0154772Y0050328D01*
X0154823Y0050423D01*
X0154878Y0050516D01*
X0154937Y0050608D01*
X0154999Y0050697D01*
X0155064Y0050784D01*
X0155132Y0050868D01*
X0155203Y0050950D01*
X0155277Y0051029D01*
X0155354Y0051105D01*
X0155434Y0051179D01*
X0155517Y0051249D01*
X0155602Y0051317D01*
X0155689Y0051381D01*
X0155779Y0051442D01*
X0155871Y0051500D01*
X0155965Y0051554D01*
X0156061Y0051605D01*
X0156158Y0051652D01*
X0156258Y0051696D01*
X0156359Y0051736D01*
X0156461Y0051772D01*
X0156564Y0051804D01*
X0156669Y0051833D01*
X0156775Y0051857D01*
X0156881Y0051878D01*
X0156988Y0051895D01*
X0157096Y0051908D01*
X0157204Y0051917D01*
X0157313Y0051922D01*
X0157421Y0051923D01*
X0157530Y0051920D01*
X0157638Y0051913D01*
X0157746Y0051902D01*
X0157853Y0051887D01*
X0157960Y0051868D01*
X0158066Y0051845D01*
X0158171Y0051819D01*
X0158276Y0051788D01*
X0158378Y0051754D01*
X0158480Y0051716D01*
X0158580Y0051674D01*
X0158679Y0051629D01*
X0158776Y0051580D01*
X0158870Y0051527D01*
X0158963Y0051471D01*
X0159054Y0051412D01*
X0159143Y0051349D01*
X0159229Y0051284D01*
X0159313Y0051215D01*
X0159394Y0051143D01*
X0159472Y0051068D01*
X0159548Y0050990D01*
X0159621Y0050909D01*
X0159691Y0050826D01*
X0159757Y0050741D01*
X0159821Y0050653D01*
X0159881Y0050562D01*
X0159938Y0050470D01*
X0159991Y0050375D01*
X0160041Y0050279D01*
X0160087Y0050181D01*
X0160130Y0050081D01*
X0160169Y0049980D01*
X0160204Y0049877D01*
X0160236Y0049774D01*
X0160263Y0049669D01*
X0160287Y0049563D01*
X0160307Y0049456D01*
X0160323Y0049349D01*
X0160335Y0049241D01*
X0160343Y0049133D01*
X0160347Y0049024D01*
X0160347Y0048916D01*
X0160343Y0048807D01*
X0160335Y0048699D01*
X0160323Y0048591D01*
X0160307Y0048484D01*
X0160287Y0048377D01*
X0160263Y0048271D01*
X0160236Y0048166D01*
X0160204Y0048063D01*
X0160169Y0047960D01*
X0160130Y0047859D01*
X0160087Y0047759D01*
X0160041Y0047661D01*
X0159991Y0047565D01*
X0159938Y0047470D01*
X0159881Y0047378D01*
X0159821Y0047287D01*
X0159757Y0047199D01*
X0159691Y0047114D01*
X0159621Y0047031D01*
X0159548Y0046950D01*
X0159472Y0046872D01*
X0159394Y0046797D01*
X0159313Y0046725D01*
X0159229Y0046656D01*
X0159143Y0046591D01*
X0159054Y0046528D01*
X0158963Y0046469D01*
X0158871Y0046413D01*
X0158776Y0046360D01*
X0158679Y0046311D01*
X0158580Y0046266D01*
X0158480Y0046224D01*
X0158378Y0046186D01*
X0158276Y0046152D01*
X0158171Y0046121D01*
X0158066Y0046095D01*
X0157960Y0046072D01*
X0157853Y0046053D01*
X0157746Y0046038D01*
X0157638Y0046027D01*
X0157530Y0046020D01*
X0157421Y0046017D01*
X0157313Y0046018D01*
X0157204Y0046023D01*
X0157096Y0046032D01*
X0156988Y0046045D01*
X0156881Y0046062D01*
X0156775Y0046083D01*
X0156669Y0046107D01*
X0156564Y0046136D01*
X0156461Y0046168D01*
X0156359Y0046204D01*
X0156258Y0046244D01*
X0156158Y0046288D01*
X0156061Y0046335D01*
X0155965Y0046386D01*
X0155871Y0046440D01*
X0155779Y0046498D01*
X0155689Y0046559D01*
X0155602Y0046623D01*
X0155517Y0046691D01*
X0155434Y0046761D01*
X0155354Y0046835D01*
X0155277Y0046911D01*
X0155203Y0046990D01*
X0155132Y0047072D01*
X0155064Y0047156D01*
X0154999Y0047243D01*
X0154937Y0047332D01*
X0154878Y0047424D01*
X0154823Y0047517D01*
X0154772Y0047612D01*
X0154723Y0047710D01*
X0154679Y0047809D01*
X0154638Y0047909D01*
X0154601Y0048011D01*
X0154568Y0048114D01*
X0154538Y0048219D01*
X0154512Y0048324D01*
X0154491Y0048431D01*
X0154473Y0048538D01*
X0154459Y0048645D01*
X0154449Y0048753D01*
X0154443Y0048862D01*
X0154441Y0048970D01*
X0134756Y0029285D02*
X0134758Y0029393D01*
X0134764Y0029502D01*
X0134774Y0029610D01*
X0134788Y0029717D01*
X0134806Y0029824D01*
X0134827Y0029931D01*
X0134853Y0030036D01*
X0134883Y0030141D01*
X0134916Y0030244D01*
X0134953Y0030346D01*
X0134994Y0030446D01*
X0135038Y0030545D01*
X0135087Y0030643D01*
X0135138Y0030738D01*
X0135193Y0030831D01*
X0135252Y0030923D01*
X0135314Y0031012D01*
X0135379Y0031099D01*
X0135447Y0031183D01*
X0135518Y0031265D01*
X0135592Y0031344D01*
X0135669Y0031420D01*
X0135749Y0031494D01*
X0135832Y0031564D01*
X0135917Y0031632D01*
X0136004Y0031696D01*
X0136094Y0031757D01*
X0136186Y0031815D01*
X0136280Y0031869D01*
X0136376Y0031920D01*
X0136473Y0031967D01*
X0136573Y0032011D01*
X0136674Y0032051D01*
X0136776Y0032087D01*
X0136879Y0032119D01*
X0136984Y0032148D01*
X0137090Y0032172D01*
X0137196Y0032193D01*
X0137303Y0032210D01*
X0137411Y0032223D01*
X0137519Y0032232D01*
X0137628Y0032237D01*
X0137736Y0032238D01*
X0137845Y0032235D01*
X0137953Y0032228D01*
X0138061Y0032217D01*
X0138168Y0032202D01*
X0138275Y0032183D01*
X0138381Y0032160D01*
X0138486Y0032134D01*
X0138591Y0032103D01*
X0138693Y0032069D01*
X0138795Y0032031D01*
X0138895Y0031989D01*
X0138994Y0031944D01*
X0139091Y0031895D01*
X0139185Y0031842D01*
X0139278Y0031786D01*
X0139369Y0031727D01*
X0139458Y0031664D01*
X0139544Y0031599D01*
X0139628Y0031530D01*
X0139709Y0031458D01*
X0139787Y0031383D01*
X0139863Y0031305D01*
X0139936Y0031224D01*
X0140006Y0031141D01*
X0140072Y0031056D01*
X0140136Y0030968D01*
X0140196Y0030877D01*
X0140253Y0030785D01*
X0140306Y0030690D01*
X0140356Y0030594D01*
X0140402Y0030496D01*
X0140445Y0030396D01*
X0140484Y0030295D01*
X0140519Y0030192D01*
X0140551Y0030089D01*
X0140578Y0029984D01*
X0140602Y0029878D01*
X0140622Y0029771D01*
X0140638Y0029664D01*
X0140650Y0029556D01*
X0140658Y0029448D01*
X0140662Y0029339D01*
X0140662Y0029231D01*
X0140658Y0029122D01*
X0140650Y0029014D01*
X0140638Y0028906D01*
X0140622Y0028799D01*
X0140602Y0028692D01*
X0140578Y0028586D01*
X0140551Y0028481D01*
X0140519Y0028378D01*
X0140484Y0028275D01*
X0140445Y0028174D01*
X0140402Y0028074D01*
X0140356Y0027976D01*
X0140306Y0027880D01*
X0140253Y0027785D01*
X0140196Y0027693D01*
X0140136Y0027602D01*
X0140072Y0027514D01*
X0140006Y0027429D01*
X0139936Y0027346D01*
X0139863Y0027265D01*
X0139787Y0027187D01*
X0139709Y0027112D01*
X0139628Y0027040D01*
X0139544Y0026971D01*
X0139458Y0026906D01*
X0139369Y0026843D01*
X0139278Y0026784D01*
X0139186Y0026728D01*
X0139091Y0026675D01*
X0138994Y0026626D01*
X0138895Y0026581D01*
X0138795Y0026539D01*
X0138693Y0026501D01*
X0138591Y0026467D01*
X0138486Y0026436D01*
X0138381Y0026410D01*
X0138275Y0026387D01*
X0138168Y0026368D01*
X0138061Y0026353D01*
X0137953Y0026342D01*
X0137845Y0026335D01*
X0137736Y0026332D01*
X0137628Y0026333D01*
X0137519Y0026338D01*
X0137411Y0026347D01*
X0137303Y0026360D01*
X0137196Y0026377D01*
X0137090Y0026398D01*
X0136984Y0026422D01*
X0136879Y0026451D01*
X0136776Y0026483D01*
X0136674Y0026519D01*
X0136573Y0026559D01*
X0136473Y0026603D01*
X0136376Y0026650D01*
X0136280Y0026701D01*
X0136186Y0026755D01*
X0136094Y0026813D01*
X0136004Y0026874D01*
X0135917Y0026938D01*
X0135832Y0027006D01*
X0135749Y0027076D01*
X0135669Y0027150D01*
X0135592Y0027226D01*
X0135518Y0027305D01*
X0135447Y0027387D01*
X0135379Y0027471D01*
X0135314Y0027558D01*
X0135252Y0027647D01*
X0135193Y0027739D01*
X0135138Y0027832D01*
X0135087Y0027927D01*
X0135038Y0028025D01*
X0134994Y0028124D01*
X0134953Y0028224D01*
X0134916Y0028326D01*
X0134883Y0028429D01*
X0134853Y0028534D01*
X0134827Y0028639D01*
X0134806Y0028746D01*
X0134788Y0028853D01*
X0134774Y0028960D01*
X0134764Y0029068D01*
X0134758Y0029177D01*
X0134756Y0029285D01*
X0174126Y0029285D02*
X0174128Y0029393D01*
X0174134Y0029502D01*
X0174144Y0029610D01*
X0174158Y0029717D01*
X0174176Y0029824D01*
X0174197Y0029931D01*
X0174223Y0030036D01*
X0174253Y0030141D01*
X0174286Y0030244D01*
X0174323Y0030346D01*
X0174364Y0030446D01*
X0174408Y0030545D01*
X0174457Y0030643D01*
X0174508Y0030738D01*
X0174563Y0030831D01*
X0174622Y0030923D01*
X0174684Y0031012D01*
X0174749Y0031099D01*
X0174817Y0031183D01*
X0174888Y0031265D01*
X0174962Y0031344D01*
X0175039Y0031420D01*
X0175119Y0031494D01*
X0175202Y0031564D01*
X0175287Y0031632D01*
X0175374Y0031696D01*
X0175464Y0031757D01*
X0175556Y0031815D01*
X0175650Y0031869D01*
X0175746Y0031920D01*
X0175843Y0031967D01*
X0175943Y0032011D01*
X0176044Y0032051D01*
X0176146Y0032087D01*
X0176249Y0032119D01*
X0176354Y0032148D01*
X0176460Y0032172D01*
X0176566Y0032193D01*
X0176673Y0032210D01*
X0176781Y0032223D01*
X0176889Y0032232D01*
X0176998Y0032237D01*
X0177106Y0032238D01*
X0177215Y0032235D01*
X0177323Y0032228D01*
X0177431Y0032217D01*
X0177538Y0032202D01*
X0177645Y0032183D01*
X0177751Y0032160D01*
X0177856Y0032134D01*
X0177961Y0032103D01*
X0178063Y0032069D01*
X0178165Y0032031D01*
X0178265Y0031989D01*
X0178364Y0031944D01*
X0178461Y0031895D01*
X0178555Y0031842D01*
X0178648Y0031786D01*
X0178739Y0031727D01*
X0178828Y0031664D01*
X0178914Y0031599D01*
X0178998Y0031530D01*
X0179079Y0031458D01*
X0179157Y0031383D01*
X0179233Y0031305D01*
X0179306Y0031224D01*
X0179376Y0031141D01*
X0179442Y0031056D01*
X0179506Y0030968D01*
X0179566Y0030877D01*
X0179623Y0030785D01*
X0179676Y0030690D01*
X0179726Y0030594D01*
X0179772Y0030496D01*
X0179815Y0030396D01*
X0179854Y0030295D01*
X0179889Y0030192D01*
X0179921Y0030089D01*
X0179948Y0029984D01*
X0179972Y0029878D01*
X0179992Y0029771D01*
X0180008Y0029664D01*
X0180020Y0029556D01*
X0180028Y0029448D01*
X0180032Y0029339D01*
X0180032Y0029231D01*
X0180028Y0029122D01*
X0180020Y0029014D01*
X0180008Y0028906D01*
X0179992Y0028799D01*
X0179972Y0028692D01*
X0179948Y0028586D01*
X0179921Y0028481D01*
X0179889Y0028378D01*
X0179854Y0028275D01*
X0179815Y0028174D01*
X0179772Y0028074D01*
X0179726Y0027976D01*
X0179676Y0027880D01*
X0179623Y0027785D01*
X0179566Y0027693D01*
X0179506Y0027602D01*
X0179442Y0027514D01*
X0179376Y0027429D01*
X0179306Y0027346D01*
X0179233Y0027265D01*
X0179157Y0027187D01*
X0179079Y0027112D01*
X0178998Y0027040D01*
X0178914Y0026971D01*
X0178828Y0026906D01*
X0178739Y0026843D01*
X0178648Y0026784D01*
X0178556Y0026728D01*
X0178461Y0026675D01*
X0178364Y0026626D01*
X0178265Y0026581D01*
X0178165Y0026539D01*
X0178063Y0026501D01*
X0177961Y0026467D01*
X0177856Y0026436D01*
X0177751Y0026410D01*
X0177645Y0026387D01*
X0177538Y0026368D01*
X0177431Y0026353D01*
X0177323Y0026342D01*
X0177215Y0026335D01*
X0177106Y0026332D01*
X0176998Y0026333D01*
X0176889Y0026338D01*
X0176781Y0026347D01*
X0176673Y0026360D01*
X0176566Y0026377D01*
X0176460Y0026398D01*
X0176354Y0026422D01*
X0176249Y0026451D01*
X0176146Y0026483D01*
X0176044Y0026519D01*
X0175943Y0026559D01*
X0175843Y0026603D01*
X0175746Y0026650D01*
X0175650Y0026701D01*
X0175556Y0026755D01*
X0175464Y0026813D01*
X0175374Y0026874D01*
X0175287Y0026938D01*
X0175202Y0027006D01*
X0175119Y0027076D01*
X0175039Y0027150D01*
X0174962Y0027226D01*
X0174888Y0027305D01*
X0174817Y0027387D01*
X0174749Y0027471D01*
X0174684Y0027558D01*
X0174622Y0027647D01*
X0174563Y0027739D01*
X0174508Y0027832D01*
X0174457Y0027927D01*
X0174408Y0028025D01*
X0174364Y0028124D01*
X0174323Y0028224D01*
X0174286Y0028326D01*
X0174253Y0028429D01*
X0174223Y0028534D01*
X0174197Y0028639D01*
X0174176Y0028746D01*
X0174158Y0028853D01*
X0174144Y0028960D01*
X0174134Y0029068D01*
X0174128Y0029177D01*
X0174126Y0029285D01*
D18*
X0040650Y0035238D02*
X0040650Y0035472D01*
X0040416Y0035705D01*
X0039249Y0035705D01*
X0039249Y0035472D02*
X0039249Y0035939D01*
X0039716Y0036478D02*
X0039249Y0036945D01*
X0040650Y0036945D01*
X0040650Y0036478D02*
X0040650Y0037412D01*
X0040650Y0035238D02*
X0040416Y0035005D01*
X0025800Y0039992D02*
X0025433Y0039625D01*
X0025800Y0039992D02*
X0025800Y0040726D01*
X0025433Y0041093D01*
X0025066Y0041093D01*
X0024699Y0040726D01*
X0024699Y0039992D01*
X0024332Y0039625D01*
X0023965Y0039625D01*
X0023598Y0039992D01*
X0023598Y0040726D01*
X0023965Y0041093D01*
X0023598Y0041835D02*
X0025066Y0041835D01*
X0025800Y0042569D01*
X0025066Y0043303D01*
X0023598Y0043303D01*
X0024332Y0044045D02*
X0023598Y0044779D01*
X0025800Y0044779D01*
X0025800Y0044045D02*
X0025800Y0045513D01*
M02*
