G75*
%MOIN*%
%OFA0B0*%
%FSLAX25Y25*%
%IPPOS*%
%LPD*%
%AMOC8*
5,1,8,0,0,1.08239X$1,22.5*
%
%ADD10C,0.07400*%
%ADD11C,0.05200*%
%ADD12R,0.05000X0.02500*%
%ADD13C,0.10000*%
%ADD14C,0.08858*%
%ADD15C,0.06000*%
%ADD16C,0.05543*%
%ADD17C,0.01000*%
%ADD18OC8,0.03562*%
%ADD19C,0.01600*%
D10*
X0027000Y0159155D03*
X0037000Y0158155D03*
X0047000Y0159155D03*
X0057000Y0158155D03*
X0067000Y0159155D03*
D11*
X0019500Y0115655D03*
X0019500Y0096655D03*
D12*
X0082000Y0031155D03*
X0087000Y0031155D03*
D13*
X0157394Y0029285D03*
D14*
X0166843Y0048970D03*
X0177472Y0048970D03*
X0147945Y0048970D03*
X0137315Y0048970D03*
D15*
X0181500Y0136155D02*
X0187500Y0136155D01*
X0187500Y0146155D02*
X0181500Y0146155D01*
X0181500Y0156155D02*
X0187500Y0156155D01*
X0020000Y0073655D02*
X0014000Y0073655D01*
X0014000Y0063655D02*
X0020000Y0063655D01*
X0020000Y0053655D02*
X0014000Y0053655D01*
X0014000Y0043655D02*
X0020000Y0043655D01*
D16*
X0053063Y0081155D03*
X0060937Y0081155D03*
D17*
X0025290Y0021506D02*
X0020745Y0023890D01*
X0016752Y0027114D01*
X0013465Y0031056D01*
X0011010Y0035563D01*
X0009481Y0040462D01*
X0008938Y0045566D01*
X0009022Y0047602D01*
X0009050Y0047631D01*
X0009050Y0048203D01*
X0009102Y0048772D01*
X0009050Y0048834D01*
X0009050Y0166605D01*
X0121381Y0166605D01*
X0122000Y0125761D01*
X0102000Y0126155D01*
X0082000Y0111155D01*
X0082415Y0033905D01*
X0082125Y0033905D01*
X0082125Y0031280D01*
X0081875Y0031280D01*
X0081875Y0033905D01*
X0079303Y0033905D01*
X0078921Y0033802D01*
X0078579Y0033605D01*
X0078300Y0033326D01*
X0078102Y0032984D01*
X0078000Y0032602D01*
X0078000Y0031280D01*
X0081875Y0031280D01*
X0081875Y0031030D01*
X0078000Y0031030D01*
X0078000Y0029707D01*
X0078102Y0029326D01*
X0078300Y0028984D01*
X0078579Y0028704D01*
X0078921Y0028507D01*
X0079303Y0028405D01*
X0081875Y0028405D01*
X0081875Y0031030D01*
X0082125Y0031030D01*
X0082125Y0028405D01*
X0082445Y0028405D01*
X0082492Y0019705D01*
X0032713Y0019705D01*
X0030213Y0020055D01*
X0025290Y0021506D01*
X0025016Y0021650D02*
X0082481Y0021650D01*
X0082487Y0020652D02*
X0028190Y0020652D01*
X0023112Y0022649D02*
X0082476Y0022649D01*
X0082470Y0023647D02*
X0021208Y0023647D01*
X0019809Y0024646D02*
X0082465Y0024646D01*
X0082460Y0025644D02*
X0018573Y0025644D01*
X0017336Y0026643D02*
X0082454Y0026643D01*
X0082449Y0027641D02*
X0016313Y0027641D01*
X0015480Y0028640D02*
X0078691Y0028640D01*
X0078018Y0029638D02*
X0014647Y0029638D01*
X0013814Y0030637D02*
X0078000Y0030637D01*
X0078000Y0031635D02*
X0013149Y0031635D01*
X0012605Y0032634D02*
X0078009Y0032634D01*
X0078626Y0033632D02*
X0012062Y0033632D01*
X0011518Y0034631D02*
X0082411Y0034631D01*
X0082406Y0035629D02*
X0010989Y0035629D01*
X0010678Y0036628D02*
X0082401Y0036628D01*
X0082395Y0037626D02*
X0010366Y0037626D01*
X0010055Y0038625D02*
X0082390Y0038625D01*
X0082385Y0039623D02*
X0022000Y0039623D01*
X0021727Y0039484D02*
X0022359Y0039806D01*
X0022932Y0040222D01*
X0023432Y0040723D01*
X0023849Y0041296D01*
X0024170Y0041927D01*
X0024389Y0042601D01*
X0024477Y0043155D01*
X0017500Y0043155D01*
X0017500Y0044155D01*
X0016500Y0044155D01*
X0016500Y0048155D01*
X0013646Y0048155D01*
X0012946Y0048044D01*
X0012273Y0047825D01*
X0011641Y0047503D01*
X0011068Y0047087D01*
X0010568Y0046586D01*
X0010151Y0046013D01*
X0009830Y0045382D01*
X0009611Y0044708D01*
X0009523Y0044155D01*
X0016500Y0044155D01*
X0016500Y0043155D01*
X0009523Y0043155D01*
X0009611Y0042601D01*
X0009830Y0041927D01*
X0010151Y0041296D01*
X0010568Y0040723D01*
X0011068Y0040222D01*
X0011641Y0039806D01*
X0012273Y0039484D01*
X0012946Y0039265D01*
X0013646Y0039155D01*
X0016500Y0039155D01*
X0016500Y0043155D01*
X0017500Y0043155D01*
X0017500Y0039155D01*
X0020354Y0039155D01*
X0021054Y0039265D01*
X0021727Y0039484D01*
X0023331Y0040622D02*
X0082379Y0040622D01*
X0082374Y0041620D02*
X0024014Y0041620D01*
X0024392Y0042619D02*
X0082368Y0042619D01*
X0082363Y0043617D02*
X0017500Y0043617D01*
X0017500Y0044155D02*
X0024477Y0044155D01*
X0024389Y0044708D01*
X0024170Y0045382D01*
X0023849Y0046013D01*
X0023432Y0046586D01*
X0022932Y0047087D01*
X0022359Y0047503D01*
X0021727Y0047825D01*
X0021054Y0048044D01*
X0020354Y0048155D01*
X0017500Y0048155D01*
X0017500Y0044155D01*
X0017500Y0044616D02*
X0016500Y0044616D01*
X0016500Y0045614D02*
X0017500Y0045614D01*
X0017500Y0046613D02*
X0016500Y0046613D01*
X0016500Y0047611D02*
X0017500Y0047611D01*
X0020816Y0049555D02*
X0013184Y0049555D01*
X0011678Y0050179D01*
X0010524Y0051332D01*
X0009900Y0052839D01*
X0009900Y0054470D01*
X0010524Y0055977D01*
X0011678Y0057130D01*
X0013184Y0057755D01*
X0020816Y0057755D01*
X0022322Y0057130D01*
X0023476Y0055977D01*
X0023651Y0055555D01*
X0062326Y0055555D01*
X0063307Y0056536D01*
X0065693Y0056536D01*
X0067381Y0054848D01*
X0067381Y0052461D01*
X0065693Y0050773D01*
X0063307Y0050773D01*
X0062326Y0051755D01*
X0023651Y0051755D01*
X0023476Y0051332D01*
X0022322Y0050179D01*
X0020816Y0049555D01*
X0020946Y0049608D02*
X0082331Y0049608D01*
X0082336Y0048610D02*
X0009087Y0048610D01*
X0009050Y0049608D02*
X0013054Y0049608D01*
X0011249Y0050607D02*
X0009050Y0050607D01*
X0009050Y0051605D02*
X0010411Y0051605D01*
X0009997Y0052604D02*
X0009050Y0052604D01*
X0009050Y0053602D02*
X0009900Y0053602D01*
X0009954Y0054601D02*
X0009050Y0054601D01*
X0009050Y0055600D02*
X0010368Y0055600D01*
X0011145Y0056598D02*
X0009050Y0056598D01*
X0009050Y0057597D02*
X0012803Y0057597D01*
X0013184Y0059555D02*
X0011678Y0060179D01*
X0010524Y0061332D01*
X0009900Y0062839D01*
X0009900Y0064470D01*
X0010524Y0065977D01*
X0011678Y0067130D01*
X0013184Y0067755D01*
X0020816Y0067755D01*
X0022322Y0067130D01*
X0023476Y0065977D01*
X0023651Y0065555D01*
X0032787Y0065555D01*
X0037787Y0060555D01*
X0054826Y0060555D01*
X0055807Y0061536D01*
X0058193Y0061536D01*
X0059881Y0059848D01*
X0059881Y0057461D01*
X0058193Y0055773D01*
X0055807Y0055773D01*
X0054826Y0056755D01*
X0036213Y0056755D01*
X0035100Y0057868D01*
X0031213Y0061755D01*
X0023651Y0061755D01*
X0023476Y0061332D01*
X0022322Y0060179D01*
X0020816Y0059555D01*
X0013184Y0059555D01*
X0013090Y0059594D02*
X0009050Y0059594D01*
X0009050Y0060592D02*
X0011264Y0060592D01*
X0010417Y0061591D02*
X0009050Y0061591D01*
X0009050Y0062589D02*
X0010004Y0062589D01*
X0009900Y0063588D02*
X0009050Y0063588D01*
X0009050Y0064586D02*
X0009948Y0064586D01*
X0010362Y0065585D02*
X0009050Y0065585D01*
X0009050Y0066583D02*
X0011130Y0066583D01*
X0012767Y0067582D02*
X0009050Y0067582D01*
X0009050Y0068580D02*
X0082229Y0068580D01*
X0082234Y0067582D02*
X0021233Y0067582D01*
X0022870Y0066583D02*
X0082240Y0066583D01*
X0082245Y0065585D02*
X0023638Y0065585D01*
X0023583Y0061591D02*
X0031377Y0061591D01*
X0032376Y0060592D02*
X0022736Y0060592D01*
X0020910Y0059594D02*
X0033374Y0059594D01*
X0034373Y0058595D02*
X0009050Y0058595D01*
X0009031Y0047611D02*
X0011854Y0047611D01*
X0010594Y0046613D02*
X0008981Y0046613D01*
X0008940Y0045614D02*
X0009948Y0045614D01*
X0009596Y0044616D02*
X0009039Y0044616D01*
X0009145Y0043617D02*
X0016500Y0043617D01*
X0016500Y0042619D02*
X0017500Y0042619D01*
X0017500Y0041620D02*
X0016500Y0041620D01*
X0016500Y0040622D02*
X0017500Y0040622D01*
X0017500Y0039623D02*
X0016500Y0039623D01*
X0012000Y0039623D02*
X0009743Y0039623D01*
X0009464Y0040622D02*
X0010669Y0040622D01*
X0009986Y0041620D02*
X0009358Y0041620D01*
X0009252Y0042619D02*
X0009608Y0042619D01*
X0022146Y0047611D02*
X0082342Y0047611D01*
X0082347Y0046613D02*
X0023406Y0046613D01*
X0024052Y0045614D02*
X0082352Y0045614D01*
X0082358Y0044616D02*
X0024404Y0044616D01*
X0022751Y0050607D02*
X0082326Y0050607D01*
X0082320Y0051605D02*
X0066525Y0051605D01*
X0067381Y0052604D02*
X0082315Y0052604D01*
X0082309Y0053602D02*
X0067381Y0053602D01*
X0067381Y0054601D02*
X0082304Y0054601D01*
X0082299Y0055600D02*
X0066630Y0055600D01*
X0062370Y0055600D02*
X0023632Y0055600D01*
X0022855Y0056598D02*
X0054982Y0056598D01*
X0054863Y0060592D02*
X0037750Y0060592D01*
X0036751Y0061591D02*
X0082266Y0061591D01*
X0082261Y0062589D02*
X0035752Y0062589D01*
X0034754Y0063588D02*
X0082256Y0063588D01*
X0082250Y0064586D02*
X0033755Y0064586D01*
X0035371Y0057597D02*
X0021197Y0057597D01*
X0023589Y0051605D02*
X0062475Y0051605D01*
X0059018Y0056598D02*
X0082293Y0056598D01*
X0082288Y0057597D02*
X0059881Y0057597D01*
X0059881Y0058595D02*
X0082283Y0058595D01*
X0082277Y0059594D02*
X0059881Y0059594D01*
X0059137Y0060592D02*
X0082272Y0060592D01*
X0082224Y0069579D02*
X0020874Y0069579D01*
X0020816Y0069555D02*
X0022322Y0070179D01*
X0023476Y0071332D01*
X0024100Y0072839D01*
X0024100Y0074470D01*
X0023476Y0075977D01*
X0022322Y0077130D01*
X0020816Y0077755D01*
X0013184Y0077755D01*
X0011678Y0077130D01*
X0010524Y0075977D01*
X0009900Y0074470D01*
X0009900Y0072839D01*
X0010524Y0071332D01*
X0011678Y0070179D01*
X0013184Y0069555D01*
X0020816Y0069555D01*
X0022721Y0070577D02*
X0082218Y0070577D01*
X0082213Y0071576D02*
X0023577Y0071576D01*
X0023990Y0072574D02*
X0082207Y0072574D01*
X0082202Y0073573D02*
X0024100Y0073573D01*
X0024058Y0074571D02*
X0082197Y0074571D01*
X0082191Y0075570D02*
X0023645Y0075570D01*
X0022885Y0076568D02*
X0082186Y0076568D01*
X0082181Y0077567D02*
X0062392Y0077567D01*
X0061707Y0077283D02*
X0063130Y0077872D01*
X0064219Y0078961D01*
X0064809Y0080384D01*
X0064809Y0081925D01*
X0064219Y0083348D01*
X0063130Y0084437D01*
X0061707Y0085026D01*
X0060167Y0085026D01*
X0058744Y0084437D01*
X0057655Y0083348D01*
X0057199Y0082248D01*
X0057022Y0082794D01*
X0056716Y0083393D01*
X0056321Y0083937D01*
X0055846Y0084413D01*
X0055302Y0084808D01*
X0054703Y0085113D01*
X0054063Y0085321D01*
X0053449Y0085418D01*
X0053449Y0081540D01*
X0052677Y0081540D01*
X0052677Y0080769D01*
X0048799Y0080769D01*
X0048897Y0080154D01*
X0049104Y0079515D01*
X0049410Y0078916D01*
X0049805Y0078372D01*
X0050280Y0077896D01*
X0050824Y0077501D01*
X0051423Y0077196D01*
X0052063Y0076988D01*
X0052677Y0076891D01*
X0052677Y0080769D01*
X0053449Y0080769D01*
X0053449Y0076891D01*
X0054063Y0076988D01*
X0054703Y0077196D01*
X0055302Y0077501D01*
X0055846Y0077896D01*
X0056321Y0078372D01*
X0056716Y0078916D01*
X0057022Y0079515D01*
X0057199Y0080061D01*
X0057655Y0078961D01*
X0058744Y0077872D01*
X0060167Y0077283D01*
X0061707Y0077283D01*
X0059482Y0077567D02*
X0055392Y0077567D01*
X0056462Y0078565D02*
X0058051Y0078565D01*
X0057405Y0079564D02*
X0057038Y0079564D01*
X0053449Y0079564D02*
X0052677Y0079564D01*
X0052677Y0080562D02*
X0053449Y0080562D01*
X0053449Y0081561D02*
X0052677Y0081561D01*
X0052677Y0081540D02*
X0052677Y0085418D01*
X0052063Y0085321D01*
X0051423Y0085113D01*
X0050824Y0084808D01*
X0050280Y0084413D01*
X0049805Y0083937D01*
X0049410Y0083393D01*
X0049104Y0082794D01*
X0048897Y0082155D01*
X0048799Y0081540D01*
X0052677Y0081540D01*
X0052677Y0082559D02*
X0053449Y0082559D01*
X0053449Y0083558D02*
X0052677Y0083558D01*
X0052677Y0084556D02*
X0053449Y0084556D01*
X0055648Y0084556D02*
X0059032Y0084556D01*
X0057865Y0083558D02*
X0056597Y0083558D01*
X0057098Y0082559D02*
X0057328Y0082559D01*
X0053449Y0078565D02*
X0052677Y0078565D01*
X0052677Y0077567D02*
X0053449Y0077567D01*
X0050734Y0077567D02*
X0021269Y0077567D01*
X0012731Y0077567D02*
X0009050Y0077567D01*
X0009050Y0078565D02*
X0049664Y0078565D01*
X0049088Y0079564D02*
X0009050Y0079564D01*
X0009050Y0080562D02*
X0048832Y0080562D01*
X0048802Y0081561D02*
X0009050Y0081561D01*
X0009050Y0082559D02*
X0049028Y0082559D01*
X0049529Y0083558D02*
X0009050Y0083558D01*
X0009050Y0084556D02*
X0050478Y0084556D01*
X0062842Y0084556D02*
X0082143Y0084556D01*
X0082148Y0083558D02*
X0064009Y0083558D01*
X0064546Y0082559D02*
X0082154Y0082559D01*
X0082159Y0081561D02*
X0064809Y0081561D01*
X0064809Y0080562D02*
X0082164Y0080562D01*
X0082170Y0079564D02*
X0064469Y0079564D01*
X0063823Y0078565D02*
X0082175Y0078565D01*
X0082138Y0085555D02*
X0009050Y0085555D01*
X0009050Y0086553D02*
X0082132Y0086553D01*
X0082127Y0087552D02*
X0009050Y0087552D01*
X0009050Y0088550D02*
X0082122Y0088550D01*
X0082116Y0089549D02*
X0009050Y0089549D01*
X0009050Y0090547D02*
X0082111Y0090547D01*
X0082105Y0091546D02*
X0009050Y0091546D01*
X0009050Y0092544D02*
X0082100Y0092544D01*
X0082095Y0093543D02*
X0021621Y0093543D01*
X0021596Y0093518D02*
X0022637Y0094559D01*
X0023200Y0095919D01*
X0023200Y0097391D01*
X0022637Y0098750D01*
X0021596Y0099791D01*
X0020236Y0100355D01*
X0018764Y0100355D01*
X0017404Y0099791D01*
X0016363Y0098750D01*
X0015800Y0097391D01*
X0015800Y0095919D01*
X0016363Y0094559D01*
X0017404Y0093518D01*
X0018764Y0092955D01*
X0020236Y0092955D01*
X0021596Y0093518D01*
X0022619Y0094541D02*
X0082089Y0094541D01*
X0082084Y0095540D02*
X0023043Y0095540D01*
X0023200Y0096538D02*
X0082079Y0096538D01*
X0082073Y0097537D02*
X0023139Y0097537D01*
X0022726Y0098535D02*
X0082068Y0098535D01*
X0082062Y0099534D02*
X0021853Y0099534D01*
X0017147Y0099534D02*
X0009050Y0099534D01*
X0009050Y0098535D02*
X0016274Y0098535D01*
X0015861Y0097537D02*
X0009050Y0097537D01*
X0009050Y0096538D02*
X0015800Y0096538D01*
X0015957Y0095540D02*
X0009050Y0095540D01*
X0009050Y0094541D02*
X0016381Y0094541D01*
X0017379Y0093543D02*
X0009050Y0093543D01*
X0009050Y0100533D02*
X0082057Y0100533D01*
X0082052Y0101531D02*
X0009050Y0101531D01*
X0009050Y0102530D02*
X0082046Y0102530D01*
X0082041Y0103528D02*
X0009050Y0103528D01*
X0009050Y0104527D02*
X0082036Y0104527D01*
X0082030Y0105525D02*
X0009050Y0105525D01*
X0009050Y0106524D02*
X0082025Y0106524D01*
X0082020Y0107522D02*
X0009050Y0107522D01*
X0009050Y0108521D02*
X0082014Y0108521D01*
X0082009Y0109519D02*
X0009050Y0109519D01*
X0009050Y0110518D02*
X0082003Y0110518D01*
X0082482Y0111516D02*
X0009050Y0111516D01*
X0009050Y0112515D02*
X0017412Y0112515D01*
X0017404Y0112518D02*
X0018764Y0111955D01*
X0020236Y0111955D01*
X0021596Y0112518D01*
X0022637Y0113559D01*
X0023200Y0114919D01*
X0023200Y0116391D01*
X0022637Y0117750D01*
X0021596Y0118791D01*
X0020236Y0119355D01*
X0018764Y0119355D01*
X0017404Y0118791D01*
X0016363Y0117750D01*
X0015800Y0116391D01*
X0015800Y0114919D01*
X0016363Y0113559D01*
X0017404Y0112518D01*
X0016409Y0113513D02*
X0009050Y0113513D01*
X0009050Y0114512D02*
X0015969Y0114512D01*
X0015800Y0115510D02*
X0009050Y0115510D01*
X0009050Y0116509D02*
X0015849Y0116509D01*
X0016263Y0117507D02*
X0009050Y0117507D01*
X0009050Y0118506D02*
X0017119Y0118506D01*
X0021881Y0118506D02*
X0091802Y0118506D01*
X0093133Y0119504D02*
X0009050Y0119504D01*
X0009050Y0120503D02*
X0094464Y0120503D01*
X0095796Y0121501D02*
X0009050Y0121501D01*
X0009050Y0122500D02*
X0097127Y0122500D01*
X0098458Y0123498D02*
X0009050Y0123498D01*
X0009050Y0124497D02*
X0099790Y0124497D01*
X0101121Y0125495D02*
X0009050Y0125495D01*
X0009050Y0126494D02*
X0121989Y0126494D01*
X0121974Y0127492D02*
X0009050Y0127492D01*
X0009050Y0128491D02*
X0121959Y0128491D01*
X0121944Y0129489D02*
X0009050Y0129489D01*
X0009050Y0130488D02*
X0121928Y0130488D01*
X0121913Y0131486D02*
X0009050Y0131486D01*
X0009050Y0132485D02*
X0121898Y0132485D01*
X0121883Y0133483D02*
X0009050Y0133483D01*
X0009050Y0134482D02*
X0121868Y0134482D01*
X0121853Y0135480D02*
X0009050Y0135480D01*
X0009050Y0136479D02*
X0121838Y0136479D01*
X0121823Y0137477D02*
X0009050Y0137477D01*
X0009050Y0138476D02*
X0121807Y0138476D01*
X0121792Y0139474D02*
X0009050Y0139474D01*
X0009050Y0140473D02*
X0121777Y0140473D01*
X0121762Y0141471D02*
X0009050Y0141471D01*
X0009050Y0142470D02*
X0121747Y0142470D01*
X0121732Y0143469D02*
X0009050Y0143469D01*
X0009050Y0144467D02*
X0121717Y0144467D01*
X0121702Y0145466D02*
X0009050Y0145466D01*
X0009050Y0146464D02*
X0121686Y0146464D01*
X0121671Y0147463D02*
X0009050Y0147463D01*
X0009050Y0148461D02*
X0121656Y0148461D01*
X0121641Y0149460D02*
X0009050Y0149460D01*
X0009050Y0150458D02*
X0121626Y0150458D01*
X0121611Y0151457D02*
X0009050Y0151457D01*
X0009050Y0152455D02*
X0121596Y0152455D01*
X0121581Y0153454D02*
X0058194Y0153454D01*
X0057955Y0153355D02*
X0059719Y0154085D01*
X0061069Y0155436D01*
X0061800Y0157200D01*
X0061800Y0159109D01*
X0061069Y0160874D01*
X0059719Y0162224D01*
X0057955Y0162955D01*
X0056045Y0162955D01*
X0054281Y0162224D01*
X0052931Y0160874D01*
X0052200Y0159109D01*
X0052200Y0157200D01*
X0052931Y0155436D01*
X0054281Y0154085D01*
X0056045Y0153355D01*
X0057955Y0153355D01*
X0055806Y0153454D02*
X0038194Y0153454D01*
X0037955Y0153355D02*
X0039719Y0154085D01*
X0041069Y0155436D01*
X0041800Y0157200D01*
X0041800Y0159109D01*
X0041069Y0160874D01*
X0039719Y0162224D01*
X0037955Y0162955D01*
X0036045Y0162955D01*
X0034281Y0162224D01*
X0032931Y0160874D01*
X0032200Y0159109D01*
X0032200Y0157200D01*
X0032931Y0155436D01*
X0034281Y0154085D01*
X0036045Y0153355D01*
X0037955Y0153355D01*
X0035806Y0153454D02*
X0009050Y0153454D01*
X0009050Y0154452D02*
X0024775Y0154452D01*
X0025004Y0154336D02*
X0025782Y0154083D01*
X0026500Y0153969D01*
X0026500Y0158655D01*
X0021814Y0158655D01*
X0021928Y0157937D01*
X0022181Y0157158D01*
X0022553Y0156429D01*
X0023034Y0155767D01*
X0023612Y0155188D01*
X0024275Y0154707D01*
X0025004Y0154336D01*
X0026500Y0154452D02*
X0027500Y0154452D01*
X0027500Y0153969D02*
X0028218Y0154083D01*
X0028996Y0154336D01*
X0029725Y0154707D01*
X0030388Y0155188D01*
X0030966Y0155767D01*
X0031447Y0156429D01*
X0031819Y0157158D01*
X0032072Y0157937D01*
X0032186Y0158655D01*
X0027500Y0158655D01*
X0027500Y0159655D01*
X0026500Y0159655D01*
X0026500Y0164340D01*
X0025782Y0164227D01*
X0025004Y0163974D01*
X0024275Y0163602D01*
X0023612Y0163121D01*
X0023034Y0162542D01*
X0022553Y0161880D01*
X0022181Y0161151D01*
X0021928Y0160372D01*
X0021814Y0159655D01*
X0026500Y0159655D01*
X0026500Y0158655D01*
X0027500Y0158655D01*
X0027500Y0153969D01*
X0027500Y0155451D02*
X0026500Y0155451D01*
X0026500Y0156449D02*
X0027500Y0156449D01*
X0027500Y0157448D02*
X0026500Y0157448D01*
X0026500Y0158446D02*
X0027500Y0158446D01*
X0027500Y0159445D02*
X0032339Y0159445D01*
X0032186Y0159655D02*
X0032072Y0160372D01*
X0031819Y0161151D01*
X0031447Y0161880D01*
X0030966Y0162542D01*
X0030388Y0163121D01*
X0029725Y0163602D01*
X0028996Y0163974D01*
X0028218Y0164227D01*
X0027500Y0164340D01*
X0027500Y0159655D01*
X0032186Y0159655D01*
X0032049Y0160443D02*
X0032752Y0160443D01*
X0033499Y0161442D02*
X0031671Y0161442D01*
X0031040Y0162440D02*
X0034803Y0162440D01*
X0039197Y0162440D02*
X0043497Y0162440D01*
X0042931Y0161874D02*
X0042200Y0160109D01*
X0042200Y0158200D01*
X0042931Y0156436D01*
X0044281Y0155085D01*
X0046045Y0154355D01*
X0047955Y0154355D01*
X0049719Y0155085D01*
X0051069Y0156436D01*
X0051800Y0158200D01*
X0051800Y0160109D01*
X0051069Y0161874D01*
X0049719Y0163224D01*
X0047955Y0163955D01*
X0046045Y0163955D01*
X0044281Y0163224D01*
X0042931Y0161874D01*
X0042752Y0161442D02*
X0040501Y0161442D01*
X0041248Y0160443D02*
X0042338Y0160443D01*
X0042200Y0159445D02*
X0041661Y0159445D01*
X0041800Y0158446D02*
X0042200Y0158446D01*
X0042512Y0157448D02*
X0041800Y0157448D01*
X0041489Y0156449D02*
X0042925Y0156449D01*
X0043916Y0155451D02*
X0041075Y0155451D01*
X0040086Y0154452D02*
X0045810Y0154452D01*
X0048190Y0154452D02*
X0053914Y0154452D01*
X0052925Y0155451D02*
X0050084Y0155451D01*
X0051075Y0156449D02*
X0052511Y0156449D01*
X0052200Y0157448D02*
X0051488Y0157448D01*
X0051800Y0158446D02*
X0052200Y0158446D01*
X0052339Y0159445D02*
X0051800Y0159445D01*
X0051662Y0160443D02*
X0052752Y0160443D01*
X0053499Y0161442D02*
X0051248Y0161442D01*
X0050503Y0162440D02*
X0054803Y0162440D01*
X0049200Y0163439D02*
X0064800Y0163439D01*
X0064281Y0163224D02*
X0062931Y0161874D01*
X0062200Y0160109D01*
X0062200Y0158200D01*
X0062931Y0156436D01*
X0064281Y0155085D01*
X0066045Y0154355D01*
X0067955Y0154355D01*
X0069719Y0155085D01*
X0071069Y0156436D01*
X0071800Y0158200D01*
X0071800Y0160109D01*
X0071069Y0161874D01*
X0069719Y0163224D01*
X0067955Y0163955D01*
X0066045Y0163955D01*
X0064281Y0163224D01*
X0063497Y0162440D02*
X0059197Y0162440D01*
X0060501Y0161442D02*
X0062752Y0161442D01*
X0062338Y0160443D02*
X0061248Y0160443D01*
X0061661Y0159445D02*
X0062200Y0159445D01*
X0062200Y0158446D02*
X0061800Y0158446D01*
X0061800Y0157448D02*
X0062512Y0157448D01*
X0062925Y0156449D02*
X0061489Y0156449D01*
X0061075Y0155451D02*
X0063916Y0155451D01*
X0065810Y0154452D02*
X0060086Y0154452D01*
X0068190Y0154452D02*
X0121565Y0154452D01*
X0121550Y0155451D02*
X0070084Y0155451D01*
X0071075Y0156449D02*
X0121535Y0156449D01*
X0121520Y0157448D02*
X0071488Y0157448D01*
X0071800Y0158446D02*
X0121505Y0158446D01*
X0121490Y0159445D02*
X0071800Y0159445D01*
X0071662Y0160443D02*
X0121475Y0160443D01*
X0121460Y0161442D02*
X0071248Y0161442D01*
X0070503Y0162440D02*
X0121444Y0162440D01*
X0121429Y0163439D02*
X0069200Y0163439D01*
X0044800Y0163439D02*
X0029950Y0163439D01*
X0027500Y0163439D02*
X0026500Y0163439D01*
X0026500Y0162440D02*
X0027500Y0162440D01*
X0027500Y0161442D02*
X0026500Y0161442D01*
X0026500Y0160443D02*
X0027500Y0160443D01*
X0026500Y0159445D02*
X0009050Y0159445D01*
X0009050Y0160443D02*
X0021951Y0160443D01*
X0022329Y0161442D02*
X0009050Y0161442D01*
X0009050Y0162440D02*
X0022960Y0162440D01*
X0024050Y0163439D02*
X0009050Y0163439D01*
X0009050Y0164437D02*
X0121414Y0164437D01*
X0121399Y0165436D02*
X0009050Y0165436D01*
X0009050Y0166434D02*
X0121384Y0166434D01*
X0090470Y0117507D02*
X0022737Y0117507D01*
X0023151Y0116509D02*
X0089139Y0116509D01*
X0087807Y0115510D02*
X0023200Y0115510D01*
X0023031Y0114512D02*
X0086476Y0114512D01*
X0085145Y0113513D02*
X0022591Y0113513D01*
X0021588Y0112515D02*
X0083813Y0112515D01*
X0033914Y0154452D02*
X0029225Y0154452D01*
X0030650Y0155451D02*
X0032925Y0155451D01*
X0032511Y0156449D02*
X0031458Y0156449D01*
X0031913Y0157448D02*
X0032200Y0157448D01*
X0032200Y0158446D02*
X0032153Y0158446D01*
X0023350Y0155451D02*
X0009050Y0155451D01*
X0009050Y0156449D02*
X0022542Y0156449D01*
X0022087Y0157448D02*
X0009050Y0157448D01*
X0009050Y0158446D02*
X0021847Y0158446D01*
X0011115Y0076568D02*
X0009050Y0076568D01*
X0009050Y0075570D02*
X0010355Y0075570D01*
X0009942Y0074571D02*
X0009050Y0074571D01*
X0009050Y0073573D02*
X0009900Y0073573D01*
X0010010Y0072574D02*
X0009050Y0072574D01*
X0009050Y0071576D02*
X0010423Y0071576D01*
X0011279Y0070577D02*
X0009050Y0070577D01*
X0009050Y0069579D02*
X0013126Y0069579D01*
X0081875Y0033632D02*
X0082125Y0033632D01*
X0082125Y0032634D02*
X0081875Y0032634D01*
X0081875Y0031635D02*
X0082125Y0031635D01*
X0082125Y0030637D02*
X0081875Y0030637D01*
X0081875Y0029638D02*
X0082125Y0029638D01*
X0082125Y0028640D02*
X0081875Y0028640D01*
D18*
X0064500Y0041155D03*
X0064500Y0053655D03*
X0057000Y0058655D03*
X0035750Y0073655D03*
X0034500Y0084905D03*
X0070750Y0081155D03*
X0102000Y0086155D03*
X0125750Y0089905D03*
X0134500Y0086155D03*
X0109500Y0118655D03*
X0094500Y0133655D03*
X0075750Y0129905D03*
X0048250Y0128655D03*
X0033250Y0126155D03*
X0108250Y0157405D03*
X0142000Y0134905D03*
X0134500Y0126155D03*
X0168250Y0159905D03*
X0113250Y0037405D03*
D19*
X0132373Y0045668D02*
X0134013Y0044028D01*
X0136155Y0043140D01*
X0138474Y0043140D01*
X0140617Y0044028D01*
X0142257Y0045668D01*
X0142630Y0046569D01*
X0143003Y0045668D01*
X0144643Y0044028D01*
X0146785Y0043140D01*
X0149104Y0043140D01*
X0151247Y0044028D01*
X0152887Y0045668D01*
X0153252Y0046549D01*
X0153365Y0046277D01*
X0154701Y0044940D01*
X0156448Y0044217D01*
X0158339Y0044217D01*
X0160086Y0044940D01*
X0161423Y0046277D01*
X0161536Y0046549D01*
X0161901Y0045668D01*
X0163541Y0044028D01*
X0165683Y0043140D01*
X0168002Y0043140D01*
X0170144Y0044028D01*
X0171784Y0045668D01*
X0172157Y0046569D01*
X0172531Y0045668D01*
X0174170Y0044028D01*
X0176313Y0043140D01*
X0178632Y0043140D01*
X0180774Y0044028D01*
X0182414Y0045668D01*
X0183302Y0047810D01*
X0183302Y0050129D01*
X0182414Y0052271D01*
X0180774Y0053911D01*
X0178632Y0054799D01*
X0176313Y0054799D01*
X0174170Y0053911D01*
X0172531Y0052271D01*
X0172157Y0051370D01*
X0171784Y0052271D01*
X0170144Y0053911D01*
X0168002Y0054799D01*
X0165683Y0054799D01*
X0163541Y0053911D01*
X0161901Y0052271D01*
X0161536Y0051390D01*
X0161423Y0051662D01*
X0160086Y0052999D01*
X0158339Y0053722D01*
X0156448Y0053722D01*
X0154701Y0052999D01*
X0153365Y0051662D01*
X0153252Y0051390D01*
X0152887Y0052271D01*
X0151247Y0053911D01*
X0149104Y0054799D01*
X0146785Y0054799D01*
X0144643Y0053911D01*
X0143003Y0052271D01*
X0142630Y0051370D01*
X0142257Y0052271D01*
X0140617Y0053911D01*
X0138474Y0054799D01*
X0136155Y0054799D01*
X0134013Y0053911D01*
X0132373Y0052271D01*
X0131486Y0050129D01*
X0131486Y0047810D01*
X0132373Y0045668D01*
X0132306Y0045829D02*
X0087000Y0045829D01*
X0087000Y0044231D02*
X0133810Y0044231D01*
X0131644Y0047428D02*
X0087000Y0047428D01*
X0087000Y0049026D02*
X0131486Y0049026D01*
X0131691Y0050625D02*
X0087000Y0050625D01*
X0087000Y0052223D02*
X0132353Y0052223D01*
X0133924Y0053822D02*
X0087000Y0053822D01*
X0087000Y0055420D02*
X0200650Y0055420D01*
X0200650Y0053822D02*
X0180864Y0053822D01*
X0182434Y0052223D02*
X0200650Y0052223D01*
X0200650Y0050625D02*
X0183096Y0050625D01*
X0183302Y0049026D02*
X0200650Y0049026D01*
X0200650Y0047428D02*
X0183143Y0047428D01*
X0182481Y0045829D02*
X0200650Y0045829D01*
X0200650Y0044231D02*
X0180977Y0044231D01*
X0173968Y0044231D02*
X0170347Y0044231D01*
X0171851Y0045829D02*
X0172464Y0045829D01*
X0172511Y0052223D02*
X0171804Y0052223D01*
X0170234Y0053822D02*
X0174081Y0053822D01*
X0163451Y0053822D02*
X0151336Y0053822D01*
X0152907Y0052223D02*
X0153926Y0052223D01*
X0160861Y0052223D02*
X0161881Y0052223D01*
X0161834Y0045829D02*
X0160975Y0045829D01*
X0163338Y0044231D02*
X0158373Y0044231D01*
X0156415Y0044231D02*
X0151450Y0044231D01*
X0152954Y0045829D02*
X0153813Y0045829D01*
X0144440Y0044231D02*
X0140820Y0044231D01*
X0142324Y0045829D02*
X0142936Y0045829D01*
X0142983Y0052223D02*
X0142277Y0052223D01*
X0140706Y0053822D02*
X0144554Y0053822D01*
X0154380Y0035396D02*
X0155203Y0035737D01*
X0156064Y0035968D01*
X0156717Y0036054D01*
X0156717Y0029961D01*
X0156717Y0028608D01*
X0150624Y0028608D01*
X0150710Y0027955D01*
X0150941Y0027094D01*
X0151282Y0026270D01*
X0151728Y0025499D01*
X0152270Y0024791D01*
X0152901Y0024161D01*
X0153608Y0023618D01*
X0154380Y0023173D01*
X0155203Y0022832D01*
X0156064Y0022601D01*
X0156717Y0022515D01*
X0156717Y0028608D01*
X0158070Y0028608D01*
X0158070Y0022515D01*
X0158723Y0022601D01*
X0159584Y0022832D01*
X0160408Y0023173D01*
X0161180Y0023618D01*
X0161887Y0024161D01*
X0162517Y0024791D01*
X0163060Y0025499D01*
X0163506Y0026270D01*
X0163847Y0027094D01*
X0164077Y0027955D01*
X0164163Y0028608D01*
X0158070Y0028608D01*
X0158070Y0029961D01*
X0156717Y0029961D01*
X0150624Y0029961D01*
X0150710Y0030614D01*
X0150941Y0031475D01*
X0151282Y0032299D01*
X0151728Y0033070D01*
X0152270Y0033778D01*
X0152901Y0034408D01*
X0153608Y0034951D01*
X0154380Y0035396D01*
X0153203Y0034640D02*
X0087000Y0034640D01*
X0087000Y0034205D02*
X0087000Y0031155D01*
X0087000Y0108655D01*
X0104500Y0121155D01*
X0127000Y0121155D01*
X0127000Y0166155D01*
X0200650Y0166155D01*
X0200650Y0043922D01*
X0200577Y0043831D01*
X0200650Y0043171D01*
X0200650Y0042506D01*
X0200694Y0042462D01*
X0200788Y0040728D01*
X0200254Y0036078D01*
X0198698Y0031662D01*
X0196199Y0027704D01*
X0192882Y0024400D01*
X0188913Y0021918D01*
X0184491Y0020381D01*
X0182245Y0020005D01*
X0087000Y0020005D01*
X0087000Y0031154D01*
X0087000Y0028105D01*
X0089737Y0028105D01*
X0090195Y0028227D01*
X0090605Y0028464D01*
X0090940Y0028799D01*
X0091177Y0029210D01*
X0091300Y0029668D01*
X0091300Y0031155D01*
X0091300Y0032642D01*
X0091177Y0033099D01*
X0090940Y0033510D01*
X0090605Y0033845D01*
X0090195Y0034082D01*
X0089737Y0034205D01*
X0087000Y0034205D01*
X0087000Y0033041D02*
X0087000Y0033041D01*
X0087000Y0031443D02*
X0087000Y0031443D01*
X0087000Y0031155D02*
X0087000Y0031155D01*
X0091300Y0031155D01*
X0087000Y0031155D01*
X0087000Y0031155D01*
X0087000Y0031154D02*
X0087000Y0031154D01*
X0087000Y0029844D02*
X0087000Y0029844D01*
X0087000Y0028246D02*
X0087000Y0028246D01*
X0087000Y0026647D02*
X0133657Y0026647D01*
X0133679Y0026592D02*
X0135016Y0025255D01*
X0136763Y0024532D01*
X0138654Y0024532D01*
X0140401Y0025255D01*
X0141738Y0026592D01*
X0142461Y0028339D01*
X0142461Y0030230D01*
X0141738Y0031977D01*
X0140401Y0033314D01*
X0138654Y0034037D01*
X0136763Y0034037D01*
X0135016Y0033314D01*
X0133679Y0031977D01*
X0132956Y0030230D01*
X0132956Y0028339D01*
X0133679Y0026592D01*
X0132995Y0028246D02*
X0090227Y0028246D01*
X0091300Y0029844D02*
X0132956Y0029844D01*
X0133458Y0031443D02*
X0091300Y0031443D01*
X0091193Y0033041D02*
X0134744Y0033041D01*
X0140673Y0033041D02*
X0151711Y0033041D01*
X0150932Y0031443D02*
X0141959Y0031443D01*
X0142461Y0029844D02*
X0156717Y0029844D01*
X0158070Y0029844D02*
X0172326Y0029844D01*
X0172326Y0030230D02*
X0172326Y0028339D01*
X0173050Y0026592D01*
X0174387Y0025255D01*
X0176133Y0024532D01*
X0178024Y0024532D01*
X0179771Y0025255D01*
X0181108Y0026592D01*
X0181831Y0028339D01*
X0181831Y0030230D01*
X0181108Y0031977D01*
X0179771Y0033314D01*
X0178024Y0034037D01*
X0176133Y0034037D01*
X0174387Y0033314D01*
X0173050Y0031977D01*
X0172326Y0030230D01*
X0172828Y0031443D02*
X0163855Y0031443D01*
X0163847Y0031475D02*
X0163506Y0032299D01*
X0163060Y0033070D01*
X0162517Y0033778D01*
X0161887Y0034408D01*
X0161180Y0034951D01*
X0160408Y0035396D01*
X0159584Y0035737D01*
X0158723Y0035968D01*
X0158070Y0036054D01*
X0158070Y0029961D01*
X0164163Y0029961D01*
X0164077Y0030614D01*
X0163847Y0031475D01*
X0163077Y0033041D02*
X0174114Y0033041D01*
X0172365Y0028246D02*
X0164116Y0028246D01*
X0163662Y0026647D02*
X0173027Y0026647D01*
X0174885Y0025049D02*
X0162715Y0025049D01*
X0160888Y0023450D02*
X0191363Y0023450D01*
X0193533Y0025049D02*
X0179272Y0025049D01*
X0181131Y0026647D02*
X0195138Y0026647D01*
X0196541Y0028246D02*
X0181793Y0028246D01*
X0181831Y0029844D02*
X0197551Y0029844D01*
X0198560Y0031443D02*
X0181329Y0031443D01*
X0180043Y0033041D02*
X0199184Y0033041D01*
X0199747Y0034640D02*
X0161585Y0034640D01*
X0158070Y0034640D02*
X0156717Y0034640D01*
X0156717Y0033041D02*
X0158070Y0033041D01*
X0158070Y0031443D02*
X0156717Y0031443D01*
X0156717Y0028246D02*
X0158070Y0028246D01*
X0158070Y0026647D02*
X0156717Y0026647D01*
X0156717Y0025049D02*
X0158070Y0025049D01*
X0158070Y0023450D02*
X0156717Y0023450D01*
X0153899Y0023450D02*
X0087000Y0023450D01*
X0087000Y0021852D02*
X0188722Y0021852D01*
X0183727Y0020253D02*
X0087000Y0020253D01*
X0087000Y0025049D02*
X0135515Y0025049D01*
X0139902Y0025049D02*
X0152073Y0025049D01*
X0151126Y0026647D02*
X0141761Y0026647D01*
X0142423Y0028246D02*
X0150672Y0028246D01*
X0200272Y0036238D02*
X0087000Y0036238D01*
X0087000Y0037837D02*
X0200456Y0037837D01*
X0200639Y0039435D02*
X0087000Y0039435D01*
X0087000Y0041034D02*
X0200771Y0041034D01*
X0200650Y0042632D02*
X0087000Y0042632D01*
X0087000Y0057019D02*
X0200650Y0057019D01*
X0200650Y0058617D02*
X0087000Y0058617D01*
X0087000Y0060216D02*
X0200650Y0060216D01*
X0200650Y0061814D02*
X0087000Y0061814D01*
X0087000Y0063413D02*
X0200650Y0063413D01*
X0200650Y0065011D02*
X0087000Y0065011D01*
X0087000Y0066610D02*
X0200650Y0066610D01*
X0200650Y0068208D02*
X0087000Y0068208D01*
X0087000Y0069807D02*
X0200650Y0069807D01*
X0200650Y0071405D02*
X0087000Y0071405D01*
X0087000Y0073004D02*
X0200650Y0073004D01*
X0200650Y0074602D02*
X0087000Y0074602D01*
X0087000Y0076201D02*
X0200650Y0076201D01*
X0200650Y0077800D02*
X0087000Y0077800D01*
X0087000Y0079398D02*
X0200650Y0079398D01*
X0200650Y0080997D02*
X0087000Y0080997D01*
X0087000Y0082595D02*
X0200650Y0082595D01*
X0200650Y0084194D02*
X0087000Y0084194D01*
X0087000Y0085792D02*
X0200650Y0085792D01*
X0200650Y0087391D02*
X0087000Y0087391D01*
X0087000Y0088989D02*
X0200650Y0088989D01*
X0200650Y0090588D02*
X0087000Y0090588D01*
X0087000Y0092186D02*
X0200650Y0092186D01*
X0200650Y0093785D02*
X0087000Y0093785D01*
X0087000Y0095383D02*
X0200650Y0095383D01*
X0200650Y0096982D02*
X0087000Y0096982D01*
X0087000Y0098580D02*
X0200650Y0098580D01*
X0200650Y0100179D02*
X0087000Y0100179D01*
X0087000Y0101777D02*
X0200650Y0101777D01*
X0200650Y0103376D02*
X0087000Y0103376D01*
X0087000Y0104974D02*
X0200650Y0104974D01*
X0200650Y0106573D02*
X0087000Y0106573D01*
X0087000Y0108171D02*
X0200650Y0108171D01*
X0200650Y0109770D02*
X0088561Y0109770D01*
X0090799Y0111368D02*
X0200650Y0111368D01*
X0200650Y0112967D02*
X0093037Y0112967D01*
X0095275Y0114565D02*
X0200650Y0114565D01*
X0200650Y0116164D02*
X0097513Y0116164D01*
X0099751Y0117762D02*
X0200650Y0117762D01*
X0200650Y0119361D02*
X0101989Y0119361D01*
X0104227Y0120959D02*
X0200650Y0120959D01*
X0200650Y0122558D02*
X0127000Y0122558D01*
X0127000Y0124156D02*
X0200650Y0124156D01*
X0200650Y0125755D02*
X0127000Y0125755D01*
X0127000Y0127353D02*
X0200650Y0127353D01*
X0200650Y0128952D02*
X0127000Y0128952D01*
X0127000Y0130550D02*
X0200650Y0130550D01*
X0200650Y0132149D02*
X0189327Y0132149D01*
X0189992Y0132424D02*
X0188375Y0131755D01*
X0180625Y0131755D01*
X0179008Y0132424D01*
X0177770Y0133662D01*
X0177100Y0135279D01*
X0177100Y0137030D01*
X0177770Y0138647D01*
X0179008Y0139885D01*
X0180625Y0140555D01*
X0188375Y0140555D01*
X0189992Y0139885D01*
X0191230Y0138647D01*
X0191900Y0137030D01*
X0191900Y0135279D01*
X0191230Y0133662D01*
X0189992Y0132424D01*
X0191265Y0133747D02*
X0200650Y0133747D01*
X0200650Y0135346D02*
X0191900Y0135346D01*
X0191900Y0136944D02*
X0200650Y0136944D01*
X0200650Y0138543D02*
X0191273Y0138543D01*
X0189373Y0140141D02*
X0200650Y0140141D01*
X0200650Y0141740D02*
X0127000Y0141740D01*
X0127000Y0143338D02*
X0178094Y0143338D01*
X0177770Y0143662D02*
X0179008Y0142424D01*
X0180625Y0141755D01*
X0188375Y0141755D01*
X0189992Y0142424D01*
X0191230Y0143662D01*
X0191900Y0145279D01*
X0191900Y0147030D01*
X0191230Y0148647D01*
X0189992Y0149885D01*
X0188375Y0150555D01*
X0180625Y0150555D01*
X0179008Y0149885D01*
X0177770Y0148647D01*
X0177100Y0147030D01*
X0177100Y0145279D01*
X0177770Y0143662D01*
X0177242Y0144937D02*
X0127000Y0144937D01*
X0127000Y0146535D02*
X0177100Y0146535D01*
X0177557Y0148134D02*
X0127000Y0148134D01*
X0127000Y0149733D02*
X0178855Y0149733D01*
X0179657Y0151706D02*
X0178984Y0152049D01*
X0178373Y0152493D01*
X0177839Y0153028D01*
X0177395Y0153639D01*
X0177052Y0154312D01*
X0176818Y0155031D01*
X0176700Y0155777D01*
X0176700Y0155955D01*
X0184300Y0155955D01*
X0184300Y0156355D01*
X0184300Y0160955D01*
X0181122Y0160955D01*
X0180376Y0160836D01*
X0179657Y0160603D01*
X0178984Y0160260D01*
X0178373Y0159816D01*
X0177839Y0159282D01*
X0177395Y0158670D01*
X0177052Y0157997D01*
X0176818Y0157279D01*
X0176700Y0156532D01*
X0176700Y0156355D01*
X0184300Y0156355D01*
X0184700Y0156355D01*
X0184700Y0160955D01*
X0187878Y0160955D01*
X0188624Y0160836D01*
X0189343Y0160603D01*
X0190016Y0160260D01*
X0190627Y0159816D01*
X0191161Y0159282D01*
X0191605Y0158670D01*
X0191948Y0157997D01*
X0192182Y0157279D01*
X0192300Y0156532D01*
X0192300Y0156355D01*
X0184700Y0156355D01*
X0184700Y0155955D01*
X0192300Y0155955D01*
X0192300Y0155777D01*
X0192182Y0155031D01*
X0191948Y0154312D01*
X0191605Y0153639D01*
X0191161Y0153028D01*
X0190627Y0152493D01*
X0190016Y0152049D01*
X0189343Y0151706D01*
X0188624Y0151473D01*
X0187878Y0151355D01*
X0184700Y0151355D01*
X0184700Y0155955D01*
X0184300Y0155955D01*
X0184300Y0151355D01*
X0181122Y0151355D01*
X0180376Y0151473D01*
X0179657Y0151706D01*
X0177937Y0152930D02*
X0127000Y0152930D01*
X0127000Y0154528D02*
X0176981Y0154528D01*
X0176963Y0157725D02*
X0127000Y0157725D01*
X0127000Y0156127D02*
X0184300Y0156127D01*
X0184700Y0156127D02*
X0200650Y0156127D01*
X0200650Y0157725D02*
X0192037Y0157725D01*
X0191119Y0159324D02*
X0200650Y0159324D01*
X0200650Y0160922D02*
X0188083Y0160922D01*
X0184700Y0160922D02*
X0184300Y0160922D01*
X0184300Y0159324D02*
X0184700Y0159324D01*
X0184700Y0157725D02*
X0184300Y0157725D01*
X0184300Y0154528D02*
X0184700Y0154528D01*
X0184700Y0152930D02*
X0184300Y0152930D01*
X0190145Y0149733D02*
X0200650Y0149733D01*
X0200650Y0151331D02*
X0127000Y0151331D01*
X0127000Y0159324D02*
X0177881Y0159324D01*
X0180917Y0160922D02*
X0127000Y0160922D01*
X0127000Y0162521D02*
X0200650Y0162521D01*
X0200650Y0164119D02*
X0127000Y0164119D01*
X0127000Y0165718D02*
X0200650Y0165718D01*
X0200650Y0154528D02*
X0192019Y0154528D01*
X0191063Y0152930D02*
X0200650Y0152930D01*
X0200650Y0148134D02*
X0191443Y0148134D01*
X0191900Y0146535D02*
X0200650Y0146535D01*
X0200650Y0144937D02*
X0191758Y0144937D01*
X0190906Y0143338D02*
X0200650Y0143338D01*
X0179627Y0140141D02*
X0127000Y0140141D01*
X0127000Y0138543D02*
X0177727Y0138543D01*
X0177100Y0136944D02*
X0127000Y0136944D01*
X0127000Y0135346D02*
X0177100Y0135346D01*
X0177735Y0133747D02*
X0127000Y0133747D01*
X0127000Y0132149D02*
X0179673Y0132149D01*
X0064500Y0053655D02*
X0017000Y0053655D01*
X0017000Y0063655D02*
X0032000Y0063655D01*
X0037000Y0058655D01*
X0057000Y0058655D01*
M02*
