%
M48
M72
T01C0.02362
T02C0.03200
T03C0.03543
T04C0.04000
T05C0.05906
%
T01
X64500Y41155
X64500Y53655
X57000Y58655
X35750Y73655
X34500Y84905
X70750Y81155
X102000Y86155
X125750Y89905
X134500Y86155
X109500Y118655
X94500Y133655
X75750Y129905
X48250Y128655
X33250Y126155
X108250Y157405
X142000Y134905
X134500Y126155
X168250Y159905
X113250Y37405
T02
X19500Y96655
X19500Y115655
T03
X53063Y81155
X60937Y81155
T04
X17000Y43655
X17000Y53655
X17000Y63655
X17000Y73655
X27000Y159155
X37000Y158155
X47000Y159155
X57000Y158155
X67000Y159155
X184500Y156155
X184500Y146155
X184500Y136155
T05
X177472Y48970
X166843Y48970
X157394Y48970
X147945Y48970
X137315Y48970
X137709Y29285
X157394Y29285
X177079Y29285
M30
