G75*
%MOIN*%
%OFA0B0*%
%FSLAX25Y25*%
%IPPOS*%
%LPD*%
%AMOC8*
5,1,8,0,0,1.08239X$1,22.5*
%
%ADD10R,0.02600X0.05400*%
%ADD11R,0.05400X0.02600*%
%ADD12R,0.03550X0.05124*%
%ADD13R,0.02959X0.09061*%
%ADD14C,0.07800*%
%ADD15C,0.05600*%
%ADD16R,0.05124X0.03550*%
%ADD17R,0.05124X0.08274*%
%ADD18R,0.05912X0.12211*%
%ADD19R,0.12211X0.05912*%
%ADD20C,0.01301*%
%ADD21C,0.10400*%
%ADD22C,0.09258*%
%ADD23C,0.06306*%
%ADD24C,0.06400*%
%ADD25R,0.02172X0.05833*%
%ADD26R,0.06207X0.08668*%
%ADD27R,0.09750X0.07880*%
%ADD28R,0.05026X0.07880*%
%ADD29C,0.05943*%
D10*
X0063476Y0089255D03*
X0066626Y0089255D03*
X0069776Y0089255D03*
X0072925Y0089255D03*
X0076075Y0089255D03*
X0079224Y0089255D03*
X0082374Y0089255D03*
X0085524Y0089255D03*
X0085524Y0123055D03*
X0082374Y0123055D03*
X0079224Y0123055D03*
X0076075Y0123055D03*
X0072925Y0123055D03*
X0069776Y0123055D03*
X0066626Y0123055D03*
X0063476Y0123055D03*
D11*
X0057600Y0117178D03*
X0057600Y0114029D03*
X0057600Y0110879D03*
X0057600Y0107729D03*
X0057600Y0104580D03*
X0057600Y0101430D03*
X0057600Y0098281D03*
X0057600Y0095131D03*
X0091400Y0095131D03*
X0091400Y0098281D03*
X0091400Y0101430D03*
X0091400Y0104580D03*
X0091400Y0107729D03*
X0091400Y0110879D03*
X0091400Y0114029D03*
X0091400Y0117178D03*
D12*
X0090543Y0133655D03*
X0083457Y0133655D03*
X0048043Y0123655D03*
X0040957Y0123655D03*
X0020543Y0148655D03*
X0013457Y0148655D03*
X0045457Y0088655D03*
X0052543Y0088655D03*
X0070707Y0063655D03*
X0077793Y0063655D03*
X0113457Y0089905D03*
X0120543Y0089905D03*
X0129707Y0134905D03*
X0136793Y0134905D03*
X0160957Y0152405D03*
X0168043Y0152405D03*
D13*
X0108713Y0148241D03*
X0108713Y0133674D03*
D14*
X0067000Y0159155D03*
X0057000Y0158155D03*
X0047000Y0159155D03*
X0037000Y0158155D03*
X0027000Y0159155D03*
D15*
X0019500Y0115655D03*
X0019500Y0096655D03*
D16*
X0034500Y0097198D03*
X0034500Y0102611D03*
X0034500Y0109698D03*
X0034500Y0113861D03*
X0034500Y0120948D03*
X0045000Y0100448D03*
X0045000Y0093361D03*
X0034500Y0090111D03*
X0042000Y0079698D03*
X0042000Y0072611D03*
X0049500Y0072198D03*
X0057000Y0072198D03*
X0057000Y0065111D03*
X0049500Y0065111D03*
X0064500Y0065111D03*
X0064500Y0072198D03*
X0102000Y0092611D03*
X0102000Y0099698D03*
X0102000Y0112611D03*
X0102000Y0119698D03*
X0134250Y0119698D03*
X0134250Y0112611D03*
X0134500Y0099698D03*
X0134500Y0092611D03*
X0112000Y0049698D03*
X0112000Y0042611D03*
D17*
X0113201Y0099905D03*
X0125799Y0099905D03*
X0125799Y0112405D03*
X0113201Y0112405D03*
D18*
X0112000Y0079603D03*
X0112000Y0060706D03*
D19*
X0132551Y0152655D03*
X0151449Y0152655D03*
D20*
X0049971Y0117673D02*
X0049971Y0114637D01*
X0046935Y0114637D01*
X0046935Y0117673D01*
X0049971Y0117673D01*
X0049971Y0115937D02*
X0046935Y0115937D01*
X0046935Y0117237D02*
X0049971Y0117237D01*
X0043065Y0117673D02*
X0043065Y0114637D01*
X0040029Y0114637D01*
X0040029Y0117673D01*
X0043065Y0117673D01*
X0043065Y0115937D02*
X0040029Y0115937D01*
X0040029Y0117237D02*
X0043065Y0117237D01*
X0022471Y0139637D02*
X0022471Y0142673D01*
X0022471Y0139637D02*
X0019435Y0139637D01*
X0019435Y0142673D01*
X0022471Y0142673D01*
X0022471Y0140937D02*
X0019435Y0140937D01*
X0019435Y0142237D02*
X0022471Y0142237D01*
X0015565Y0142673D02*
X0015565Y0139637D01*
X0012529Y0139637D01*
X0012529Y0142673D01*
X0015565Y0142673D01*
X0015565Y0140937D02*
X0012529Y0140937D01*
X0012529Y0142237D02*
X0015565Y0142237D01*
D21*
X0157394Y0029285D03*
D22*
X0166843Y0048970D03*
X0177472Y0048970D03*
X0147945Y0048970D03*
X0137315Y0048970D03*
D23*
X0157394Y0048970D03*
X0177079Y0029285D03*
X0137709Y0029285D03*
D24*
X0020000Y0043655D02*
X0014000Y0043655D01*
X0014000Y0053655D02*
X0020000Y0053655D01*
X0020000Y0063655D02*
X0014000Y0063655D01*
X0014000Y0073655D02*
X0020000Y0073655D01*
X0181500Y0136155D02*
X0187500Y0136155D01*
X0187500Y0146155D02*
X0181500Y0146155D01*
X0181500Y0156155D02*
X0187500Y0156155D01*
D25*
X0062118Y0033655D03*
X0059559Y0033655D03*
X0057000Y0033655D03*
X0054441Y0033655D03*
X0051882Y0033655D03*
D26*
X0047305Y0032237D03*
X0066695Y0032237D03*
D27*
X0045533Y0023182D03*
X0068467Y0023182D03*
D28*
X0060346Y0023182D03*
X0053772Y0023182D03*
D29*
X0053063Y0081155D03*
X0060937Y0081155D03*
M02*
