G04 #@! TF.FileFunction,Copper,L2,Bot,Signal*
%FSLAX46Y46*%
G04 Gerber Fmt 4.6, Leading zero omitted, Abs format (unit mm)*
G04 Created by KiCad (PCBNEW 4.0.5) date Saturday, 25 March 2017 'PMt' 19:04:54*
%MOMM*%
%LPD*%
G01*
G04 APERTURE LIST*
%ADD10C,0.100000*%
%ADD11C,1.270000*%
%ADD12R,1.270000X0.635000*%
%ADD13C,1.879600*%
%ADD14C,1.320800*%
%ADD15O,3.048000X1.524000*%
%ADD16C,2.540000*%
%ADD17C,2.247900*%
%ADD18C,0.904800*%
%ADD19C,0.889000*%
%ADD20C,0.406400*%
%ADD21C,0.254000*%
G04 APERTURE END LIST*
D10*
D11*
X162288220Y-78105000D03*
X160291780Y-78105000D03*
D12*
X168910000Y-90805000D03*
X167640000Y-90805000D03*
D13*
X153670000Y-58293000D03*
X156210000Y-58547000D03*
X158750000Y-58293000D03*
X161290000Y-58547000D03*
X163830000Y-58293000D03*
D14*
X151765000Y-69342000D03*
X151765000Y-74168000D03*
D15*
X151130000Y-80010000D03*
X151130000Y-82550000D03*
X151130000Y-85090000D03*
X151130000Y-87630000D03*
X193675000Y-59055000D03*
X193675000Y-61595000D03*
X193675000Y-64135000D03*
D16*
X186789060Y-91282520D03*
D17*
X181691280Y-86281260D03*
X184391300Y-86281260D03*
X189189360Y-86281260D03*
X191889380Y-86281260D03*
D18*
X163195000Y-85090000D03*
D19*
X175260000Y-90170000D03*
D18*
X172720000Y-76835000D03*
X174625000Y-68580000D03*
X180975000Y-66675000D03*
X180975000Y-76835000D03*
X178752500Y-75882500D03*
X182880000Y-64452500D03*
X189547500Y-58102500D03*
D19*
X163830000Y-87630000D03*
D18*
X164782500Y-78105000D03*
X166052500Y-65722500D03*
X170815000Y-64770000D03*
X159067500Y-66040000D03*
X155892500Y-80010000D03*
X155575000Y-77152500D03*
X155257500Y-66675000D03*
X174307500Y-58737500D03*
X161290000Y-83820000D03*
D20*
X151130000Y-85090000D02*
X163195000Y-85090000D01*
D21*
X168910000Y-90805000D02*
X174625000Y-90805000D01*
X174625000Y-90805000D02*
X175260000Y-90170000D01*
X167005000Y-90805000D02*
X167640000Y-90805000D01*
D20*
X151130000Y-82550000D02*
X154940000Y-82550000D01*
X154940000Y-82550000D02*
X156210000Y-83820000D01*
X156210000Y-83820000D02*
X161290000Y-83820000D01*
D21*
G36*
X177671023Y-66645443D02*
X172722500Y-66548025D01*
X172687026Y-66552355D01*
X172643800Y-66573400D01*
X167563800Y-70383400D01*
X167538512Y-70408651D01*
X167521259Y-70439948D01*
X167513002Y-70485683D01*
X167617125Y-89852500D01*
X167512998Y-89852500D01*
X167512998Y-90011248D01*
X167354250Y-89852500D01*
X166942458Y-89852500D01*
X166819777Y-89876903D01*
X166704215Y-89924770D01*
X166600211Y-89994263D01*
X166511763Y-90082711D01*
X166442270Y-90186715D01*
X166394403Y-90302277D01*
X166370000Y-90424958D01*
X166370000Y-90519250D01*
X166528750Y-90678000D01*
X167513000Y-90678000D01*
X167513000Y-90658000D01*
X167621456Y-90658000D01*
X167623037Y-90952000D01*
X167513000Y-90952000D01*
X167513000Y-90932000D01*
X166528750Y-90932000D01*
X166370000Y-91090750D01*
X166370000Y-91185042D01*
X166394403Y-91307723D01*
X166442270Y-91423285D01*
X166511763Y-91527289D01*
X166600211Y-91615737D01*
X166704215Y-91685230D01*
X166819777Y-91733097D01*
X166942458Y-91757500D01*
X167354250Y-91757500D01*
X167512998Y-91598752D01*
X167512998Y-91757500D01*
X167627367Y-91757500D01*
X167636517Y-93459300D01*
X155400214Y-93459300D01*
X151703734Y-89027000D01*
X152019000Y-89027000D01*
X152289101Y-88975381D01*
X152543942Y-88872059D01*
X152773729Y-88721006D01*
X152969632Y-88528026D01*
X153124122Y-88300535D01*
X153231262Y-88047276D01*
X153246220Y-87973070D01*
X153123720Y-87757000D01*
X151257000Y-87757000D01*
X151257000Y-87777000D01*
X151003000Y-87777000D01*
X151003000Y-87757000D01*
X150983000Y-87757000D01*
X150983000Y-87503000D01*
X151003000Y-87503000D01*
X151003000Y-87483000D01*
X151257000Y-87483000D01*
X151257000Y-87503000D01*
X153123720Y-87503000D01*
X153246220Y-87286930D01*
X153231262Y-87212724D01*
X153124122Y-86959465D01*
X152969632Y-86731974D01*
X152773729Y-86538994D01*
X152543942Y-86387941D01*
X152475243Y-86360088D01*
X152675534Y-86253591D01*
X152886820Y-86081270D01*
X153013450Y-85928200D01*
X162495597Y-85928200D01*
X162661935Y-86043808D01*
X162857349Y-86129182D01*
X163065625Y-86174975D01*
X163278828Y-86179441D01*
X163488838Y-86142410D01*
X163687656Y-86065294D01*
X163867709Y-85951029D01*
X164022139Y-85803967D01*
X164145063Y-85629711D01*
X164231800Y-85434897D01*
X164279045Y-85226947D01*
X164282446Y-84983375D01*
X164241026Y-84774186D01*
X164159762Y-84577027D01*
X164041752Y-84399406D01*
X163891488Y-84248090D01*
X163714696Y-84128842D01*
X163518109Y-84046205D01*
X163309214Y-84003325D01*
X163095969Y-84001836D01*
X162886497Y-84041795D01*
X162688774Y-84121680D01*
X162510334Y-84238448D01*
X162496699Y-84251800D01*
X162288108Y-84251800D01*
X162326800Y-84164897D01*
X162374045Y-83956947D01*
X162377446Y-83713375D01*
X162336026Y-83504186D01*
X162254762Y-83307027D01*
X162136752Y-83129406D01*
X161986488Y-82978090D01*
X161809696Y-82858842D01*
X161613109Y-82776205D01*
X161404214Y-82733325D01*
X161190969Y-82731836D01*
X160981497Y-82771795D01*
X160783774Y-82851680D01*
X160605334Y-82968448D01*
X160591699Y-82981800D01*
X156557194Y-82981800D01*
X155532697Y-81957303D01*
X155472859Y-81908152D01*
X155413555Y-81858390D01*
X155409694Y-81856267D01*
X155406287Y-81853469D01*
X155338069Y-81816891D01*
X155270202Y-81779581D01*
X155265998Y-81778247D01*
X155262116Y-81776166D01*
X155188058Y-81753523D01*
X155114272Y-81730117D01*
X155109897Y-81729626D01*
X155105677Y-81728336D01*
X155028621Y-81720510D01*
X154951703Y-81711882D01*
X154943079Y-81711822D01*
X154942926Y-81711806D01*
X154942783Y-81711820D01*
X154940000Y-81711800D01*
X153012508Y-81711800D01*
X152900564Y-81572570D01*
X152691705Y-81397316D01*
X152476882Y-81279216D01*
X152675534Y-81173591D01*
X152886820Y-81001270D01*
X153060611Y-80791192D01*
X153190289Y-80551359D01*
X153270913Y-80290906D01*
X153299412Y-80019753D01*
X153274701Y-79748228D01*
X153197722Y-79486675D01*
X153071406Y-79245054D01*
X152900564Y-79032570D01*
X152837676Y-78979800D01*
X159594805Y-78979800D01*
X159646369Y-79206946D01*
X159873716Y-79311339D01*
X160117059Y-79369373D01*
X160367049Y-79378818D01*
X160614078Y-79339310D01*
X160848653Y-79252369D01*
X160933631Y-79206946D01*
X160985195Y-78979800D01*
X160290000Y-78284605D01*
X159594805Y-78979800D01*
X152837676Y-78979800D01*
X152691705Y-78857316D01*
X152452783Y-78725968D01*
X152192899Y-78643528D01*
X151921951Y-78613136D01*
X151902446Y-78613000D01*
X150357554Y-78613000D01*
X150086209Y-78639606D01*
X149825199Y-78718409D01*
X149584466Y-78846409D01*
X149373180Y-79018730D01*
X149364700Y-79028981D01*
X149364700Y-78182049D01*
X159016182Y-78182049D01*
X159055690Y-78429078D01*
X159142631Y-78663653D01*
X159188054Y-78748631D01*
X159415200Y-78800195D01*
X160110395Y-78105000D01*
X160469605Y-78105000D01*
X161164800Y-78800195D01*
X161219125Y-78787863D01*
X161289894Y-78897675D01*
X161462905Y-79076833D01*
X161667420Y-79218975D01*
X161895650Y-79318686D01*
X162138899Y-79372168D01*
X162387905Y-79377384D01*
X162633181Y-79334135D01*
X162865385Y-79244069D01*
X163075673Y-79110616D01*
X163256035Y-78938859D01*
X163399602Y-78735341D01*
X163500903Y-78507814D01*
X163556082Y-78264943D01*
X163560054Y-77980470D01*
X163511678Y-77736154D01*
X163416769Y-77505886D01*
X163278942Y-77298439D01*
X163103445Y-77121713D01*
X162896965Y-76982441D01*
X162667366Y-76885926D01*
X162423393Y-76835846D01*
X162174340Y-76834107D01*
X161929691Y-76880776D01*
X161698767Y-76974076D01*
X161490363Y-77110452D01*
X161312416Y-77284710D01*
X161218426Y-77421979D01*
X161164800Y-77409805D01*
X160469605Y-78105000D01*
X160110395Y-78105000D01*
X159415200Y-77409805D01*
X159188054Y-77461369D01*
X159083661Y-77688716D01*
X159025627Y-77932059D01*
X159016182Y-78182049D01*
X149364700Y-78182049D01*
X149364700Y-77230200D01*
X159594805Y-77230200D01*
X160290000Y-77925395D01*
X160985195Y-77230200D01*
X160933631Y-77003054D01*
X160706284Y-76898661D01*
X160462941Y-76840627D01*
X160212951Y-76831182D01*
X159965922Y-76870690D01*
X159731347Y-76957631D01*
X159646369Y-77003054D01*
X159594805Y-77230200D01*
X149364700Y-77230200D01*
X149364700Y-74276921D01*
X150467897Y-74276921D01*
X150513756Y-74526788D01*
X150607275Y-74762990D01*
X150744891Y-74976528D01*
X150921363Y-75159270D01*
X151129969Y-75304255D01*
X151362762Y-75405960D01*
X151610877Y-75460511D01*
X151864863Y-75465832D01*
X152115044Y-75421718D01*
X152351893Y-75329850D01*
X152566387Y-75193728D01*
X152750356Y-75018537D01*
X152896794Y-74810948D01*
X153000122Y-74578870D01*
X153056404Y-74331142D01*
X153060456Y-74040979D01*
X153011112Y-73791777D01*
X152914305Y-73556904D01*
X152773720Y-73345308D01*
X152594714Y-73165048D01*
X152384105Y-73022990D01*
X152149914Y-72924545D01*
X151901061Y-72873463D01*
X151647026Y-72871689D01*
X151397485Y-72919292D01*
X151161942Y-73014457D01*
X150949370Y-73153561D01*
X150767864Y-73331304D01*
X150624340Y-73540917D01*
X150524262Y-73774415D01*
X150471444Y-74022904D01*
X150467897Y-74276921D01*
X149364700Y-74276921D01*
X149364700Y-69450921D01*
X150467897Y-69450921D01*
X150513756Y-69700788D01*
X150607275Y-69936990D01*
X150744891Y-70150528D01*
X150921363Y-70333270D01*
X151129969Y-70478255D01*
X151362762Y-70579960D01*
X151610877Y-70634511D01*
X151864863Y-70639832D01*
X152115044Y-70595718D01*
X152351893Y-70503850D01*
X152566387Y-70367728D01*
X152750356Y-70192537D01*
X152896794Y-69984948D01*
X153000122Y-69752870D01*
X153056404Y-69505142D01*
X153060456Y-69214979D01*
X153011112Y-68965777D01*
X152914305Y-68730904D01*
X152773720Y-68519308D01*
X152594714Y-68339048D01*
X152384105Y-68196990D01*
X152149914Y-68098545D01*
X151901061Y-68047463D01*
X151647026Y-68045689D01*
X151397485Y-68093292D01*
X151161942Y-68188457D01*
X150949370Y-68327561D01*
X150767864Y-68505304D01*
X150624340Y-68714917D01*
X150524262Y-68948415D01*
X150471444Y-69196904D01*
X150467897Y-69450921D01*
X149364700Y-69450921D01*
X149364700Y-59385476D01*
X152757129Y-59385476D01*
X152845623Y-59643723D01*
X153124976Y-59778597D01*
X153425275Y-59856381D01*
X153734977Y-59874084D01*
X154042184Y-59831027D01*
X154335086Y-59728865D01*
X154494377Y-59643723D01*
X154582871Y-59385476D01*
X153670000Y-58472605D01*
X152757129Y-59385476D01*
X149364700Y-59385476D01*
X149364700Y-58357977D01*
X152088916Y-58357977D01*
X152131973Y-58665184D01*
X152234135Y-58958086D01*
X152319277Y-59117377D01*
X152577524Y-59205871D01*
X153490395Y-58293000D01*
X153849605Y-58293000D01*
X154762476Y-59205871D01*
X154775311Y-59201473D01*
X154802570Y-59270321D01*
X154969868Y-59529917D01*
X155184402Y-59752073D01*
X155438001Y-59928329D01*
X155721005Y-60051971D01*
X156022635Y-60118288D01*
X156331402Y-60124756D01*
X156635544Y-60071128D01*
X156923478Y-59959446D01*
X157184235Y-59793964D01*
X157407884Y-59580986D01*
X157575294Y-59343667D01*
X157724402Y-59498073D01*
X157978001Y-59674329D01*
X158261005Y-59797971D01*
X158562635Y-59864288D01*
X158871402Y-59870756D01*
X159175544Y-59817128D01*
X159463478Y-59705446D01*
X159724235Y-59539964D01*
X159930039Y-59343979D01*
X160049868Y-59529917D01*
X160264402Y-59752073D01*
X160518001Y-59928329D01*
X160801005Y-60051971D01*
X161102635Y-60118288D01*
X161411402Y-60124756D01*
X161715544Y-60071128D01*
X162003478Y-59959446D01*
X162264235Y-59793964D01*
X162487884Y-59580986D01*
X162655294Y-59343667D01*
X162804402Y-59498073D01*
X163058001Y-59674329D01*
X163341005Y-59797971D01*
X163642635Y-59864288D01*
X163951402Y-59870756D01*
X164255544Y-59817128D01*
X164543478Y-59705446D01*
X164804235Y-59539964D01*
X165027884Y-59326986D01*
X165205906Y-59074623D01*
X165331520Y-58792489D01*
X165399942Y-58491330D01*
X165404868Y-58138583D01*
X165344882Y-57835630D01*
X165227194Y-57550099D01*
X165056288Y-57292864D01*
X164838672Y-57073724D01*
X164582637Y-56901027D01*
X164297934Y-56781348D01*
X163995408Y-56719249D01*
X163686581Y-56717093D01*
X163383217Y-56774962D01*
X163096871Y-56890654D01*
X162838450Y-57059760D01*
X162617796Y-57275840D01*
X162466530Y-57496758D01*
X162298672Y-57327724D01*
X162042637Y-57155027D01*
X161757934Y-57035348D01*
X161455408Y-56973249D01*
X161146581Y-56971093D01*
X160843217Y-57028962D01*
X160556871Y-57144654D01*
X160298450Y-57313760D01*
X160111685Y-57496653D01*
X159976288Y-57292864D01*
X159758672Y-57073724D01*
X159502637Y-56901027D01*
X159217934Y-56781348D01*
X158915408Y-56719249D01*
X158606581Y-56717093D01*
X158303217Y-56774962D01*
X158016871Y-56890654D01*
X157758450Y-57059760D01*
X157537796Y-57275840D01*
X157386530Y-57496758D01*
X157218672Y-57327724D01*
X156962637Y-57155027D01*
X156677934Y-57035348D01*
X156375408Y-56973249D01*
X156066581Y-56971093D01*
X155763217Y-57028962D01*
X155476871Y-57144654D01*
X155218450Y-57313760D01*
X155034324Y-57494069D01*
X155020723Y-57468623D01*
X154762476Y-57380129D01*
X153849605Y-58293000D01*
X153490395Y-58293000D01*
X152577524Y-57380129D01*
X152319277Y-57468623D01*
X152184403Y-57747976D01*
X152106619Y-58048275D01*
X152088916Y-58357977D01*
X149364700Y-58357977D01*
X149364700Y-57200524D01*
X152757129Y-57200524D01*
X153670000Y-58113395D01*
X154582871Y-57200524D01*
X154494377Y-56942277D01*
X154215024Y-56807403D01*
X153914725Y-56729619D01*
X153605023Y-56711916D01*
X153297816Y-56754973D01*
X153004914Y-56857135D01*
X152845623Y-56942277D01*
X152757129Y-57200524D01*
X149364700Y-57200524D01*
X149364700Y-56654700D01*
X177519699Y-56654700D01*
X177671023Y-66645443D01*
X177671023Y-66645443D01*
G37*
X177671023Y-66645443D02*
X172722500Y-66548025D01*
X172687026Y-66552355D01*
X172643800Y-66573400D01*
X167563800Y-70383400D01*
X167538512Y-70408651D01*
X167521259Y-70439948D01*
X167513002Y-70485683D01*
X167617125Y-89852500D01*
X167512998Y-89852500D01*
X167512998Y-90011248D01*
X167354250Y-89852500D01*
X166942458Y-89852500D01*
X166819777Y-89876903D01*
X166704215Y-89924770D01*
X166600211Y-89994263D01*
X166511763Y-90082711D01*
X166442270Y-90186715D01*
X166394403Y-90302277D01*
X166370000Y-90424958D01*
X166370000Y-90519250D01*
X166528750Y-90678000D01*
X167513000Y-90678000D01*
X167513000Y-90658000D01*
X167621456Y-90658000D01*
X167623037Y-90952000D01*
X167513000Y-90952000D01*
X167513000Y-90932000D01*
X166528750Y-90932000D01*
X166370000Y-91090750D01*
X166370000Y-91185042D01*
X166394403Y-91307723D01*
X166442270Y-91423285D01*
X166511763Y-91527289D01*
X166600211Y-91615737D01*
X166704215Y-91685230D01*
X166819777Y-91733097D01*
X166942458Y-91757500D01*
X167354250Y-91757500D01*
X167512998Y-91598752D01*
X167512998Y-91757500D01*
X167627367Y-91757500D01*
X167636517Y-93459300D01*
X155400214Y-93459300D01*
X151703734Y-89027000D01*
X152019000Y-89027000D01*
X152289101Y-88975381D01*
X152543942Y-88872059D01*
X152773729Y-88721006D01*
X152969632Y-88528026D01*
X153124122Y-88300535D01*
X153231262Y-88047276D01*
X153246220Y-87973070D01*
X153123720Y-87757000D01*
X151257000Y-87757000D01*
X151257000Y-87777000D01*
X151003000Y-87777000D01*
X151003000Y-87757000D01*
X150983000Y-87757000D01*
X150983000Y-87503000D01*
X151003000Y-87503000D01*
X151003000Y-87483000D01*
X151257000Y-87483000D01*
X151257000Y-87503000D01*
X153123720Y-87503000D01*
X153246220Y-87286930D01*
X153231262Y-87212724D01*
X153124122Y-86959465D01*
X152969632Y-86731974D01*
X152773729Y-86538994D01*
X152543942Y-86387941D01*
X152475243Y-86360088D01*
X152675534Y-86253591D01*
X152886820Y-86081270D01*
X153013450Y-85928200D01*
X162495597Y-85928200D01*
X162661935Y-86043808D01*
X162857349Y-86129182D01*
X163065625Y-86174975D01*
X163278828Y-86179441D01*
X163488838Y-86142410D01*
X163687656Y-86065294D01*
X163867709Y-85951029D01*
X164022139Y-85803967D01*
X164145063Y-85629711D01*
X164231800Y-85434897D01*
X164279045Y-85226947D01*
X164282446Y-84983375D01*
X164241026Y-84774186D01*
X164159762Y-84577027D01*
X164041752Y-84399406D01*
X163891488Y-84248090D01*
X163714696Y-84128842D01*
X163518109Y-84046205D01*
X163309214Y-84003325D01*
X163095969Y-84001836D01*
X162886497Y-84041795D01*
X162688774Y-84121680D01*
X162510334Y-84238448D01*
X162496699Y-84251800D01*
X162288108Y-84251800D01*
X162326800Y-84164897D01*
X162374045Y-83956947D01*
X162377446Y-83713375D01*
X162336026Y-83504186D01*
X162254762Y-83307027D01*
X162136752Y-83129406D01*
X161986488Y-82978090D01*
X161809696Y-82858842D01*
X161613109Y-82776205D01*
X161404214Y-82733325D01*
X161190969Y-82731836D01*
X160981497Y-82771795D01*
X160783774Y-82851680D01*
X160605334Y-82968448D01*
X160591699Y-82981800D01*
X156557194Y-82981800D01*
X155532697Y-81957303D01*
X155472859Y-81908152D01*
X155413555Y-81858390D01*
X155409694Y-81856267D01*
X155406287Y-81853469D01*
X155338069Y-81816891D01*
X155270202Y-81779581D01*
X155265998Y-81778247D01*
X155262116Y-81776166D01*
X155188058Y-81753523D01*
X155114272Y-81730117D01*
X155109897Y-81729626D01*
X155105677Y-81728336D01*
X155028621Y-81720510D01*
X154951703Y-81711882D01*
X154943079Y-81711822D01*
X154942926Y-81711806D01*
X154942783Y-81711820D01*
X154940000Y-81711800D01*
X153012508Y-81711800D01*
X152900564Y-81572570D01*
X152691705Y-81397316D01*
X152476882Y-81279216D01*
X152675534Y-81173591D01*
X152886820Y-81001270D01*
X153060611Y-80791192D01*
X153190289Y-80551359D01*
X153270913Y-80290906D01*
X153299412Y-80019753D01*
X153274701Y-79748228D01*
X153197722Y-79486675D01*
X153071406Y-79245054D01*
X152900564Y-79032570D01*
X152837676Y-78979800D01*
X159594805Y-78979800D01*
X159646369Y-79206946D01*
X159873716Y-79311339D01*
X160117059Y-79369373D01*
X160367049Y-79378818D01*
X160614078Y-79339310D01*
X160848653Y-79252369D01*
X160933631Y-79206946D01*
X160985195Y-78979800D01*
X160290000Y-78284605D01*
X159594805Y-78979800D01*
X152837676Y-78979800D01*
X152691705Y-78857316D01*
X152452783Y-78725968D01*
X152192899Y-78643528D01*
X151921951Y-78613136D01*
X151902446Y-78613000D01*
X150357554Y-78613000D01*
X150086209Y-78639606D01*
X149825199Y-78718409D01*
X149584466Y-78846409D01*
X149373180Y-79018730D01*
X149364700Y-79028981D01*
X149364700Y-78182049D01*
X159016182Y-78182049D01*
X159055690Y-78429078D01*
X159142631Y-78663653D01*
X159188054Y-78748631D01*
X159415200Y-78800195D01*
X160110395Y-78105000D01*
X160469605Y-78105000D01*
X161164800Y-78800195D01*
X161219125Y-78787863D01*
X161289894Y-78897675D01*
X161462905Y-79076833D01*
X161667420Y-79218975D01*
X161895650Y-79318686D01*
X162138899Y-79372168D01*
X162387905Y-79377384D01*
X162633181Y-79334135D01*
X162865385Y-79244069D01*
X163075673Y-79110616D01*
X163256035Y-78938859D01*
X163399602Y-78735341D01*
X163500903Y-78507814D01*
X163556082Y-78264943D01*
X163560054Y-77980470D01*
X163511678Y-77736154D01*
X163416769Y-77505886D01*
X163278942Y-77298439D01*
X163103445Y-77121713D01*
X162896965Y-76982441D01*
X162667366Y-76885926D01*
X162423393Y-76835846D01*
X162174340Y-76834107D01*
X161929691Y-76880776D01*
X161698767Y-76974076D01*
X161490363Y-77110452D01*
X161312416Y-77284710D01*
X161218426Y-77421979D01*
X161164800Y-77409805D01*
X160469605Y-78105000D01*
X160110395Y-78105000D01*
X159415200Y-77409805D01*
X159188054Y-77461369D01*
X159083661Y-77688716D01*
X159025627Y-77932059D01*
X159016182Y-78182049D01*
X149364700Y-78182049D01*
X149364700Y-77230200D01*
X159594805Y-77230200D01*
X160290000Y-77925395D01*
X160985195Y-77230200D01*
X160933631Y-77003054D01*
X160706284Y-76898661D01*
X160462941Y-76840627D01*
X160212951Y-76831182D01*
X159965922Y-76870690D01*
X159731347Y-76957631D01*
X159646369Y-77003054D01*
X159594805Y-77230200D01*
X149364700Y-77230200D01*
X149364700Y-74276921D01*
X150467897Y-74276921D01*
X150513756Y-74526788D01*
X150607275Y-74762990D01*
X150744891Y-74976528D01*
X150921363Y-75159270D01*
X151129969Y-75304255D01*
X151362762Y-75405960D01*
X151610877Y-75460511D01*
X151864863Y-75465832D01*
X152115044Y-75421718D01*
X152351893Y-75329850D01*
X152566387Y-75193728D01*
X152750356Y-75018537D01*
X152896794Y-74810948D01*
X153000122Y-74578870D01*
X153056404Y-74331142D01*
X153060456Y-74040979D01*
X153011112Y-73791777D01*
X152914305Y-73556904D01*
X152773720Y-73345308D01*
X152594714Y-73165048D01*
X152384105Y-73022990D01*
X152149914Y-72924545D01*
X151901061Y-72873463D01*
X151647026Y-72871689D01*
X151397485Y-72919292D01*
X151161942Y-73014457D01*
X150949370Y-73153561D01*
X150767864Y-73331304D01*
X150624340Y-73540917D01*
X150524262Y-73774415D01*
X150471444Y-74022904D01*
X150467897Y-74276921D01*
X149364700Y-74276921D01*
X149364700Y-69450921D01*
X150467897Y-69450921D01*
X150513756Y-69700788D01*
X150607275Y-69936990D01*
X150744891Y-70150528D01*
X150921363Y-70333270D01*
X151129969Y-70478255D01*
X151362762Y-70579960D01*
X151610877Y-70634511D01*
X151864863Y-70639832D01*
X152115044Y-70595718D01*
X152351893Y-70503850D01*
X152566387Y-70367728D01*
X152750356Y-70192537D01*
X152896794Y-69984948D01*
X153000122Y-69752870D01*
X153056404Y-69505142D01*
X153060456Y-69214979D01*
X153011112Y-68965777D01*
X152914305Y-68730904D01*
X152773720Y-68519308D01*
X152594714Y-68339048D01*
X152384105Y-68196990D01*
X152149914Y-68098545D01*
X151901061Y-68047463D01*
X151647026Y-68045689D01*
X151397485Y-68093292D01*
X151161942Y-68188457D01*
X150949370Y-68327561D01*
X150767864Y-68505304D01*
X150624340Y-68714917D01*
X150524262Y-68948415D01*
X150471444Y-69196904D01*
X150467897Y-69450921D01*
X149364700Y-69450921D01*
X149364700Y-59385476D01*
X152757129Y-59385476D01*
X152845623Y-59643723D01*
X153124976Y-59778597D01*
X153425275Y-59856381D01*
X153734977Y-59874084D01*
X154042184Y-59831027D01*
X154335086Y-59728865D01*
X154494377Y-59643723D01*
X154582871Y-59385476D01*
X153670000Y-58472605D01*
X152757129Y-59385476D01*
X149364700Y-59385476D01*
X149364700Y-58357977D01*
X152088916Y-58357977D01*
X152131973Y-58665184D01*
X152234135Y-58958086D01*
X152319277Y-59117377D01*
X152577524Y-59205871D01*
X153490395Y-58293000D01*
X153849605Y-58293000D01*
X154762476Y-59205871D01*
X154775311Y-59201473D01*
X154802570Y-59270321D01*
X154969868Y-59529917D01*
X155184402Y-59752073D01*
X155438001Y-59928329D01*
X155721005Y-60051971D01*
X156022635Y-60118288D01*
X156331402Y-60124756D01*
X156635544Y-60071128D01*
X156923478Y-59959446D01*
X157184235Y-59793964D01*
X157407884Y-59580986D01*
X157575294Y-59343667D01*
X157724402Y-59498073D01*
X157978001Y-59674329D01*
X158261005Y-59797971D01*
X158562635Y-59864288D01*
X158871402Y-59870756D01*
X159175544Y-59817128D01*
X159463478Y-59705446D01*
X159724235Y-59539964D01*
X159930039Y-59343979D01*
X160049868Y-59529917D01*
X160264402Y-59752073D01*
X160518001Y-59928329D01*
X160801005Y-60051971D01*
X161102635Y-60118288D01*
X161411402Y-60124756D01*
X161715544Y-60071128D01*
X162003478Y-59959446D01*
X162264235Y-59793964D01*
X162487884Y-59580986D01*
X162655294Y-59343667D01*
X162804402Y-59498073D01*
X163058001Y-59674329D01*
X163341005Y-59797971D01*
X163642635Y-59864288D01*
X163951402Y-59870756D01*
X164255544Y-59817128D01*
X164543478Y-59705446D01*
X164804235Y-59539964D01*
X165027884Y-59326986D01*
X165205906Y-59074623D01*
X165331520Y-58792489D01*
X165399942Y-58491330D01*
X165404868Y-58138583D01*
X165344882Y-57835630D01*
X165227194Y-57550099D01*
X165056288Y-57292864D01*
X164838672Y-57073724D01*
X164582637Y-56901027D01*
X164297934Y-56781348D01*
X163995408Y-56719249D01*
X163686581Y-56717093D01*
X163383217Y-56774962D01*
X163096871Y-56890654D01*
X162838450Y-57059760D01*
X162617796Y-57275840D01*
X162466530Y-57496758D01*
X162298672Y-57327724D01*
X162042637Y-57155027D01*
X161757934Y-57035348D01*
X161455408Y-56973249D01*
X161146581Y-56971093D01*
X160843217Y-57028962D01*
X160556871Y-57144654D01*
X160298450Y-57313760D01*
X160111685Y-57496653D01*
X159976288Y-57292864D01*
X159758672Y-57073724D01*
X159502637Y-56901027D01*
X159217934Y-56781348D01*
X158915408Y-56719249D01*
X158606581Y-56717093D01*
X158303217Y-56774962D01*
X158016871Y-56890654D01*
X157758450Y-57059760D01*
X157537796Y-57275840D01*
X157386530Y-57496758D01*
X157218672Y-57327724D01*
X156962637Y-57155027D01*
X156677934Y-57035348D01*
X156375408Y-56973249D01*
X156066581Y-56971093D01*
X155763217Y-57028962D01*
X155476871Y-57144654D01*
X155218450Y-57313760D01*
X155034324Y-57494069D01*
X155020723Y-57468623D01*
X154762476Y-57380129D01*
X153849605Y-58293000D01*
X153490395Y-58293000D01*
X152577524Y-57380129D01*
X152319277Y-57468623D01*
X152184403Y-57747976D01*
X152106619Y-58048275D01*
X152088916Y-58357977D01*
X149364700Y-58357977D01*
X149364700Y-57200524D01*
X152757129Y-57200524D01*
X153670000Y-58113395D01*
X154582871Y-57200524D01*
X154494377Y-56942277D01*
X154215024Y-56807403D01*
X153914725Y-56729619D01*
X153605023Y-56711916D01*
X153297816Y-56754973D01*
X153004914Y-56857135D01*
X152845623Y-56942277D01*
X152757129Y-57200524D01*
X149364700Y-57200524D01*
X149364700Y-56654700D01*
X177519699Y-56654700D01*
X177671023Y-66645443D01*
G36*
X197599300Y-87499590D02*
X192890928Y-93378144D01*
X192799628Y-93459300D01*
X169037000Y-93459300D01*
X169037000Y-91757500D01*
X169037002Y-91757500D01*
X169037002Y-91598752D01*
X169195750Y-91757500D01*
X169607542Y-91757500D01*
X169730223Y-91733097D01*
X169845785Y-91685230D01*
X169949789Y-91615737D01*
X170038237Y-91527289D01*
X170107730Y-91423285D01*
X170118843Y-91396455D01*
X180403180Y-91396455D01*
X180452211Y-91663605D01*
X180552198Y-91916144D01*
X180699333Y-92144452D01*
X180888011Y-92339834D01*
X181111045Y-92494847D01*
X181359941Y-92603586D01*
X181625217Y-92661911D01*
X181896770Y-92667599D01*
X182164256Y-92620434D01*
X182196694Y-92607852D01*
X185641753Y-92607852D01*
X185770076Y-92899871D01*
X186105695Y-93067723D01*
X186467611Y-93166874D01*
X186841916Y-93193514D01*
X187214227Y-93146618D01*
X187570235Y-93027988D01*
X187809924Y-92899871D01*
X187938247Y-92607852D01*
X186790000Y-91459605D01*
X185641753Y-92607852D01*
X182196694Y-92607852D01*
X182417487Y-92522213D01*
X182646817Y-92376675D01*
X182843511Y-92189366D01*
X183000077Y-91967419D01*
X183110552Y-91719289D01*
X183170727Y-91454426D01*
X183172437Y-91331916D01*
X184876486Y-91331916D01*
X184923382Y-91704227D01*
X185042012Y-92060235D01*
X185170129Y-92299924D01*
X185462148Y-92428247D01*
X186610395Y-91280000D01*
X186969605Y-91280000D01*
X188117852Y-92428247D01*
X188409871Y-92299924D01*
X188577723Y-91964305D01*
X188676874Y-91602389D01*
X188691530Y-91396455D01*
X190403180Y-91396455D01*
X190452211Y-91663605D01*
X190552198Y-91916144D01*
X190699333Y-92144452D01*
X190888011Y-92339834D01*
X191111045Y-92494847D01*
X191359941Y-92603586D01*
X191625217Y-92661911D01*
X191896770Y-92667599D01*
X192164256Y-92620434D01*
X192417487Y-92522213D01*
X192646817Y-92376675D01*
X192843511Y-92189366D01*
X193000077Y-91967419D01*
X193110552Y-91719289D01*
X193170727Y-91454426D01*
X193175059Y-91144194D01*
X193122303Y-90877754D01*
X193018799Y-90626636D01*
X192868491Y-90400404D01*
X192677104Y-90207676D01*
X192451927Y-90055792D01*
X192201537Y-89950538D01*
X191935472Y-89895923D01*
X191663867Y-89894027D01*
X191397065Y-89944922D01*
X191145230Y-90046670D01*
X190917955Y-90195395D01*
X190723895Y-90385432D01*
X190570443Y-90609543D01*
X190463444Y-90859192D01*
X190406972Y-91124869D01*
X190403180Y-91396455D01*
X188691530Y-91396455D01*
X188703514Y-91228084D01*
X188656618Y-90855773D01*
X188537988Y-90499765D01*
X188409871Y-90260076D01*
X188117852Y-90131753D01*
X186969605Y-91280000D01*
X186610395Y-91280000D01*
X185462148Y-90131753D01*
X185170129Y-90260076D01*
X185002277Y-90595695D01*
X184903126Y-90957611D01*
X184876486Y-91331916D01*
X183172437Y-91331916D01*
X183175059Y-91144194D01*
X183122303Y-90877754D01*
X183018799Y-90626636D01*
X182868491Y-90400404D01*
X182677104Y-90207676D01*
X182451927Y-90055792D01*
X182205368Y-89952148D01*
X185641753Y-89952148D01*
X186790000Y-91100395D01*
X187938247Y-89952148D01*
X187809924Y-89660129D01*
X187474305Y-89492277D01*
X187112389Y-89393126D01*
X186738084Y-89366486D01*
X186365773Y-89413382D01*
X186009765Y-89532012D01*
X185770076Y-89660129D01*
X185641753Y-89952148D01*
X182205368Y-89952148D01*
X182201537Y-89950538D01*
X181935472Y-89895923D01*
X181663867Y-89894027D01*
X181397065Y-89944922D01*
X181145230Y-90046670D01*
X180917955Y-90195395D01*
X180723895Y-90385432D01*
X180570443Y-90609543D01*
X180463444Y-90859192D01*
X180406972Y-91124869D01*
X180403180Y-91396455D01*
X170118843Y-91396455D01*
X170155597Y-91307723D01*
X170180000Y-91185042D01*
X170180000Y-91090750D01*
X170021250Y-90932000D01*
X169037000Y-90932000D01*
X169037000Y-90678000D01*
X170021250Y-90678000D01*
X170180000Y-90519250D01*
X170180000Y-90424958D01*
X170155597Y-90302277D01*
X170107730Y-90186715D01*
X170038237Y-90082711D01*
X169949789Y-89994263D01*
X169845785Y-89924770D01*
X169730223Y-89876903D01*
X169607542Y-89852500D01*
X169195750Y-89852500D01*
X169037002Y-90011248D01*
X169037002Y-89852500D01*
X169037000Y-89852500D01*
X169037000Y-86427986D01*
X179927686Y-86427986D01*
X179989993Y-86767469D01*
X180117053Y-87088385D01*
X180304026Y-87378510D01*
X180543790Y-87626793D01*
X180827212Y-87823777D01*
X181143499Y-87961959D01*
X181480601Y-88036075D01*
X181825679Y-88043304D01*
X182165589Y-87983368D01*
X182487384Y-87858552D01*
X182778807Y-87673610D01*
X183028758Y-87435585D01*
X183041584Y-87417403D01*
X183243790Y-87626793D01*
X183527212Y-87823777D01*
X183843499Y-87961959D01*
X184180601Y-88036075D01*
X184525679Y-88043304D01*
X184865589Y-87983368D01*
X185187384Y-87858552D01*
X185478807Y-87673610D01*
X185728758Y-87435585D01*
X185835015Y-87284955D01*
X185888011Y-87339834D01*
X186111045Y-87494847D01*
X186359941Y-87603586D01*
X186625217Y-87661911D01*
X186896770Y-87667599D01*
X187164256Y-87620434D01*
X187417487Y-87522213D01*
X187646817Y-87376675D01*
X187743505Y-87284600D01*
X187804026Y-87378510D01*
X188043790Y-87626793D01*
X188327212Y-87823777D01*
X188643499Y-87961959D01*
X188980601Y-88036075D01*
X189325679Y-88043304D01*
X189665589Y-87983368D01*
X189987384Y-87858552D01*
X190278807Y-87673610D01*
X190528758Y-87435585D01*
X190541584Y-87417403D01*
X190743790Y-87626793D01*
X191027212Y-87823777D01*
X191343499Y-87961959D01*
X191680601Y-88036075D01*
X192025679Y-88043304D01*
X192365589Y-87983368D01*
X192687384Y-87858552D01*
X192978807Y-87673610D01*
X193228758Y-87435585D01*
X193427716Y-87153544D01*
X193568102Y-86838230D01*
X193644571Y-86501654D01*
X193650076Y-86107423D01*
X193583035Y-85768843D01*
X193451507Y-85449732D01*
X193260502Y-85162246D01*
X193017295Y-84917335D01*
X192731149Y-84724327D01*
X192412964Y-84590575D01*
X192074860Y-84521172D01*
X191729715Y-84518763D01*
X191390675Y-84583438D01*
X191070654Y-84712735D01*
X190781841Y-84901728D01*
X190538468Y-85140057D01*
X190317295Y-84917335D01*
X190031149Y-84724327D01*
X189712964Y-84590575D01*
X189374860Y-84521172D01*
X189029715Y-84518763D01*
X188690675Y-84583438D01*
X188370654Y-84712735D01*
X188081841Y-84901728D01*
X187835238Y-85143220D01*
X187744579Y-85275624D01*
X187677104Y-85207676D01*
X187451927Y-85055792D01*
X187201537Y-84950538D01*
X186935472Y-84895923D01*
X186663867Y-84894027D01*
X186397065Y-84944922D01*
X186145230Y-85046670D01*
X185917955Y-85195395D01*
X185835908Y-85275741D01*
X185760502Y-85162246D01*
X185517295Y-84917335D01*
X185231149Y-84724327D01*
X184912964Y-84590575D01*
X184574860Y-84521172D01*
X184229715Y-84518763D01*
X183890675Y-84583438D01*
X183570654Y-84712735D01*
X183281841Y-84901728D01*
X183038468Y-85140057D01*
X182817295Y-84917335D01*
X182531149Y-84724327D01*
X182212964Y-84590575D01*
X181874860Y-84521172D01*
X181529715Y-84518763D01*
X181190675Y-84583438D01*
X180870654Y-84712735D01*
X180581841Y-84901728D01*
X180335238Y-85143220D01*
X180140238Y-85428011D01*
X180004267Y-85745254D01*
X179932506Y-86082865D01*
X179927686Y-86427986D01*
X169037000Y-86427986D01*
X169037000Y-71185356D01*
X173395699Y-68072000D01*
X179070000Y-68072000D01*
X179105381Y-68066972D01*
X179137961Y-68052286D01*
X179165160Y-68029105D01*
X179184823Y-67999264D01*
X179195395Y-67965127D01*
X179197000Y-67945000D01*
X179197000Y-61585247D01*
X191505588Y-61585247D01*
X191530299Y-61856772D01*
X191607278Y-62118325D01*
X191733594Y-62359946D01*
X191904436Y-62572430D01*
X192113295Y-62747684D01*
X192328118Y-62865784D01*
X192129466Y-62971409D01*
X191918180Y-63143730D01*
X191744389Y-63353808D01*
X191614711Y-63593641D01*
X191534087Y-63854094D01*
X191505588Y-64125247D01*
X191530299Y-64396772D01*
X191607278Y-64658325D01*
X191733594Y-64899946D01*
X191904436Y-65112430D01*
X192113295Y-65287684D01*
X192352217Y-65419032D01*
X192612101Y-65501472D01*
X192883049Y-65531864D01*
X192902554Y-65532000D01*
X194447446Y-65532000D01*
X194718791Y-65505394D01*
X194979801Y-65426591D01*
X195220534Y-65298591D01*
X195431820Y-65126270D01*
X195605611Y-64916192D01*
X195735289Y-64676359D01*
X195815913Y-64415906D01*
X195844412Y-64144753D01*
X195819701Y-63873228D01*
X195742722Y-63611675D01*
X195616406Y-63370054D01*
X195445564Y-63157570D01*
X195236705Y-62982316D01*
X195021882Y-62864216D01*
X195220534Y-62758591D01*
X195431820Y-62586270D01*
X195605611Y-62376192D01*
X195735289Y-62136359D01*
X195815913Y-61875906D01*
X195844412Y-61604753D01*
X195819701Y-61333228D01*
X195742722Y-61071675D01*
X195616406Y-60830054D01*
X195445564Y-60617570D01*
X195236705Y-60442316D01*
X195021915Y-60324234D01*
X195088942Y-60297059D01*
X195318729Y-60146006D01*
X195514632Y-59953026D01*
X195669122Y-59725535D01*
X195776262Y-59472276D01*
X195791220Y-59398070D01*
X195668720Y-59182000D01*
X193802000Y-59182000D01*
X193802000Y-59202000D01*
X193548000Y-59202000D01*
X193548000Y-59182000D01*
X191681280Y-59182000D01*
X191558780Y-59398070D01*
X191573738Y-59472276D01*
X191680878Y-59725535D01*
X191835368Y-59953026D01*
X192031271Y-60146006D01*
X192261058Y-60297059D01*
X192329757Y-60324912D01*
X192129466Y-60431409D01*
X191918180Y-60603730D01*
X191744389Y-60813808D01*
X191614711Y-61053641D01*
X191534087Y-61314094D01*
X191505588Y-61585247D01*
X179197000Y-61585247D01*
X179197000Y-58711930D01*
X191558780Y-58711930D01*
X191681280Y-58928000D01*
X193548000Y-58928000D01*
X193548000Y-57658000D01*
X193802000Y-57658000D01*
X193802000Y-58928000D01*
X195668720Y-58928000D01*
X195791220Y-58711930D01*
X195776262Y-58637724D01*
X195669122Y-58384465D01*
X195514632Y-58156974D01*
X195318729Y-57963994D01*
X195088942Y-57812941D01*
X194834101Y-57709619D01*
X194564000Y-57658000D01*
X193802000Y-57658000D01*
X193548000Y-57658000D01*
X192786000Y-57658000D01*
X192515899Y-57709619D01*
X192261058Y-57812941D01*
X192031271Y-57963994D01*
X191835368Y-58156974D01*
X191680878Y-58384465D01*
X191573738Y-58637724D01*
X191558780Y-58711930D01*
X179197000Y-58711930D01*
X179197000Y-56654700D01*
X197599300Y-56654700D01*
X197599300Y-87499590D01*
X197599300Y-87499590D01*
G37*
X197599300Y-87499590D02*
X192890928Y-93378144D01*
X192799628Y-93459300D01*
X169037000Y-93459300D01*
X169037000Y-91757500D01*
X169037002Y-91757500D01*
X169037002Y-91598752D01*
X169195750Y-91757500D01*
X169607542Y-91757500D01*
X169730223Y-91733097D01*
X169845785Y-91685230D01*
X169949789Y-91615737D01*
X170038237Y-91527289D01*
X170107730Y-91423285D01*
X170118843Y-91396455D01*
X180403180Y-91396455D01*
X180452211Y-91663605D01*
X180552198Y-91916144D01*
X180699333Y-92144452D01*
X180888011Y-92339834D01*
X181111045Y-92494847D01*
X181359941Y-92603586D01*
X181625217Y-92661911D01*
X181896770Y-92667599D01*
X182164256Y-92620434D01*
X182196694Y-92607852D01*
X185641753Y-92607852D01*
X185770076Y-92899871D01*
X186105695Y-93067723D01*
X186467611Y-93166874D01*
X186841916Y-93193514D01*
X187214227Y-93146618D01*
X187570235Y-93027988D01*
X187809924Y-92899871D01*
X187938247Y-92607852D01*
X186790000Y-91459605D01*
X185641753Y-92607852D01*
X182196694Y-92607852D01*
X182417487Y-92522213D01*
X182646817Y-92376675D01*
X182843511Y-92189366D01*
X183000077Y-91967419D01*
X183110552Y-91719289D01*
X183170727Y-91454426D01*
X183172437Y-91331916D01*
X184876486Y-91331916D01*
X184923382Y-91704227D01*
X185042012Y-92060235D01*
X185170129Y-92299924D01*
X185462148Y-92428247D01*
X186610395Y-91280000D01*
X186969605Y-91280000D01*
X188117852Y-92428247D01*
X188409871Y-92299924D01*
X188577723Y-91964305D01*
X188676874Y-91602389D01*
X188691530Y-91396455D01*
X190403180Y-91396455D01*
X190452211Y-91663605D01*
X190552198Y-91916144D01*
X190699333Y-92144452D01*
X190888011Y-92339834D01*
X191111045Y-92494847D01*
X191359941Y-92603586D01*
X191625217Y-92661911D01*
X191896770Y-92667599D01*
X192164256Y-92620434D01*
X192417487Y-92522213D01*
X192646817Y-92376675D01*
X192843511Y-92189366D01*
X193000077Y-91967419D01*
X193110552Y-91719289D01*
X193170727Y-91454426D01*
X193175059Y-91144194D01*
X193122303Y-90877754D01*
X193018799Y-90626636D01*
X192868491Y-90400404D01*
X192677104Y-90207676D01*
X192451927Y-90055792D01*
X192201537Y-89950538D01*
X191935472Y-89895923D01*
X191663867Y-89894027D01*
X191397065Y-89944922D01*
X191145230Y-90046670D01*
X190917955Y-90195395D01*
X190723895Y-90385432D01*
X190570443Y-90609543D01*
X190463444Y-90859192D01*
X190406972Y-91124869D01*
X190403180Y-91396455D01*
X188691530Y-91396455D01*
X188703514Y-91228084D01*
X188656618Y-90855773D01*
X188537988Y-90499765D01*
X188409871Y-90260076D01*
X188117852Y-90131753D01*
X186969605Y-91280000D01*
X186610395Y-91280000D01*
X185462148Y-90131753D01*
X185170129Y-90260076D01*
X185002277Y-90595695D01*
X184903126Y-90957611D01*
X184876486Y-91331916D01*
X183172437Y-91331916D01*
X183175059Y-91144194D01*
X183122303Y-90877754D01*
X183018799Y-90626636D01*
X182868491Y-90400404D01*
X182677104Y-90207676D01*
X182451927Y-90055792D01*
X182205368Y-89952148D01*
X185641753Y-89952148D01*
X186790000Y-91100395D01*
X187938247Y-89952148D01*
X187809924Y-89660129D01*
X187474305Y-89492277D01*
X187112389Y-89393126D01*
X186738084Y-89366486D01*
X186365773Y-89413382D01*
X186009765Y-89532012D01*
X185770076Y-89660129D01*
X185641753Y-89952148D01*
X182205368Y-89952148D01*
X182201537Y-89950538D01*
X181935472Y-89895923D01*
X181663867Y-89894027D01*
X181397065Y-89944922D01*
X181145230Y-90046670D01*
X180917955Y-90195395D01*
X180723895Y-90385432D01*
X180570443Y-90609543D01*
X180463444Y-90859192D01*
X180406972Y-91124869D01*
X180403180Y-91396455D01*
X170118843Y-91396455D01*
X170155597Y-91307723D01*
X170180000Y-91185042D01*
X170180000Y-91090750D01*
X170021250Y-90932000D01*
X169037000Y-90932000D01*
X169037000Y-90678000D01*
X170021250Y-90678000D01*
X170180000Y-90519250D01*
X170180000Y-90424958D01*
X170155597Y-90302277D01*
X170107730Y-90186715D01*
X170038237Y-90082711D01*
X169949789Y-89994263D01*
X169845785Y-89924770D01*
X169730223Y-89876903D01*
X169607542Y-89852500D01*
X169195750Y-89852500D01*
X169037002Y-90011248D01*
X169037002Y-89852500D01*
X169037000Y-89852500D01*
X169037000Y-86427986D01*
X179927686Y-86427986D01*
X179989993Y-86767469D01*
X180117053Y-87088385D01*
X180304026Y-87378510D01*
X180543790Y-87626793D01*
X180827212Y-87823777D01*
X181143499Y-87961959D01*
X181480601Y-88036075D01*
X181825679Y-88043304D01*
X182165589Y-87983368D01*
X182487384Y-87858552D01*
X182778807Y-87673610D01*
X183028758Y-87435585D01*
X183041584Y-87417403D01*
X183243790Y-87626793D01*
X183527212Y-87823777D01*
X183843499Y-87961959D01*
X184180601Y-88036075D01*
X184525679Y-88043304D01*
X184865589Y-87983368D01*
X185187384Y-87858552D01*
X185478807Y-87673610D01*
X185728758Y-87435585D01*
X185835015Y-87284955D01*
X185888011Y-87339834D01*
X186111045Y-87494847D01*
X186359941Y-87603586D01*
X186625217Y-87661911D01*
X186896770Y-87667599D01*
X187164256Y-87620434D01*
X187417487Y-87522213D01*
X187646817Y-87376675D01*
X187743505Y-87284600D01*
X187804026Y-87378510D01*
X188043790Y-87626793D01*
X188327212Y-87823777D01*
X188643499Y-87961959D01*
X188980601Y-88036075D01*
X189325679Y-88043304D01*
X189665589Y-87983368D01*
X189987384Y-87858552D01*
X190278807Y-87673610D01*
X190528758Y-87435585D01*
X190541584Y-87417403D01*
X190743790Y-87626793D01*
X191027212Y-87823777D01*
X191343499Y-87961959D01*
X191680601Y-88036075D01*
X192025679Y-88043304D01*
X192365589Y-87983368D01*
X192687384Y-87858552D01*
X192978807Y-87673610D01*
X193228758Y-87435585D01*
X193427716Y-87153544D01*
X193568102Y-86838230D01*
X193644571Y-86501654D01*
X193650076Y-86107423D01*
X193583035Y-85768843D01*
X193451507Y-85449732D01*
X193260502Y-85162246D01*
X193017295Y-84917335D01*
X192731149Y-84724327D01*
X192412964Y-84590575D01*
X192074860Y-84521172D01*
X191729715Y-84518763D01*
X191390675Y-84583438D01*
X191070654Y-84712735D01*
X190781841Y-84901728D01*
X190538468Y-85140057D01*
X190317295Y-84917335D01*
X190031149Y-84724327D01*
X189712964Y-84590575D01*
X189374860Y-84521172D01*
X189029715Y-84518763D01*
X188690675Y-84583438D01*
X188370654Y-84712735D01*
X188081841Y-84901728D01*
X187835238Y-85143220D01*
X187744579Y-85275624D01*
X187677104Y-85207676D01*
X187451927Y-85055792D01*
X187201537Y-84950538D01*
X186935472Y-84895923D01*
X186663867Y-84894027D01*
X186397065Y-84944922D01*
X186145230Y-85046670D01*
X185917955Y-85195395D01*
X185835908Y-85275741D01*
X185760502Y-85162246D01*
X185517295Y-84917335D01*
X185231149Y-84724327D01*
X184912964Y-84590575D01*
X184574860Y-84521172D01*
X184229715Y-84518763D01*
X183890675Y-84583438D01*
X183570654Y-84712735D01*
X183281841Y-84901728D01*
X183038468Y-85140057D01*
X182817295Y-84917335D01*
X182531149Y-84724327D01*
X182212964Y-84590575D01*
X181874860Y-84521172D01*
X181529715Y-84518763D01*
X181190675Y-84583438D01*
X180870654Y-84712735D01*
X180581841Y-84901728D01*
X180335238Y-85143220D01*
X180140238Y-85428011D01*
X180004267Y-85745254D01*
X179932506Y-86082865D01*
X179927686Y-86427986D01*
X169037000Y-86427986D01*
X169037000Y-71185356D01*
X173395699Y-68072000D01*
X179070000Y-68072000D01*
X179105381Y-68066972D01*
X179137961Y-68052286D01*
X179165160Y-68029105D01*
X179184823Y-67999264D01*
X179195395Y-67965127D01*
X179197000Y-67945000D01*
X179197000Y-61585247D01*
X191505588Y-61585247D01*
X191530299Y-61856772D01*
X191607278Y-62118325D01*
X191733594Y-62359946D01*
X191904436Y-62572430D01*
X192113295Y-62747684D01*
X192328118Y-62865784D01*
X192129466Y-62971409D01*
X191918180Y-63143730D01*
X191744389Y-63353808D01*
X191614711Y-63593641D01*
X191534087Y-63854094D01*
X191505588Y-64125247D01*
X191530299Y-64396772D01*
X191607278Y-64658325D01*
X191733594Y-64899946D01*
X191904436Y-65112430D01*
X192113295Y-65287684D01*
X192352217Y-65419032D01*
X192612101Y-65501472D01*
X192883049Y-65531864D01*
X192902554Y-65532000D01*
X194447446Y-65532000D01*
X194718791Y-65505394D01*
X194979801Y-65426591D01*
X195220534Y-65298591D01*
X195431820Y-65126270D01*
X195605611Y-64916192D01*
X195735289Y-64676359D01*
X195815913Y-64415906D01*
X195844412Y-64144753D01*
X195819701Y-63873228D01*
X195742722Y-63611675D01*
X195616406Y-63370054D01*
X195445564Y-63157570D01*
X195236705Y-62982316D01*
X195021882Y-62864216D01*
X195220534Y-62758591D01*
X195431820Y-62586270D01*
X195605611Y-62376192D01*
X195735289Y-62136359D01*
X195815913Y-61875906D01*
X195844412Y-61604753D01*
X195819701Y-61333228D01*
X195742722Y-61071675D01*
X195616406Y-60830054D01*
X195445564Y-60617570D01*
X195236705Y-60442316D01*
X195021915Y-60324234D01*
X195088942Y-60297059D01*
X195318729Y-60146006D01*
X195514632Y-59953026D01*
X195669122Y-59725535D01*
X195776262Y-59472276D01*
X195791220Y-59398070D01*
X195668720Y-59182000D01*
X193802000Y-59182000D01*
X193802000Y-59202000D01*
X193548000Y-59202000D01*
X193548000Y-59182000D01*
X191681280Y-59182000D01*
X191558780Y-59398070D01*
X191573738Y-59472276D01*
X191680878Y-59725535D01*
X191835368Y-59953026D01*
X192031271Y-60146006D01*
X192261058Y-60297059D01*
X192329757Y-60324912D01*
X192129466Y-60431409D01*
X191918180Y-60603730D01*
X191744389Y-60813808D01*
X191614711Y-61053641D01*
X191534087Y-61314094D01*
X191505588Y-61585247D01*
X179197000Y-61585247D01*
X179197000Y-58711930D01*
X191558780Y-58711930D01*
X191681280Y-58928000D01*
X193548000Y-58928000D01*
X193548000Y-57658000D01*
X193802000Y-57658000D01*
X193802000Y-58928000D01*
X195668720Y-58928000D01*
X195791220Y-58711930D01*
X195776262Y-58637724D01*
X195669122Y-58384465D01*
X195514632Y-58156974D01*
X195318729Y-57963994D01*
X195088942Y-57812941D01*
X194834101Y-57709619D01*
X194564000Y-57658000D01*
X193802000Y-57658000D01*
X193548000Y-57658000D01*
X192786000Y-57658000D01*
X192515899Y-57709619D01*
X192261058Y-57812941D01*
X192031271Y-57963994D01*
X191835368Y-58156974D01*
X191680878Y-58384465D01*
X191573738Y-58637724D01*
X191558780Y-58711930D01*
X179197000Y-58711930D01*
X179197000Y-56654700D01*
X197599300Y-56654700D01*
X197599300Y-87499590D01*
M02*
