M48
;DRILL file {KiCad 4.0.5} date Saturday, 25 March 2017 'PMt' 19:04:59
;FORMAT={-:-/ absolute / inch / decimal}
FMAT,2
INCH,TZ
T1C0.024
T2C0.025
T3C0.032
T4C0.035
T5C0.040
T6C0.059
%
G90
G05
M72
T1
X6.1125Y-2.625
X6.125Y-3.0375
X6.1375Y-3.15
X6.2625Y-2.6
X6.35Y-3.3
X6.425Y-3.35
X6.4875Y-3.075
X6.5375Y-2.5875
X6.725Y-2.55
X6.8Y-3.025
X6.8625Y-2.3125
X6.875Y-2.7
X7.0375Y-2.9875
X7.125Y-2.625
X7.125Y-3.025
X7.2Y-2.5375
X7.4625Y-2.2875
T2
X6.45Y-3.45
X6.9Y-3.55
T3
X5.975Y-2.73
X5.975Y-2.92
T4
X6.3107Y-3.075
X6.3893Y-3.075
T5
X5.95Y-3.15
X5.95Y-3.25
X5.95Y-3.35
X5.95Y-3.45
X6.05Y-2.295
X6.15Y-2.305
X6.25Y-2.295
X6.35Y-2.305
X6.45Y-2.295
X7.625Y-2.325
X7.625Y-2.425
X7.625Y-2.525
T6
X7.1532Y-3.3969
X7.2595Y-3.3969
X7.3539Y-3.5938
X7.4484Y-3.3969
X7.5547Y-3.3969
T0
M30
