G04 #@! TF.FileFunction,Soldermask,Top*
%FSLAX46Y46*%
G04 Gerber Fmt 4.6, Leading zero omitted, Abs format (unit mm)*
G04 Created by KiCad (PCBNEW 4.0.5) date Saturday, 25 March 2017 'PMt' 19:04:54*
%MOMM*%
%LPD*%
G01*
G04 APERTURE LIST*
%ADD10C,0.100000*%
%ADD11C,1.670000*%
%ADD12R,1.197560X1.598880*%
%ADD13R,1.047700X2.599640*%
%ADD14R,1.598880X1.197560*%
%ADD15R,1.799540X3.399740*%
%ADD16R,3.399740X1.799540*%
%ADD17R,0.849580X1.779220*%
%ADD18R,1.873200X2.498040*%
%ADD19R,2.774900X2.299920*%
%ADD20R,1.573480X2.299920*%
%ADD21C,2.279600*%
%ADD22R,1.398220X1.398220*%
%ADD23C,1.720800*%
%ADD24O,3.448000X1.924000*%
%ADD25R,0.958800X1.670000*%
%ADD26R,1.670000X0.958800*%
%ADD27C,2.940000*%
%ADD28C,2.647900*%
G04 APERTURE END LIST*
D10*
D11*
X162288220Y-78105000D03*
X160291780Y-78105000D03*
D12*
X169809160Y-64770000D03*
X168010840Y-64770000D03*
D13*
X174426880Y-64764920D03*
X174426880Y-61066680D03*
D14*
X172720000Y-68315840D03*
X172720000Y-70114160D03*
X155575000Y-69796660D03*
X155575000Y-67998340D03*
X155575000Y-74030840D03*
X155575000Y-75829160D03*
D12*
X176265840Y-73342500D03*
X178064160Y-73342500D03*
D14*
X172720000Y-73395840D03*
X172720000Y-75194160D03*
D12*
X176265840Y-70167500D03*
X178064160Y-70167500D03*
X158358840Y-76200000D03*
X160157160Y-76200000D03*
D15*
X175260000Y-78501240D03*
X175260000Y-83296760D03*
D16*
X180482240Y-59944000D03*
X185277760Y-59944000D03*
D14*
X157480000Y-78475840D03*
X157480000Y-80274160D03*
D17*
X159992060Y-90170000D03*
X160642300Y-90170000D03*
X161290000Y-90170000D03*
X161937700Y-90170000D03*
X162587940Y-90170000D03*
D18*
X158828740Y-90528140D03*
X163751260Y-90528140D03*
D19*
X158379160Y-92829380D03*
D20*
X160472120Y-92829380D03*
X162138360Y-92829380D03*
D19*
X164200840Y-92829380D03*
D21*
X153670000Y-58293000D03*
X156210000Y-58547000D03*
X158750000Y-58293000D03*
X161290000Y-58547000D03*
X163830000Y-58293000D03*
D14*
X159385000Y-80380840D03*
X159385000Y-82179160D03*
D22*
X152133300Y-62865000D03*
X150380700Y-62865000D03*
X159118300Y-69215000D03*
X157365700Y-69215000D03*
D23*
X151765000Y-69342000D03*
X151765000Y-74168000D03*
D14*
X155575000Y-70855840D03*
X155575000Y-72654160D03*
X180975000Y-75194160D03*
X180975000Y-73395840D03*
X158242000Y-75003660D03*
X158242000Y-73205340D03*
X180911500Y-68315840D03*
X180911500Y-70114160D03*
D12*
X177429160Y-75882500D03*
X175630840Y-75882500D03*
X181556660Y-64452500D03*
X179758340Y-64452500D03*
D14*
X161290000Y-80380840D03*
X161290000Y-82179160D03*
X175260000Y-87894160D03*
X175260000Y-86095840D03*
X163195000Y-80380840D03*
X163195000Y-82179160D03*
D12*
X189494160Y-60007500D03*
X187695840Y-60007500D03*
X164772340Y-82550000D03*
X166570660Y-82550000D03*
X152029160Y-60960000D03*
X150230840Y-60960000D03*
X159014160Y-67310000D03*
X157215840Y-67310000D03*
D24*
X151130000Y-80010000D03*
X151130000Y-82550000D03*
X151130000Y-85090000D03*
X151130000Y-87630000D03*
D25*
X168534080Y-67462400D03*
X167733980Y-67462400D03*
X166933880Y-67462400D03*
X166133780Y-67462400D03*
X165336220Y-67462400D03*
X164536120Y-67462400D03*
X163736020Y-67462400D03*
X162935920Y-67462400D03*
D26*
X161442400Y-68955920D03*
X161442400Y-69756020D03*
X161442400Y-70556120D03*
X161442400Y-71356220D03*
X161442400Y-72153780D03*
X161442400Y-72953880D03*
X161442400Y-73753980D03*
X161442400Y-74554080D03*
D25*
X162935920Y-76045060D03*
X163736020Y-76045060D03*
X164536120Y-76045060D03*
X165336220Y-76045060D03*
X166133780Y-76045060D03*
X166933880Y-76045060D03*
X167733980Y-76045060D03*
X168534080Y-76045060D03*
D26*
X170025060Y-74554080D03*
X170025060Y-73753980D03*
X170025060Y-72953880D03*
X170025060Y-72153780D03*
X170025060Y-71356220D03*
X170025060Y-70556120D03*
X170025060Y-69756020D03*
X170025060Y-68955920D03*
D24*
X193675000Y-59055000D03*
X193675000Y-61595000D03*
X193675000Y-64135000D03*
D27*
X186789060Y-91282520D03*
D28*
X181691280Y-86281260D03*
X184391300Y-86281260D03*
X189189360Y-86281260D03*
X191889380Y-86281260D03*
M02*
